RobotoFlex_opsz144.ufo
<glyph name="exclam" format="2">
  <advance width="555"/>
  <unicode hex="0021"/>
  <outline>
    <contour>
      <point x="269" y="68" type="qcurve" smooth="yes"/>
      <point x="269" y="71"/>
      <point x="273" y="76"/>
      <point x="278" y="76" type="qcurve" smooth="yes"/>
      <point x="282" y="76"/>
      <point x="286" y="71"/>
      <point x="286" y="68" type="qcurve" smooth="yes"/>
      <point x="286" y="63"/>
      <point x="282" y="59"/>
      <point x="278" y="59" type="qcurve" smooth="yes"/>
      <point x="273" y="59"/>
      <point x="269" y="63"/>
    </contour>
    <contour>
      <point x="232" y="410" type="line"/>
      <point x="222" y="1456" type="line"/>
      <point x="333" y="1456" type="line"/>
      <point x="324" y="410" type="line"/>
    </contour>
  </outline>
</glyph>
<glyph name="quotedbl" format="2">
  <advance width="618"/>
  <unicode hex="0022"/>
  <outline>
    <contour>
      <point x="121" y="966" type="line"/>
      <point x="100" y="1320" type="line"/>
      <point x="100" y="1456" type="line"/>
      <point x="216" y="1456" type="line"/>
      <point x="216" y="1320" type="line"/>
      <point x="196" y="966" type="line"/>
    </contour>
    <contour>
      <point x="422" y="966" type="line"/>
      <point x="401" y="1320" type="line"/>
      <point x="401" y="1456" type="line"/>
      <point x="518" y="1456" type="line"/>
      <point x="518" y="1320" type="line"/>
      <point x="497" y="966" type="line"/>
    </contour>
  </outline>
</glyph>
<glyph name="numbersign" format="2">
  <advance width="1493"/>
  <unicode hex="0023"/>
  <outline>
    <contour>
      <point x="238" y="-20" type="line"/>
      <point x="661" y="1500" type="line"/>
      <point x="752" y="1500" type="line"/>
      <point x="329" y="-20" type="line"/>
    </contour>
    <contour>
      <point x="719" y="-20" type="line"/>
      <point x="1142" y="1500" type="line"/>
      <point x="1233" y="1500" type="line"/>
      <point x="810" y="-20" type="line"/>
    </contour>
    <contour>
      <point x="64" y="434" type="line"/>
      <point x="64" y="526" type="line"/>
      <point x="1353" y="526" type="line"/>
      <point x="1353" y="434" type="line"/>
    </contour>
    <contour>
      <point x="116" y="941" type="line"/>
      <point x="116" y="1033" type="line"/>
      <point x="1404" y="1033" type="line"/>
      <point x="1404" y="941" type="line"/>
    </contour>
  </outline>
</glyph>
<glyph name="dollar" format="2">
  <advance width="862"/>
  <unicode hex="0024"/>
  <outline>
    <contour>
      <point x="29" y="384" type="qcurve" smooth="yes"/>
      <point x="29" y="397" type="line"/>
      <point x="135" y="397" type="line"/>
      <point x="135" y="386" type="line" smooth="yes"/>
      <point x="135" y="220"/>
      <point x="285" y="94"/>
      <point x="431" y="94" type="qcurve" smooth="yes"/>
      <point x="577" y="94"/>
      <point x="717" y="236"/>
      <point x="717" y="369" type="qcurve" smooth="yes"/>
      <point x="717" y="487"/>
      <point x="602" y="619"/>
      <point x="415" y="685" type="qcurve" smooth="yes"/>
      <point x="216" y="756"/>
      <point x="48" y="934"/>
      <point x="48" y="1100" type="qcurve" smooth="yes"/>
      <point x="48" y="1273"/>
      <point x="244" y="1457"/>
      <point x="422" y="1457" type="qcurve" smooth="yes"/>
      <point x="602" y="1457"/>
      <point x="796" y="1263"/>
      <point x="796" y="1074" type="qcurve" smooth="yes"/>
      <point x="796" y="1061" type="line"/>
      <point x="690" y="1061" type="line"/>
      <point x="690" y="1073" type="line" smooth="yes"/>
      <point x="690" y="1220"/>
      <point x="562" y="1361"/>
      <point x="422" y="1361" type="qcurve" smooth="yes"/>
      <point x="281" y="1361"/>
      <point x="157" y="1233"/>
      <point x="157" y="1100" type="qcurve" smooth="yes"/>
      <point x="157" y="992"/>
      <point x="279" y="855"/>
      <point x="477" y="788" type="qcurve" smooth="yes"/>
      <point x="655" y="727"/>
      <point x="824" y="542"/>
      <point x="824" y="369" type="qcurve" smooth="yes"/>
      <point x="824" y="185"/>
      <point x="619" y="-2"/>
      <point x="431" y="-2" type="qcurve" smooth="yes"/>
      <point x="241" y="-2"/>
      <point x="29" y="174"/>
    </contour>
    <contour>
      <point x="383" y="-160" type="line"/>
      <point x="383" y="737" type="line"/>
      <point x="471" y="737" type="line"/>
      <point x="471" y="59" type="line"/>
      <point x="474" y="49" type="line"/>
      <point x="474" y="-160" type="line"/>
    </contour>
    <contour>
      <point x="386" y="737" type="line"/>
      <point x="387" y="1380" type="line"/>
      <point x="384" y="1390" type="line"/>
      <point x="384" y="1598" type="line"/>
      <point x="475" y="1598" type="line"/>
      <point x="474" y="737" type="line"/>
    </contour>
  </outline>
</glyph>
<glyph name="ampersand" format="2">
  <advance width="1110"/>
  <unicode hex="0026"/>
  <outline>
    <contour>
      <point x="81" y="380" type="qcurve" smooth="yes"/>
      <point x="81" y="529"/>
      <point x="258" y="763"/>
      <point x="388" y="850" type="qcurve" smooth="yes"/>
      <point x="506" y="929" type="line" smooth="yes"/>
      <point x="577" y="976"/>
      <point x="657" y="1089"/>
      <point x="659" y="1171" type="qcurve" smooth="yes"/>
      <point x="659" y="1263"/>
      <point x="578" y="1390"/>
      <point x="494" y="1390" type="qcurve" smooth="yes"/>
      <point x="410" y="1390"/>
      <point x="325" y="1253"/>
      <point x="325" y="1161" type="qcurve" smooth="yes"/>
      <point x="325" y="1075"/>
      <point x="405" y="888"/>
      <point x="507" y="757" type="qcurve" smooth="yes"/>
      <point x="1086" y="0" type="line"/>
      <point x="959" y="0" type="line"/>
      <point x="442" y="669" type="line" smooth="yes"/>
      <point x="313" y="834"/>
      <point x="219" y="1037"/>
      <point x="219" y="1160" type="qcurve" smooth="yes"/>
      <point x="219" y="1301"/>
      <point x="373" y="1486"/>
      <point x="493" y="1486" type="qcurve" smooth="yes"/>
      <point x="613" y="1486"/>
      <point x="761" y="1313"/>
      <point x="761" y="1180" type="qcurve" smooth="yes"/>
      <point x="761" y="1067"/>
      <point x="652" y="914"/>
      <point x="567" y="856" type="qcurve" smooth="yes"/>
      <point x="436" y="767" type="line" smooth="yes"/>
      <point x="305" y="679"/>
      <point x="188" y="490"/>
      <point x="188" y="379" type="qcurve" smooth="yes"/>
      <point x="188" y="245"/>
      <point x="342" y="76"/>
      <point x="464" y="76" type="qcurve" smooth="yes"/>
      <point x="634" y="76"/>
      <point x="898" y="398"/>
      <point x="898" y="674" type="qcurve"/>
      <point x="1000" y="674" type="line"/>
      <point x="1000" y="380"/>
      <point x="684" y="-20"/>
      <point x="464" y="-20" type="qcurve" smooth="yes"/>
      <point x="287" y="-20"/>
      <point x="81" y="219"/>
    </contour>
  </outline>
</glyph>
<glyph name="quotesingle" format="2">
  <advance width="329"/>
  <unicode hex="0027"/>
  <outline>
    <contour>
      <point x="127" y="966" type="line"/>
      <point x="100" y="1320" type="line"/>
      <point x="100" y="1456" type="line"/>
      <point x="229" y="1456" type="line"/>
      <point x="229" y="1320" type="line"/>
      <point x="202" y="966" type="line"/>
    </contour>
  </outline>
</glyph>
<glyph name="parenleft" format="2">
  <advance width="597"/>
  <unicode hex="0028"/>
  <outline>
    <contour>
      <point x="561" y="-436" type="line"/>
      <point x="384" y="-349"/>
      <point x="124" y="114"/>
      <point x="124" y="515" type="qcurve" smooth="yes"/>
      <point x="124" y="525" type="line" smooth="yes"/>
      <point x="124" y="921"/>
      <point x="384" y="1389"/>
      <point x="561" y="1476" type="qcurve"/>
      <point x="561" y="1377" type="line"/>
      <point x="435" y="1300"/>
      <point x="237" y="907"/>
      <point x="237" y="532" type="qcurve" smooth="yes"/>
      <point x="237" y="508" type="line" smooth="yes"/>
      <point x="237" y="129"/>
      <point x="435" y="-260"/>
      <point x="561" y="-337" type="qcurve"/>
    </contour>
  </outline>
</glyph>
<glyph name="parenright" format="2">
  <advance width="597"/>
  <unicode hex="0029"/>
  <outline>
    <contour>
      <point x="36" y="-436" type="qcurve"/>
      <point x="36" y="-337" type="line"/>
      <point x="162" y="-260"/>
      <point x="360" y="129"/>
      <point x="360" y="508" type="qcurve" smooth="yes"/>
      <point x="360" y="532" type="line" smooth="yes"/>
      <point x="360" y="907"/>
      <point x="162" y="1300"/>
      <point x="36" y="1377" type="qcurve"/>
      <point x="36" y="1476" type="line"/>
      <point x="213" y="1389"/>
      <point x="473" y="921"/>
      <point x="473" y="525" type="qcurve" smooth="yes"/>
      <point x="473" y="515" type="line" smooth="yes"/>
      <point x="473" y="114"/>
      <point x="213" y="-349"/>
    </contour>
  </outline>
</glyph>
<glyph name="asterisk" format="2">
  <advance width="1058"/>
  <unicode hex="002A"/>
  <outline>
    <contour>
      <point x="62" y="1101" type="line"/>
      <point x="101" y="1215" type="line"/>
      <point x="491" y="1047" type="line"/>
      <point x="469" y="1476" type="line"/>
      <point x="585" y="1476" type="line"/>
      <point x="563" y="1046" type="line"/>
      <point x="950" y="1211" type="line"/>
      <point x="990" y="1102" type="line"/>
      <point x="581" y="978" type="line"/>
      <point x="846" y="650" type="line"/>
      <point x="751" y="579" type="line"/>
      <point x="528" y="935" type="line"/>
      <point x="307" y="582" type="line"/>
      <point x="212" y="648" type="line"/>
      <point x="470" y="977" type="line"/>
    </contour>
  </outline>
</glyph>
<glyph name="plus" format="2">
  <advance width="998"/>
  <unicode hex="002B"/>
  <outline>
    <contour>
      <point x="57" y="623" type="line"/>
      <point x="57" y="725" type="line"/>
      <point x="941" y="725" type="line"/>
      <point x="941" y="623" type="line"/>
    </contour>
    <contour>
      <point x="446" y="189" type="line"/>
      <point x="446" y="1162" type="line"/>
      <point x="552" y="1162" type="line"/>
      <point x="552" y="189" type="line"/>
    </contour>
  </outline>
</glyph>
<glyph name="comma" format="2">
  <advance width="534"/>
  <unicode hex="002C"/>
  <outline>
    <contour>
      <point x="132" y="-235" type="line"/>
      <point x="183" y="-167"/>
      <point x="228" y="-1"/>
      <point x="227" y="84" type="qcurve" smooth="yes"/>
      <point x="227" y="220" type="line"/>
      <point x="344" y="220" type="line"/>
      <point x="344" y="86" type="line" smooth="yes"/>
      <point x="344" y="-13"/>
      <point x="271" y="-209"/>
      <point x="195" y="-278" type="qcurve"/>
    </contour>
  </outline>
</glyph>
<glyph name="period" format="2">
  <advance width="529"/>
  <unicode hex="002E"/>
  <outline>
    <contour>
      <point x="160" y="82" type="qcurve" smooth="yes"/>
      <point x="160" y="124"/>
      <point x="214" y="184"/>
      <point x="265" y="184" type="qcurve" smooth="yes"/>
      <point x="315" y="184"/>
      <point x="369" y="124"/>
      <point x="369" y="82" type="qcurve" smooth="yes"/>
      <point x="369" y="40"/>
      <point x="315" y="-19"/>
      <point x="265" y="-19" type="qcurve" smooth="yes"/>
      <point x="214" y="-19"/>
      <point x="160" y="40"/>
    </contour>
  </outline>
</glyph>
<glyph name="slash" format="2">
  <advance width="483"/>
  <unicode hex="002F"/>
  <outline>
    <contour>
      <point x="-73" y="-125" type="line"/>
      <point x="506" y="1456" type="line"/>
      <point x="556" y="1456" type="line"/>
      <point x="-23" y="-125" type="line"/>
    </contour>
  </outline>
</glyph>
<glyph name="zero" format="2">
  <advance width="956"/>
  <unicode hex="0030"/>
  <outline>
    <contour>
      <point x="110" y="443" type="qcurve" smooth="yes"/>
      <point x="110" y="1013" type="line" smooth="yes"/>
      <point x="110" y="1227"/>
      <point x="303" y="1486"/>
      <point x="478" y="1486" type="qcurve" smooth="yes"/>
      <point x="652" y="1486"/>
      <point x="846" y="1227"/>
      <point x="846" y="1013" type="qcurve" smooth="yes"/>
      <point x="846" y="443" type="line" smooth="yes"/>
      <point x="846" y="230"/>
      <point x="652" y="-30"/>
      <point x="478" y="-30" type="qcurve" smooth="yes"/>
      <point x="303" y="-30"/>
      <point x="110" y="230"/>
    </contour>
    <contour>
      <point x="222" y="433" type="line" smooth="yes"/>
      <point x="222" y="278"/>
      <point x="348" y="69"/>
      <point x="478" y="69" type="qcurve" smooth="yes"/>
      <point x="608" y="69"/>
      <point x="734" y="278"/>
      <point x="734" y="433" type="qcurve" smooth="yes"/>
      <point x="734" y="1023" type="line" smooth="yes"/>
      <point x="734" y="1179"/>
      <point x="608" y="1387"/>
      <point x="478" y="1387" type="qcurve" smooth="yes"/>
      <point x="348" y="1387"/>
      <point x="222" y="1179"/>
      <point x="222" y="1023" type="qcurve" smooth="yes"/>
    </contour>
  </outline>
</glyph>
<glyph name="one" format="2">
  <advance width="1065"/>
  <unicode hex="0031"/>
  <outline>
    <contour>
      <point x="530" y="-1" type="line"/>
      <point x="530" y="1329" type="line"/>
      <point x="172" y="1185" type="line"/>
      <point x="172" y="1302" type="line"/>
      <point x="612" y="1476" type="line"/>
      <point x="641" y="1476" type="line"/>
      <point x="641" y="-1" type="line"/>
    </contour>
  </outline>
</glyph>
<glyph name="two" format="2">
  <advance width="954"/>
  <unicode hex="0032"/>
  <outline>
    <contour>
      <point x="73" y="0" type="line"/>
      <point x="72" y="103" type="line"/>
      <point x="512" y="634" type="line" smooth="yes"/>
      <point x="589" y="728"/>
      <point x="718" y="943"/>
      <point x="718" y="1084" type="qcurve" smooth="yes"/>
      <point x="718" y="1235"/>
      <point x="592" y="1387"/>
      <point x="480" y="1387" type="qcurve" smooth="yes"/>
      <point x="368" y="1387"/>
      <point x="214" y="1208"/>
      <point x="214" y="1037" type="qcurve" smooth="yes"/>
      <point x="214" y="1020" type="line"/>
      <point x="104" y="1020" type="line"/>
      <point x="104" y="1036" type="line" smooth="yes"/>
      <point x="104" y="1240"/>
      <point x="321" y="1486"/>
      <point x="481" y="1486" type="qcurve" smooth="yes"/>
      <point x="641" y="1486"/>
      <point x="830" y="1264"/>
      <point x="830" y="1094" type="qcurve" smooth="yes"/>
      <point x="830" y="948"/>
      <point x="713" y="713"/>
      <point x="595" y="573" type="qcurve" smooth="yes"/>
      <point x="191" y="96" type="line"/>
      <point x="868" y="96" type="line"/>
      <point x="868" y="0" type="line"/>
    </contour>
  </outline>
</glyph>
<glyph name="three" format="2">
  <advance width="960"/>
  <unicode hex="0033"/>
  <outline>
    <contour>
      <point x="80" y="375" type="qcurve" smooth="yes"/>
      <point x="80" y="390" type="line"/>
      <point x="188" y="390" type="line"/>
      <point x="188" y="375" type="line" smooth="yes"/>
      <point x="188" y="230"/>
      <point x="338" y="69"/>
      <point x="462" y="69" type="qcurve" smooth="yes"/>
      <point x="585" y="69"/>
      <point x="733" y="233"/>
      <point x="733" y="400" type="qcurve" smooth="yes"/>
      <point x="733" y="551"/>
      <point x="562" y="709"/>
      <point x="425" y="709" type="qcurve" smooth="yes"/>
      <point x="315" y="709" type="line"/>
      <point x="315" y="809" type="line"/>
      <point x="416" y="809" type="line" smooth="yes"/>
      <point x="548" y="809"/>
      <point x="685" y="965"/>
      <point x="685" y="1095" type="qcurve" smooth="yes"/>
      <point x="685" y="1237"/>
      <point x="563" y="1387"/>
      <point x="460" y="1387" type="qcurve" smooth="yes"/>
      <point x="361" y="1387"/>
      <point x="227" y="1242"/>
      <point x="227" y="1105" type="qcurve" smooth="yes"/>
      <point x="227" y="1090" type="line"/>
      <point x="118" y="1090" type="line"/>
      <point x="118" y="1105" type="line" smooth="yes"/>
      <point x="118" y="1270"/>
      <point x="315" y="1486"/>
      <point x="462" y="1486" type="qcurve" smooth="yes"/>
      <point x="611" y="1486"/>
      <point x="796" y="1270"/>
      <point x="796" y="1100" type="qcurve" smooth="yes"/>
      <point x="796" y="970"/>
      <point x="686" y="803"/>
      <point x="570" y="764" type="qcurve"/>
      <point x="570" y="760" type="line"/>
      <point x="691" y="734"/>
      <point x="846" y="551"/>
      <point x="846" y="400" type="qcurve" smooth="yes"/>
      <point x="846" y="200"/>
      <point x="630" y="-30"/>
      <point x="462" y="-30" type="qcurve" smooth="yes"/>
      <point x="297" y="-30"/>
      <point x="80" y="196"/>
    </contour>
  </outline>
</glyph>
<glyph name="four" format="2">
  <advance width="1069"/>
  <unicode hex="0034"/>
  <outline>
    <contour>
      <point x="721" y="0" type="line"/>
      <point x="721" y="436" type="line"/>
      <point x="721" y="465" type="line"/>
      <point x="721" y="1289" type="line"/>
      <point x="712" y="1289" type="line"/>
      <point x="146" y="434" type="line"/>
      <point x="759" y="434" type="line"/>
      <point x="796" y="434" type="line"/>
      <point x="1021" y="434" type="line"/>
      <point x="1021" y="344" type="line"/>
      <point x="50" y="344" type="line"/>
      <point x="50" y="468" type="line"/>
      <point x="706" y="1456" type="line"/>
      <point x="827" y="1456" type="line"/>
      <point x="827" y="0" type="line"/>
    </contour>
  </outline>
</glyph>
<glyph name="five" format="2">
  <advance width="963"/>
  <unicode hex="0035"/>
  <outline>
    <contour>
      <point x="100" y="365" type="qcurve" smooth="yes"/>
      <point x="100" y="375" type="line"/>
      <point x="208" y="375" type="line"/>
      <point x="208" y="365" type="line" smooth="yes"/>
      <point x="208" y="228"/>
      <point x="354" y="69"/>
      <point x="475" y="69" type="qcurve" smooth="yes"/>
      <point x="597" y="69"/>
      <point x="753" y="275"/>
      <point x="753" y="466" type="qcurve" smooth="yes"/>
      <point x="753" y="646"/>
      <point x="597" y="826"/>
      <point x="476" y="826" type="qcurve" smooth="yes"/>
      <point x="397" y="826"/>
      <point x="256" y="726"/>
      <point x="235" y="687" type="qcurve"/>
      <point x="147" y="728" type="line"/>
      <point x="222" y="1456" type="line"/>
      <point x="799" y="1456" type="line"/>
      <point x="799" y="1358" type="line"/>
      <point x="314" y="1357" type="line"/>
      <point x="257" y="826" type="line"/>
      <point x="281" y="858"/>
      <point x="400" y="926"/>
      <point x="492" y="926" type="qcurve" smooth="yes"/>
      <point x="647" y="926"/>
      <point x="863" y="690"/>
      <point x="863" y="468" type="qcurve" smooth="yes"/>
      <point x="863" y="233"/>
      <point x="643" y="-29"/>
      <point x="475" y="-29" type="qcurve" smooth="yes"/>
      <point x="312" y="-29"/>
      <point x="100" y="195"/>
    </contour>
  </outline>
</glyph>
<glyph name="six" format="2">
  <advance width="959"/>
  <unicode hex="0036"/>
  <outline>
    <contour>
      <point x="88" y="614" type="qcurve" smooth="yes"/>
      <point x="88" y="644" type="line" smooth="yes"/>
      <point x="88" y="1027"/>
      <point x="417" y="1486"/>
      <point x="712" y="1486" type="qcurve" smooth="yes"/>
      <point x="731" y="1486" type="line"/>
      <point x="731" y="1387" type="line"/>
      <point x="712" y="1387" type="line" smooth="yes"/>
      <point x="475" y="1387"/>
      <point x="197" y="1013"/>
      <point x="197" y="654" type="qcurve" smooth="yes"/>
      <point x="197" y="604" type="line" smooth="yes"/>
      <point x="197" y="312"/>
      <point x="370" y="69"/>
      <point x="501" y="69" type="qcurve" smooth="yes"/>
      <point x="632" y="69"/>
      <point x="777" y="276"/>
      <point x="777" y="464" type="qcurve" smooth="yes"/>
      <point x="777" y="642"/>
      <point x="632" y="835"/>
      <point x="501" y="835" type="qcurve" smooth="yes"/>
      <point x="379" y="835"/>
      <point x="191" y="627"/>
      <point x="191" y="464" type="qcurve"/>
      <point x="145" y="464" type="line"/>
      <point x="145" y="671"/>
      <point x="358" y="934"/>
      <point x="522" y="934" type="qcurve" smooth="yes"/>
      <point x="688" y="934"/>
      <point x="887" y="674"/>
      <point x="887" y="464" type="qcurve" smooth="yes"/>
      <point x="887" y="244"/>
      <point x="671" y="-30"/>
      <point x="501" y="-30" type="qcurve" smooth="yes"/>
      <point x="332" y="-30"/>
      <point x="88" y="274"/>
    </contour>
  </outline>
</glyph>
<glyph name="seven" format="2">
  <advance width="1118"/>
  <unicode hex="0037"/>
  <outline>
    <contour>
      <point x="349" y="0" type="line"/>
      <point x="912" y="1363" type="line"/>
      <point x="78" y="1363" type="line"/>
      <point x="78" y="1456" type="line"/>
      <point x="1014" y="1456" type="line"/>
      <point x="1014" y="1352" type="line"/>
      <point x="475" y="0" type="line"/>
    </contour>
  </outline>
</glyph>
<glyph name="eight" format="2">
  <advance width="963"/>
  <unicode hex="0038"/>
  <outline>
    <contour>
      <point x="104" y="381" type="qcurve" smooth="yes"/>
      <point x="104" y="513"/>
      <point x="227" y="700"/>
      <point x="348" y="740" type="qcurve"/>
      <point x="348" y="744" type="line"/>
      <point x="247" y="787"/>
      <point x="147" y="971"/>
      <point x="147" y="1092" type="qcurve" smooth="yes"/>
      <point x="147" y="1270"/>
      <point x="339" y="1486"/>
      <point x="481" y="1486" type="qcurve" smooth="yes"/>
      <point x="623" y="1486"/>
      <point x="817" y="1269"/>
      <point x="817" y="1092" type="qcurve" smooth="yes"/>
      <point x="817" y="971"/>
      <point x="717" y="786"/>
      <point x="617" y="746" type="qcurve"/>
      <point x="617" y="742" type="line"/>
      <point x="737" y="702"/>
      <point x="859" y="513"/>
      <point x="859" y="381" type="qcurve" smooth="yes"/>
      <point x="859" y="185"/>
      <point x="642" y="-30"/>
      <point x="481" y="-30" type="qcurve" smooth="yes"/>
      <point x="321" y="-30"/>
      <point x="104" y="185"/>
    </contour>
    <contour>
      <point x="214" y="385" type="qcurve" smooth="yes"/>
      <point x="214" y="243"/>
      <point x="358" y="69"/>
      <point x="481" y="69" type="qcurve" smooth="yes"/>
      <point x="604" y="69"/>
      <point x="749" y="243"/>
      <point x="749" y="385" type="qcurve" smooth="yes"/>
      <point x="749" y="523"/>
      <point x="604" y="696"/>
      <point x="481" y="696" type="qcurve" smooth="yes"/>
      <point x="358" y="696"/>
      <point x="214" y="523"/>
    </contour>
    <contour>
      <point x="254" y="1088" type="qcurve" smooth="yes"/>
      <point x="254" y="961"/>
      <point x="377" y="794"/>
      <point x="481" y="794" type="qcurve" smooth="yes"/>
      <point x="585" y="794"/>
      <point x="709" y="961"/>
      <point x="709" y="1088" type="qcurve" smooth="yes"/>
      <point x="709" y="1219"/>
      <point x="585" y="1387"/>
      <point x="481" y="1387" type="qcurve" smooth="yes"/>
      <point x="377" y="1387"/>
      <point x="254" y="1219"/>
    </contour>
  </outline>
</glyph>
<glyph name="nine" format="2">
  <advance width="959"/>
  <unicode hex="0039"/>
  <outline>
    <contour>
      <point x="72" y="1002" type="qcurve" smooth="yes"/>
      <point x="72" y="1218"/>
      <point x="288" y="1486"/>
      <point x="457" y="1486" type="qcurve" smooth="yes"/>
      <point x="627" y="1486"/>
      <point x="871" y="1182"/>
      <point x="871" y="842" type="qcurve" smooth="yes"/>
      <point x="871" y="812" type="line" smooth="yes"/>
      <point x="871" y="421"/>
      <point x="541" y="-39"/>
      <point x="247" y="-39" type="qcurve" smooth="yes"/>
      <point x="228" y="-39" type="line"/>
      <point x="228" y="60" type="line"/>
      <point x="247" y="60" type="line" smooth="yes"/>
      <point x="483" y="60"/>
      <point x="762" y="435"/>
      <point x="762" y="802" type="qcurve" smooth="yes"/>
      <point x="762" y="852" type="line" smooth="yes"/>
      <point x="762" y="1144"/>
      <point x="589" y="1387"/>
      <point x="457" y="1387" type="qcurve" smooth="yes"/>
      <point x="326" y="1387"/>
      <point x="182" y="1185"/>
      <point x="182" y="1002" type="qcurve" smooth="yes"/>
      <point x="182" y="829"/>
      <point x="326" y="641"/>
      <point x="457" y="641" type="qcurve" smooth="yes"/>
      <point x="580" y="641"/>
      <point x="768" y="843"/>
      <point x="768" y="1002" type="qcurve"/>
      <point x="814" y="1002" type="line"/>
      <point x="814" y="799"/>
      <point x="600" y="542"/>
      <point x="437" y="542" type="qcurve" smooth="yes"/>
      <point x="271" y="542"/>
      <point x="72" y="796"/>
    </contour>
  </outline>
</glyph>
<glyph name="colon" format="2">
  <advance width="552"/>
  <unicode hex="003A"/>
  <outline>
    <contour>
      <point x="176" y="75" type="qcurve" smooth="yes"/>
      <point x="176" y="114"/>
      <point x="228" y="171"/>
      <point x="276" y="171" type="qcurve" smooth="yes"/>
      <point x="324" y="171"/>
      <point x="376" y="114"/>
      <point x="376" y="75" type="qcurve" smooth="yes"/>
      <point x="376" y="35"/>
      <point x="324" y="-22"/>
      <point x="276" y="-22" type="qcurve" smooth="yes"/>
      <point x="228" y="-22"/>
      <point x="176" y="35"/>
    </contour>
    <contour>
      <point x="176" y="971" type="qcurve" smooth="yes"/>
      <point x="176" y="1011"/>
      <point x="228" y="1068"/>
      <point x="276" y="1068" type="qcurve" smooth="yes"/>
      <point x="324" y="1068"/>
      <point x="376" y="1011"/>
      <point x="376" y="971" type="qcurve" smooth="yes"/>
      <point x="376" y="932"/>
      <point x="324" y="875"/>
      <point x="276" y="875" type="qcurve" smooth="yes"/>
      <point x="228" y="875"/>
      <point x="176" y="932"/>
    </contour>
  </outline>
</glyph>
<glyph name="semicolon" format="2">
  <advance width="579"/>
  <unicode hex="003B"/>
  <outline>
    <contour>
      <point x="141" y="-235" type="line"/>
      <point x="193" y="-176"/>
      <point x="258" y="-1"/>
      <point x="258" y="84" type="qcurve" smooth="yes"/>
      <point x="258" y="220" type="line"/>
      <point x="374" y="220" type="line"/>
      <point x="374" y="86" type="line" smooth="yes"/>
      <point x="374" y="-13"/>
      <point x="290" y="-211"/>
      <point x="204" y="-278" type="qcurve"/>
    </contour>
    <contour>
      <point x="204" y="971" type="qcurve" smooth="yes"/>
      <point x="204" y="1011"/>
      <point x="255" y="1068"/>
      <point x="304" y="1068" type="qcurve" smooth="yes"/>
      <point x="352" y="1068"/>
      <point x="403" y="1011"/>
      <point x="403" y="971" type="qcurve" smooth="yes"/>
      <point x="403" y="932"/>
      <point x="352" y="875"/>
      <point x="304" y="875" type="qcurve" smooth="yes"/>
      <point x="255" y="875"/>
      <point x="204" y="932"/>
    </contour>
  </outline>
</glyph>
<glyph name="less" format="2">
  <advance width="993"/>
  <unicode hex="003C"/>
  <outline>
    <contour>
      <point x="887" y="264" type="line"/>
      <point x="100" y="629" type="line"/>
      <point x="100" y="714" type="line"/>
      <point x="887" y="1081" type="line"/>
      <point x="887" y="968" type="line"/>
      <point x="231" y="670" type="line"/>
      <point x="887" y="381" type="line"/>
    </contour>
  </outline>
</glyph>
<glyph name="equal" format="2">
  <advance width="984"/>
  <unicode hex="003D"/>
  <outline>
    <contour>
      <point x="57" y="415" type="line"/>
      <point x="57" y="518" type="line"/>
      <point x="927" y="518" type="line"/>
      <point x="927" y="415" type="line"/>
    </contour>
    <contour>
      <point x="57" y="812" type="line"/>
      <point x="57" y="914" type="line"/>
      <point x="927" y="914" type="line"/>
      <point x="927" y="812" type="line"/>
    </contour>
  </outline>
</glyph>
<glyph name="greater" format="2">
  <advance width="993"/>
  <unicode hex="003E"/>
  <outline>
    <contour>
      <point x="106" y="265" type="line"/>
      <point x="106" y="379" type="line"/>
      <point x="761" y="676" type="line"/>
      <point x="106" y="965" type="line"/>
      <point x="106" y="1082" type="line"/>
      <point x="893" y="718" type="line"/>
      <point x="893" y="632" type="line"/>
    </contour>
  </outline>
</glyph>
<glyph name="question" format="2">
  <advance width="784"/>
  <unicode hex="003F"/>
  <outline>
    <contour>
      <point x="260" y="68" type="qcurve" smooth="yes"/>
      <point x="260" y="105"/>
      <point x="307" y="158"/>
      <point x="352" y="158" type="qcurve" smooth="yes"/>
      <point x="396" y="158"/>
      <point x="443" y="105"/>
      <point x="443" y="68" type="qcurve" smooth="yes"/>
      <point x="443" y="30"/>
      <point x="396" y="-22"/>
      <point x="352" y="-22" type="qcurve" smooth="yes"/>
      <point x="307" y="-22"/>
      <point x="260" y="30"/>
    </contour>
    <contour>
      <point x="60" y="1095" type="line"/>
      <point x="60" y="1115" type="line" smooth="yes"/>
      <point x="60" y="1282"/>
      <point x="230" y="1476"/>
      <point x="378" y="1476" type="qcurve" smooth="yes"/>
      <point x="524" y="1476"/>
      <point x="690" y="1283"/>
      <point x="690" y="1127" type="qcurve" smooth="yes"/>
      <point x="690" y="997"/>
      <point x="589" y="824"/>
      <point x="499" y="723" type="qcurve" smooth="yes"/>
      <point x="441" y="651"/>
      <point x="398" y="507"/>
      <point x="398" y="420" type="qcurve" smooth="yes"/>
      <point x="398" y="410" type="line"/>
      <point x="280" y="410" type="line"/>
      <point x="280" y="420" type="line" smooth="yes"/>
      <point x="280" y="548"/>
      <point x="362" y="726"/>
      <point x="419" y="799" type="qcurve" smooth="yes"/>
      <point x="476" y="871"/>
      <point x="581" y="1016"/>
      <point x="581" y="1127" type="qcurve" smooth="yes"/>
      <point x="581" y="1240"/>
      <point x="480" y="1375"/>
      <point x="378" y="1375" type="qcurve" smooth="yes"/>
      <point x="276" y="1375"/>
      <point x="169" y="1240"/>
      <point x="169" y="1115" type="qcurve" smooth="yes"/>
      <point x="169" y="1095" type="line"/>
    </contour>
  </outline>
</glyph>
<glyph name="at" format="2">
  <advance width="1960"/>
  <unicode hex="0040"/>
  <outline>
    <contour>
      <point x="590" y="400" type="qcurve" smooth="yes"/>
      <point x="590" y="695"/>
      <point x="872" y="1052"/>
      <point x="1032" y="1052" type="qcurve" smooth="yes"/>
      <point x="1116" y="1052"/>
      <point x="1259" y="982"/>
      <point x="1304" y="946" type="qcurve"/>
      <point x="1351" y="946" type="line"/>
      <point x="1237" y="360" type="line" smooth="yes"/>
      <point x="1211" y="226"/>
      <point x="1292" y="89"/>
      <point x="1408" y="89" type="qcurve" smooth="yes"/>
      <point x="1565" y="89"/>
      <point x="1742" y="399"/>
      <point x="1742" y="650" type="qcurve" smooth="yes"/>
      <point x="1742" y="943"/>
      <point x="1384" y="1388"/>
      <point x="1021" y="1388" type="qcurve" smooth="yes"/>
      <point x="661" y="1388"/>
      <point x="222" y="844"/>
      <point x="222" y="460" type="qcurve" smooth="yes"/>
      <point x="222" y="72"/>
      <point x="603" y="-348"/>
      <point x="925" y="-348" type="qcurve" smooth="yes"/>
      <point x="1059" y="-348"/>
      <point x="1246" y="-294"/>
      <point x="1309" y="-258" type="qcurve"/>
      <point x="1309" y="-356" type="line"/>
      <point x="1242" y="-400"/>
      <point x="1059" y="-446"/>
      <point x="925" y="-446" type="qcurve" smooth="yes"/>
      <point x="568" y="-446"/>
      <point x="114" y="40"/>
      <point x="114" y="460" type="qcurve" smooth="yes"/>
      <point x="114" y="880"/>
      <point x="626" y="1486"/>
      <point x="1021" y="1486" type="qcurve" smooth="yes"/>
      <point x="1417" y="1486"/>
      <point x="1846" y="1000"/>
      <point x="1846" y="650" type="qcurve" smooth="yes"/>
      <point x="1846" y="360"/>
      <point x="1616" y="0"/>
      <point x="1427" y="0" type="qcurve" smooth="yes"/>
      <point x="1306" y="0"/>
      <point x="1162" y="102"/>
      <point x="1131" y="185" type="qcurve"/>
      <point x="1092" y="102"/>
      <point x="961" y="0"/>
      <point x="860" y="0" type="qcurve" smooth="yes"/>
      <point x="735" y="0"/>
      <point x="590" y="220"/>
    </contour>
    <contour>
      <point x="700" y="400" type="qcurve" smooth="yes"/>
      <point x="700" y="245"/>
      <point x="813" y="98"/>
      <point x="896" y="98" type="qcurve" smooth="yes"/>
      <point x="985" y="98"/>
      <point x="1102" y="235"/>
      <point x="1134" y="390" type="qcurve" smooth="yes"/>
      <point x="1233" y="889" type="line"/>
      <point x="1197" y="916"/>
      <point x="1102" y="961"/>
      <point x="1050" y="961" type="qcurve" smooth="yes"/>
      <point x="893" y="961"/>
      <point x="700" y="630"/>
    </contour>
  </outline>
</glyph>
<glyph name="A" format="2">
  <advance width="1196"/>
  <unicode hex="0041"/>
  <outline>
    <contour>
      <point x="16" y="0" type="line"/>
      <point x="545" y="1466" type="line"/>
      <point x="672" y="1466" type="line"/>
      <point x="1196" y="0" type="line"/>
      <point x="1078" y="0" type="line"/>
      <point x="678" y="1142" type="line" smooth="yes"/>
      <point x="667" y="1174"/>
      <point x="623" y="1314"/>
      <point x="617" y="1347" type="qcurve"/>
      <point x="606" y="1347" type="line"/>
      <point x="598" y="1314"/>
      <point x="545" y="1173"/>
      <point x="534" y="1142" type="qcurve" smooth="yes"/>
      <point x="136" y="0" type="line"/>
    </contour>
    <contour>
      <point x="227" y="413" type="line"/>
      <point x="258" y="512" type="line"/>
      <point x="958" y="512" type="line"/>
      <point x="991" y="413" type="line"/>
    </contour>
  </outline>
</glyph>
<glyph name="B" format="2">
  <advance width="1065"/>
  <unicode hex="0042"/>
  <outline>
    <contour>
      <point x="170" y="0" type="line"/>
      <point x="170" y="1456" type="line"/>
      <point x="550" y="1456" type="line" smooth="yes"/>
      <point x="727" y="1456"/>
      <point x="927" y="1275"/>
      <point x="927" y="1083" type="qcurve" smooth="yes"/>
      <point x="927" y="958"/>
      <point x="808" y="796"/>
      <point x="723" y="767" type="qcurve"/>
      <point x="723" y="763" type="line"/>
      <point x="828" y="733"/>
      <point x="965" y="551"/>
      <point x="965" y="405" type="qcurve" smooth="yes"/>
      <point x="965" y="212"/>
      <point x="756" y="0"/>
      <point x="580" y="0" type="qcurve" smooth="yes"/>
    </contour>
    <contour>
      <point x="279" y="99" type="line"/>
      <point x="580" y="99" type="line" smooth="yes"/>
      <point x="722" y="99"/>
      <point x="854" y="265"/>
      <point x="854" y="405" type="qcurve" smooth="yes"/>
      <point x="854" y="544"/>
      <point x="722" y="709"/>
      <point x="580" y="709" type="qcurve" smooth="yes"/>
      <point x="279" y="709" type="line"/>
    </contour>
    <contour>
      <point x="279" y="807" type="line"/>
      <point x="550" y="807" type="line" smooth="yes"/>
      <point x="691" y="807"/>
      <point x="816" y="953"/>
      <point x="816" y="1083" type="qcurve" smooth="yes"/>
      <point x="816" y="1215"/>
      <point x="691" y="1357"/>
      <point x="550" y="1357" type="qcurve" smooth="yes"/>
      <point x="279" y="1357" type="line"/>
    </contour>
  </outline>
</glyph>
<glyph name="C" format="2">
  <advance width="1150"/>
  <unicode hex="0043"/>
  <outline>
    <contour>
      <point x="115" y="682" type="qcurve" smooth="yes"/>
      <point x="115" y="774" type="line" smooth="yes"/>
      <point x="115" y="1110"/>
      <point x="400" y="1486"/>
      <point x="615" y="1486" type="qcurve" smooth="yes"/>
      <point x="826" y="1486"/>
      <point x="1056" y="1212"/>
      <point x="1066" y="1027" type="qcurve" smooth="yes"/>
      <point x="1066" y="1017" type="line"/>
      <point x="955" y="1017" type="line"/>
      <point x="954" y="1027" type="line" smooth="yes"/>
      <point x="946" y="1156"/>
      <point x="783" y="1384"/>
      <point x="615" y="1384" type="qcurve" smooth="yes"/>
      <point x="445" y="1384"/>
      <point x="227" y="1053"/>
      <point x="227" y="774" type="qcurve" smooth="yes"/>
      <point x="227" y="682" type="line" smooth="yes"/>
      <point x="227" y="396"/>
      <point x="445" y="72"/>
      <point x="615" y="72" type="qcurve" smooth="yes"/>
      <point x="786" y="72"/>
      <point x="954" y="290"/>
      <point x="955" y="429" type="qcurve" smooth="yes"/>
      <point x="955" y="439" type="line"/>
      <point x="1066" y="439" type="line"/>
      <point x="1066" y="429" type="line" smooth="yes"/>
      <point x="1061" y="228"/>
      <point x="826" y="-30"/>
      <point x="615" y="-30" type="qcurve" smooth="yes"/>
      <point x="400" y="-30"/>
      <point x="115" y="346"/>
    </contour>
  </outline>
</glyph>
<glyph name="D" format="2">
  <advance width="1167"/>
  <unicode hex="0044"/>
  <outline>
    <contour>
      <point x="170" y="0" type="line"/>
      <point x="170" y="1456" type="line"/>
      <point x="502" y="1456" type="line" smooth="yes"/>
      <point x="744" y="1456"/>
      <point x="1052" y="1088"/>
      <point x="1052" y="774" type="qcurve" smooth="yes"/>
      <point x="1052" y="682" type="line" smooth="yes"/>
      <point x="1052" y="368"/>
      <point x="744" y="0"/>
      <point x="502" y="0" type="qcurve" smooth="yes"/>
    </contour>
    <contour>
      <point x="281" y="99" type="line"/>
      <point x="502" y="99" type="line" smooth="yes"/>
      <point x="702" y="99"/>
      <point x="940" y="409"/>
      <point x="940" y="682" type="qcurve" smooth="yes"/>
      <point x="940" y="774" type="line" smooth="yes"/>
      <point x="940" y="1047"/>
      <point x="702" y="1357"/>
      <point x="502" y="1357" type="qcurve" smooth="yes"/>
      <point x="281" y="1357" type="line"/>
    </contour>
  </outline>
</glyph>
<glyph name="E" format="2">
  <advance width="981"/>
  <unicode hex="0045"/>
  <outline>
    <contour>
      <point x="170" y="0" type="line"/>
      <point x="170" y="1456" type="line"/>
      <point x="903" y="1456" type="line"/>
      <point x="903" y="1357" type="line"/>
      <point x="281" y="1357" type="line"/>
      <point x="281" y="800" type="line"/>
      <point x="811" y="800" type="line"/>
      <point x="811" y="702" type="line"/>
      <point x="281" y="702" type="line"/>
      <point x="281" y="99" type="line"/>
      <point x="913" y="99" type="line"/>
      <point x="913" y="0" type="line"/>
    </contour>
  </outline>
</glyph>
<glyph name="F" format="2">
  <advance width="949"/>
  <unicode hex="0046"/>
  <outline>
    <contour>
      <point x="170" y="0" type="line"/>
      <point x="170" y="1456" type="line"/>
      <point x="891" y="1456" type="line"/>
      <point x="891" y="1357" type="line"/>
      <point x="281" y="1357" type="line"/>
      <point x="281" y="771" type="line"/>
      <point x="796" y="771" type="line"/>
      <point x="796" y="673" type="line"/>
      <point x="281" y="673" type="line"/>
      <point x="281" y="0" type="line"/>
    </contour>
  </outline>
</glyph>
<glyph name="G" format="2">
  <advance width="1196"/>
  <unicode hex="0047"/>
  <outline>
    <contour>
      <point x="115" y="682" type="qcurve" smooth="yes"/>
      <point x="115" y="774" type="line" smooth="yes"/>
      <point x="115" y="1122"/>
      <point x="400" y="1486"/>
      <point x="610" y="1486" type="qcurve" smooth="yes"/>
      <point x="824" y="1486"/>
      <point x="1062" y="1231"/>
      <point x="1067" y="1062" type="qcurve" smooth="yes"/>
      <point x="1067" y="1052" type="line"/>
      <point x="955" y="1052" type="line"/>
      <point x="955" y="1062" type="line" smooth="yes"/>
      <point x="947" y="1184"/>
      <point x="781" y="1384"/>
      <point x="610" y="1384" type="qcurve" smooth="yes"/>
      <point x="444" y="1384"/>
      <point x="227" y="1071"/>
      <point x="227" y="774" type="qcurve" smooth="yes"/>
      <point x="227" y="682" type="line" smooth="yes"/>
      <point x="227" y="369"/>
      <point x="470" y="72"/>
      <point x="645" y="72" type="qcurve" smooth="yes"/>
      <point x="753" y="72"/>
      <point x="909" y="131"/>
      <point x="960" y="171" type="qcurve"/>
      <point x="960" y="597" type="line"/>
      <point x="624" y="597" type="line"/>
      <point x="624" y="696" type="line"/>
      <point x="1066" y="696" type="line"/>
      <point x="1066" y="123" type="line"/>
      <point x="1008" y="70"/>
      <point x="796" y="-30"/>
      <point x="644" y="-30" type="qcurve" smooth="yes"/>
      <point x="402" y="-30"/>
      <point x="115" y="334"/>
    </contour>
  </outline>
</glyph>
<glyph name="H" format="2">
  <advance width="1252"/>
  <unicode hex="0048"/>
  <outline>
    <contour>
      <point x="170" y="0" type="line"/>
      <point x="170" y="1456" type="line"/>
      <point x="281" y="1456" type="line"/>
      <point x="281" y="800" type="line"/>
      <point x="972" y="800" type="line"/>
      <point x="972" y="1456" type="line"/>
      <point x="1082" y="1456" type="line"/>
      <point x="1082" y="0" type="line"/>
      <point x="972" y="0" type="line"/>
      <point x="972" y="702" type="line"/>
      <point x="281" y="702" type="line"/>
      <point x="281" y="0" type="line"/>
    </contour>
  </outline>
</glyph>
<glyph name="J" format="2">
  <advance width="901"/>
  <unicode hex="004A"/>
  <outline>
    <contour>
      <point x="25" y="351" type="qcurve" smooth="yes"/>
      <point x="25" y="361" type="line"/>
      <point x="136" y="361" type="line"/>
      <point x="136" y="351" type="line" smooth="yes"/>
      <point x="136" y="217"/>
      <point x="269" y="72"/>
      <point x="386" y="72" type="qcurve" smooth="yes"/>
      <point x="503" y="72"/>
      <point x="635" y="255"/>
      <point x="635" y="425" type="qcurve" smooth="yes"/>
      <point x="635" y="1456" type="line"/>
      <point x="746" y="1456" type="line"/>
      <point x="746" y="426" type="line" smooth="yes"/>
      <point x="746" y="215"/>
      <point x="549" y="-30"/>
      <point x="386" y="-30" type="qcurve" smooth="yes"/>
      <point x="223" y="-30"/>
      <point x="25" y="200"/>
    </contour>
  </outline>
</glyph>
<glyph name="K" format="2">
  <advance width="1143"/>
  <unicode hex="004B"/>
  <outline>
    <contour>
      <point x="170" y="0" type="line"/>
      <point x="170" y="1456" type="line"/>
      <point x="283" y="1456" type="line"/>
      <point x="283" y="697" type="line"/>
      <point x="941" y="1456" type="line"/>
      <point x="1081" y="1456" type="line"/>
      <point x="283" y="543" type="line"/>
      <point x="283" y="0" type="line"/>
    </contour>
    <contour>
      <point x="1026" y="0" type="line"/>
      <point x="440" y="808" type="line"/>
      <point x="511" y="889" type="line"/>
      <point x="1163" y="0" type="line"/>
    </contour>
  </outline>
</glyph>
<glyph name="M" format="2">
  <advance width="1664"/>
  <unicode hex="004D"/>
  <outline>
    <contour>
      <point x="170" y="0" type="line"/>
      <point x="170" y="1456" type="line"/>
      <point x="331" y="1456" type="line"/>
      <point x="768" y="280" type="line" smooth="yes"/>
      <point x="780" y="248"/>
      <point x="800" y="182"/>
      <point x="806" y="149" type="qcurve"/>
      <point x="816" y="149" type="line"/>
      <point x="824" y="182"/>
      <point x="844" y="251"/>
      <point x="855" y="283" type="qcurve" smooth="yes"/>
      <point x="1296" y="1456" type="line"/>
      <point x="1494" y="1456" type="line"/>
      <point x="1494" y="0" type="line"/>
      <point x="1378" y="0" type="line"/>
      <point x="1378" y="1208" type="line" smooth="yes"/>
      <point x="1378" y="1240"/>
      <point x="1385" y="1326"/>
      <point x="1389" y="1357" type="qcurve"/>
      <point x="1376" y="1357" type="line"/>
      <point x="1368" y="1326"/>
      <point x="1339" y="1242"/>
      <point x="1327" y="1210" type="qcurve" smooth="yes"/>
      <point x="872" y="0" type="line"/>
      <point x="755" y="0" type="line"/>
      <point x="325" y="1154" type="line" smooth="yes"/>
      <point x="313" y="1186"/>
      <point x="300" y="1254"/>
      <point x="295" y="1284" type="qcurve"/>
      <point x="283" y="1284" type="line"/>
      <point x="285" y="1254"/>
      <point x="289" y="1184"/>
      <point x="289" y="1152" type="qcurve" smooth="yes"/>
      <point x="289" y="0" type="line"/>
    </contour>
  </outline>
</glyph>
<glyph name="N" format="2">
  <advance width="1339"/>
  <unicode hex="004E"/>
  <outline>
    <contour>
      <point x="170" y="0" type="line"/>
      <point x="170" y="1456" type="line"/>
      <point x="297" y="1456" type="line"/>
      <point x="981" y="296" type="line" smooth="yes"/>
      <point x="1000" y="261"/>
      <point x="1037" y="196"/>
      <point x="1051" y="168" type="qcurve"/>
      <point x="1060" y="168" type="line"/>
      <point x="1058" y="200"/>
      <point x="1055" y="285"/>
      <point x="1055" y="317" type="qcurve" smooth="yes"/>
      <point x="1055" y="1456" type="line"/>
      <point x="1169" y="1456" type="line"/>
      <point x="1169" y="0" type="line"/>
      <point x="1033" y="0" type="line"/>
      <point x="372" y="1131" type="line" smooth="yes"/>
      <point x="353" y="1166"/>
      <point x="302" y="1255"/>
      <point x="289" y="1283" type="qcurve"/>
      <point x="279" y="1283" type="line"/>
      <point x="282" y="1251"/>
      <point x="285" y="1129"/>
      <point x="285" y="1097" type="qcurve" smooth="yes"/>
      <point x="285" y="0" type="line"/>
    </contour>
  </outline>
</glyph>
<glyph name="O" format="2">
  <advance width="1244"/>
  <unicode hex="004F"/>
  <outline>
    <contour>
      <point x="115" y="682" type="qcurve" smooth="yes"/>
      <point x="115" y="774" type="line" smooth="yes"/>
      <point x="115" y="1110"/>
      <point x="397" y="1486"/>
      <point x="622" y="1486" type="qcurve" smooth="yes"/>
      <point x="847" y="1486"/>
      <point x="1129" y="1110"/>
      <point x="1129" y="774" type="qcurve" smooth="yes"/>
      <point x="1129" y="682" type="line" smooth="yes"/>
      <point x="1129" y="346"/>
      <point x="847" y="-30"/>
      <point x="622" y="-30" type="qcurve" smooth="yes"/>
      <point x="397" y="-30"/>
      <point x="115" y="346"/>
    </contour>
    <contour>
      <point x="227" y="682" type="line" smooth="yes"/>
      <point x="227" y="393"/>
      <point x="443" y="72"/>
      <point x="622" y="72" type="qcurve" smooth="yes"/>
      <point x="801" y="72"/>
      <point x="1017" y="393"/>
      <point x="1017" y="682" type="qcurve" smooth="yes"/>
      <point x="1017" y="774" type="line" smooth="yes"/>
      <point x="1017" y="1063"/>
      <point x="801" y="1384"/>
      <point x="622" y="1384" type="qcurve" smooth="yes"/>
      <point x="443" y="1384"/>
      <point x="227" y="1063"/>
      <point x="227" y="774" type="qcurve" smooth="yes"/>
    </contour>
  </outline>
</glyph>
<glyph name="P" format="2">
  <advance width="1000"/>
  <unicode hex="0050"/>
  <outline>
    <contour>
      <point x="170" y="0" type="line"/>
      <point x="170" y="1456" type="line"/>
      <point x="549" y="1456" type="line" smooth="yes"/>
      <point x="749" y="1456"/>
      <point x="950" y="1218"/>
      <point x="950" y="1028" type="qcurve" smooth="yes"/>
      <point x="950" y="837"/>
      <point x="749" y="597"/>
      <point x="549" y="597" type="qcurve" smooth="yes"/>
      <point x="281" y="597" type="line"/>
      <point x="281" y="0" type="line"/>
    </contour>
    <contour>
      <point x="281" y="696" type="line"/>
      <point x="549" y="696" type="line" smooth="yes"/>
      <point x="710" y="696"/>
      <point x="838" y="887"/>
      <point x="838" y="1028" type="qcurve" smooth="yes"/>
      <point x="838" y="1168"/>
      <point x="710" y="1357"/>
      <point x="549" y="1357" type="qcurve" smooth="yes"/>
      <point x="281" y="1357" type="line"/>
    </contour>
  </outline>
</glyph>
<glyph name="R" format="2">
  <advance width="1039"/>
  <unicode hex="0052"/>
  <outline>
    <contour>
      <point x="170" y="0" type="line"/>
      <point x="170" y="1456" type="line"/>
      <point x="542" y="1456" type="line" smooth="yes"/>
      <point x="737" y="1456"/>
      <point x="934" y="1228"/>
      <point x="934" y="1042" type="qcurve" smooth="yes"/>
      <point x="934" y="855"/>
      <point x="737" y="625"/>
      <point x="542" y="625" type="qcurve" smooth="yes"/>
      <point x="281" y="625" type="line"/>
      <point x="281" y="0" type="line"/>
    </contour>
    <contour>
      <point x="281" y="723" type="line"/>
      <point x="542" y="723" type="line" smooth="yes"/>
      <point x="700" y="723"/>
      <point x="823" y="907"/>
      <point x="823" y="1042" type="qcurve" smooth="yes"/>
      <point x="823" y="1177"/>
      <point x="700" y="1358"/>
      <point x="542" y="1358" type="qcurve" smooth="yes"/>
      <point x="281" y="1358" type="line"/>
    </contour>
    <contour>
      <point x="876" y="0" type="line"/>
      <point x="526" y="679" type="line"/>
      <point x="648" y="671" type="line"/>
      <point x="999" y="0" type="line"/>
    </contour>
  </outline>
</glyph>
<glyph name="S" format="2">
  <advance width="1089"/>
  <unicode hex="0053"/>
  <outline>
    <contour>
      <point x="90" y="366" type="qcurve" smooth="yes"/>
      <point x="90" y="382" type="line"/>
      <point x="201" y="382" type="line"/>
      <point x="201" y="361" type="line" smooth="yes"/>
      <point x="201" y="209"/>
      <point x="404" y="72"/>
      <point x="554" y="72" type="qcurve" smooth="yes"/>
      <point x="705" y="72"/>
      <point x="899" y="231"/>
      <point x="899" y="360" type="qcurve" smooth="yes"/>
      <point x="899" y="477"/>
      <point x="729" y="629"/>
      <point x="536" y="702" type="qcurve" smooth="yes"/>
      <point x="344" y="773"/>
      <point x="119" y="933"/>
      <point x="119" y="1109" type="qcurve" smooth="yes"/>
      <point x="119" y="1302"/>
      <point x="374" y="1486"/>
      <point x="545" y="1486" type="qcurve" smooth="yes"/>
      <point x="729" y="1486"/>
      <point x="977" y="1278"/>
      <point x="977" y="1095" type="qcurve" smooth="yes"/>
      <point x="977" y="1079" type="line"/>
      <point x="867" y="1079" type="line"/>
      <point x="867" y="1118" type="line" smooth="yes"/>
      <point x="867" y="1230"/>
      <point x="689" y="1384"/>
      <point x="545" y="1384" type="qcurve" smooth="yes"/>
      <point x="409" y="1384"/>
      <point x="229" y="1249"/>
      <point x="229" y="1120" type="qcurve" smooth="yes"/>
      <point x="229" y="993"/>
      <point x="400" y="868"/>
      <point x="597" y="795" type="qcurve" smooth="yes"/>
      <point x="793" y="724"/>
      <point x="1010" y="527"/>
      <point x="1010" y="376" type="qcurve" smooth="yes"/>
      <point x="1010" y="186"/>
      <point x="766" y="-30"/>
      <point x="554" y="-30" type="qcurve" smooth="yes"/>
      <point x="346" y="-30"/>
      <point x="90" y="171"/>
    </contour>
  </outline>
</glyph>
<glyph name="T" format="2">
  <advance width="1052"/>
  <unicode hex="0054"/>
  <outline>
    <contour>
      <point x="24" y="1357" type="line"/>
      <point x="24" y="1456" type="line"/>
      <point x="1028" y="1456" type="line"/>
      <point x="1028" y="1357" type="line"/>
      <point x="581" y="1357" type="line"/>
      <point x="581" y="0" type="line"/>
      <point x="470" y="0" type="line"/>
      <point x="470" y="1357" type="line"/>
    </contour>
  </outline>
</glyph>
<glyph name="U" format="2">
  <advance width="1175"/>
  <unicode hex="0055"/>
  <outline>
    <contour>
      <point x="155" y="470" type="qcurve" smooth="yes"/>
      <point x="155" y="1456" type="line"/>
      <point x="272" y="1456" type="line"/>
      <point x="272" y="472" type="line" smooth="yes"/>
      <point x="272" y="264"/>
      <point x="443" y="73"/>
      <point x="583" y="73" type="qcurve" smooth="yes"/>
      <point x="738" y="73"/>
      <point x="897" y="285"/>
      <point x="897" y="472" type="qcurve" smooth="yes"/>
      <point x="897" y="1456" type="line"/>
      <point x="1020" y="1456" type="line"/>
      <point x="1020" y="470" type="line" smooth="yes"/>
      <point x="1020" y="215"/>
      <point x="776" y="-29"/>
      <point x="594" y="-29" type="qcurve" smooth="yes"/>
      <point x="400" y="-29"/>
      <point x="155" y="220"/>
    </contour>
  </outline>
</glyph>
<glyph name="V" format="2">
  <advance width="1168"/>
  <unicode hex="0056"/>
  <outline>
    <contour>
      <point x="12" y="1456" type="line"/>
      <point x="128" y="1456" type="line"/>
      <point x="496" y="374" type="line" smooth="yes"/>
      <point x="528" y="285"/>
      <point x="559" y="164"/>
      <point x="565" y="130" type="qcurve"/>
      <point x="573" y="130" type="line"/>
      <point x="579" y="164"/>
      <point x="609" y="261"/>
      <point x="650" y="374" type="qcurve" smooth="yes"/>
      <point x="1016" y="1456" type="line"/>
      <point x="1137" y="1456" type="line"/>
      <point x="631" y="-10" type="line"/>
      <point x="516" y="-10" type="line"/>
    </contour>
  </outline>
</glyph>
<glyph name="W" format="2">
  <advance width="1728"/>
  <unicode hex="0057"/>
  <outline>
    <contour>
      <point x="411" y="-10" type="line"/>
      <point x="50" y="1456" type="line"/>
      <point x="164" y="1456" type="line"/>
      <point x="429" y="340" type="line" smooth="yes"/>
      <point x="442" y="283"/>
      <point x="463" y="175"/>
      <point x="469" y="141" type="qcurve"/>
      <point x="476" y="141" type="line"/>
      <point x="478" y="175"/>
      <point x="492" y="246"/>
      <point x="501" y="281" type="qcurve" smooth="yes"/>
      <point x="795" y="1456" type="line"/>
      <point x="910" y="1456" type="line"/>
      <point x="1206" y="340" type="line" smooth="yes"/>
      <point x="1232" y="248"/>
      <point x="1243" y="165"/>
      <point x="1248" y="131" type="qcurve"/>
      <point x="1256" y="131" type="line"/>
      <point x="1259" y="165"/>
      <point x="1271" y="248"/>
      <point x="1279" y="283" type="qcurve" smooth="yes"/>
      <point x="1539" y="1456" type="line"/>
      <point x="1662" y="1456" type="line"/>
      <point x="1311" y="-10" type="line"/>
      <point x="1195" y="-10" type="line"/>
      <point x="874" y="1206" type="line" smooth="yes"/>
      <point x="865" y="1241"/>
      <point x="858" y="1286"/>
      <point x="858" y="1309" type="qcurve"/>
      <point x="853" y="1309" type="line"/>
      <point x="852" y="1288"/>
      <point x="848" y="1241"/>
      <point x="839" y="1206" type="qcurve" smooth="yes"/>
      <point x="531" y="-10" type="line"/>
    </contour>
  </outline>
</glyph>
<glyph name="X" format="2">
  <advance width="1168"/>
  <unicode hex="0058"/>
  <outline>
    <contour>
      <point x="62" y="0" type="line"/>
      <point x="548" y="787" type="line"/>
      <point x="557" y="787" type="line"/>
      <point x="948" y="1456" type="line"/>
      <point x="1083" y="1456" type="line"/>
      <point x="616" y="683" type="line"/>
      <point x="607" y="683" type="line"/>
      <point x="197" y="0" type="line"/>
    </contour>
    <contour>
      <point x="90" y="1456" type="line"/>
      <point x="221" y="1456" type="line"/>
      <point x="616" y="784" type="line"/>
      <point x="620" y="784" type="line"/>
      <point x="1103" y="0" type="line"/>
      <point x="970" y="0" type="line"/>
      <point x="555" y="691" type="line"/>
      <point x="551" y="691" type="line"/>
    </contour>
  </outline>
</glyph>
<glyph name="Y" format="2">
  <advance width="1106"/>
  <unicode hex="0059"/>
  <outline>
    <contour>
      <point x="486" y="0" type="line"/>
      <point x="486" y="513" type="line"/>
      <point x="14" y="1456" type="line"/>
      <point x="139" y="1456" type="line"/>
      <point x="480" y="752" type="line" smooth="yes"/>
      <point x="494" y="722"/>
      <point x="521" y="662"/>
      <point x="533" y="631" type="qcurve"/>
      <point x="539" y="631" type="line"/>
      <point x="550" y="662"/>
      <point x="587" y="734"/>
      <point x="602" y="763" type="qcurve" smooth="yes"/>
      <point x="965" y="1456" type="line"/>
      <point x="1091" y="1456" type="line"/>
      <point x="597" y="515" type="line"/>
      <point x="597" y="0" type="line"/>
    </contour>
  </outline>
</glyph>
<glyph name="Z" format="2">
  <advance width="1148"/>
  <unicode hex="005A"/>
  <outline>
    <contour>
      <point x="65" y="0" type="line"/>
      <point x="65" y="83" type="line"/>
      <point x="913" y="1357" type="line"/>
      <point x="77" y="1357" type="line"/>
      <point x="77" y="1456" type="line"/>
      <point x="1051" y="1456" type="line"/>
      <point x="1051" y="1372" type="line"/>
      <point x="202" y="99" type="line"/>
      <point x="1083" y="99" type="line"/>
      <point x="1083" y="0" type="line"/>
    </contour>
  </outline>
</glyph>
<glyph name="backslash" format="2">
  <advance width="483"/>
  <unicode hex="005C"/>
  <outline>
    <contour>
      <point x="-73" y="1456" type="line"/>
      <point x="-23" y="1456" type="line"/>
      <point x="556" y="-125" type="line"/>
      <point x="506" y="-125" type="line"/>
    </contour>
  </outline>
</glyph>
<glyph name="bracketright" format="2">
  <advance width="576"/>
  <unicode hex="005D"/>
  <outline>
    <contour>
      <point x="432" y="-310" type="line"/>
      <point x="51" y="-310" type="line"/>
      <point x="51" y="-210" type="line"/>
      <point x="323" y="-210" type="line"/>
      <point x="323" y="1356" type="line"/>
      <point x="51" y="1356" type="line"/>
      <point x="51" y="1456" type="line"/>
      <point x="432" y="1456" type="line"/>
    </contour>
  </outline>
</glyph>
<glyph name="asciicircum" format="2">
  <advance width="1050"/>
  <unicode hex="005E"/>
  <outline>
    <contour>
      <point x="29" y="720" type="line"/>
      <point x="466" y="1456" type="line"/>
      <point x="588" y="1456" type="line"/>
      <point x="1026" y="720" type="line"/>
      <point x="902" y="720" type="line"/>
      <point x="525" y="1286" type="line"/>
      <point x="150" y="720" type="line"/>
    </contour>
  </outline>
</glyph>
<glyph name="underscore" format="2">
  <advance width="993"/>
  <unicode hex="005F"/>
  <outline>
    <contour>
      <point x="0" y="-351" type="line"/>
      <point x="0" y="-244" type="line"/>
      <point x="993" y="-244" type="line"/>
      <point x="993" y="-351" type="line"/>
    </contour>
  </outline>
</glyph>
<glyph name="grave" format="2">
  <advance width="1024"/>
  <unicode hex="0060"/>
  <outline>
    <contour>
      <point x="578" y="1218" type="line"/>
      <point x="327" y="1527" type="line"/>
      <point x="432" y="1598" type="line"/>
      <point x="638" y="1264" type="line"/>
    </contour>
  </outline>
</glyph>
<glyph name="a" format="2">
  <advance width="914"/>
  <unicode hex="0061"/>
  <outline>
    <contour>
      <point x="90" y="259" type="qcurve" smooth="yes"/>
      <point x="90" y="392"/>
      <point x="290" y="545"/>
      <point x="444" y="545" type="qcurve" smooth="yes"/>
      <point x="665" y="545" type="line"/>
      <point x="665" y="616" type="line" smooth="yes"/>
      <point x="665" y="721"/>
      <point x="575" y="849"/>
      <point x="464" y="849" type="qcurve" smooth="yes"/>
      <point x="352" y="849"/>
      <point x="257" y="739"/>
      <point x="257" y="666" type="qcurve" smooth="yes"/>
      <point x="257" y="661" type="line"/>
      <point x="151" y="661" type="line"/>
      <point x="151" y="666" type="line" smooth="yes"/>
      <point x="151" y="780"/>
      <point x="317" y="944"/>
      <point x="468" y="944" type="qcurve" smooth="yes"/>
      <point x="614" y="944"/>
      <point x="774" y="779"/>
      <point x="774" y="616" type="qcurve" smooth="yes"/>
      <point x="774" y="240" type="line" smooth="yes"/>
      <point x="774" y="175"/>
      <point x="793" y="60"/>
      <point x="810" y="16" type="qcurve"/>
      <point x="810" y="0" type="line"/>
      <point x="708" y="0" type="line"/>
      <point x="693" y="25"/>
      <point x="672" y="103"/>
      <point x="668" y="143" type="qcurve"/>
      <point x="636" y="84"/>
      <point x="486" y="-20"/>
      <point x="375" y="-20" type="qcurve" smooth="yes"/>
      <point x="249" y="-20"/>
      <point x="90" y="121"/>
    </contour>
    <contour>
      <point x="198" y="264" type="qcurve" smooth="yes"/>
      <point x="198" y="173"/>
      <point x="295" y="74"/>
      <point x="396" y="74" type="qcurve" smooth="yes"/>
      <point x="499" y="74"/>
      <point x="665" y="234"/>
      <point x="665" y="326" type="qcurve"/>
      <point x="665" y="458" type="line"/>
      <point x="464" y="458" type="line" smooth="yes"/>
      <point x="333" y="458"/>
      <point x="198" y="351"/>
    </contour>
  </outline>
</glyph>
<glyph name="b" format="2">
  <advance width="975"/>
  <unicode hex="0062"/>
  <outline>
    <contour>
      <point x="148" y="0" type="line"/>
      <point x="148" y="1456" type="line"/>
      <point x="256" y="1456" type="line"/>
      <point x="256" y="800" type="line"/>
      <point x="303" y="874"/>
      <point x="438" y="934"/>
      <point x="533" y="934" type="qcurve" smooth="yes"/>
      <point x="700" y="934"/>
      <point x="890" y="673"/>
      <point x="890" y="473" type="qcurve" smooth="yes"/>
      <point x="890" y="441" type="line" smooth="yes"/>
      <point x="890" y="241"/>
      <point x="700" y="-20"/>
      <point x="533" y="-20" type="qcurve" smooth="yes"/>
      <point x="438" y="-20"/>
      <point x="294" y="59"/>
      <point x="253" y="134" type="qcurve"/>
      <point x="249" y="134" type="line"/>
      <point x="246" y="0" type="line"/>
    </contour>
    <contour>
      <point x="256" y="245" type="line"/>
      <point x="285" y="179"/>
      <point x="416" y="76"/>
      <point x="509" y="76" type="qcurve" smooth="yes"/>
      <point x="649" y="76"/>
      <point x="780" y="286"/>
      <point x="780" y="441" type="qcurve" smooth="yes"/>
      <point x="780" y="473" type="line" smooth="yes"/>
      <point x="780" y="627"/>
      <point x="649" y="838"/>
      <point x="509" y="838" type="qcurve" smooth="yes"/>
      <point x="416" y="838"/>
      <point x="294" y="753"/>
      <point x="256" y="687" type="qcurve"/>
    </contour>
  </outline>
</glyph>
<glyph name="c" format="2">
  <advance width="875"/>
  <unicode hex="0063"/>
  <outline>
    <contour>
      <point x="85" y="441" type="qcurve" smooth="yes"/>
      <point x="85" y="473" type="line" smooth="yes"/>
      <point x="85" y="681"/>
      <point x="291" y="944"/>
      <point x="472" y="944" type="qcurve" smooth="yes"/>
      <point x="638" y="944"/>
      <point x="806" y="736"/>
      <point x="806" y="604" type="qcurve" smooth="yes"/>
      <point x="806" y="599" type="line"/>
      <point x="702" y="599" type="line"/>
      <point x="702" y="604" type="line" smooth="yes"/>
      <point x="702" y="700"/>
      <point x="592" y="848"/>
      <point x="472" y="848" type="qcurve" smooth="yes"/>
      <point x="331" y="848"/>
      <point x="195" y="630"/>
      <point x="195" y="473" type="qcurve" smooth="yes"/>
      <point x="195" y="441" type="line" smooth="yes"/>
      <point x="195" y="283"/>
      <point x="331" y="66"/>
      <point x="472" y="66" type="qcurve" smooth="yes"/>
      <point x="592" y="66"/>
      <point x="702" y="214"/>
      <point x="702" y="309" type="qcurve" smooth="yes"/>
      <point x="702" y="314" type="line"/>
      <point x="806" y="314" type="line"/>
      <point x="806" y="309" type="line" smooth="yes"/>
      <point x="806" y="177"/>
      <point x="638" y="-30"/>
      <point x="472" y="-30" type="qcurve" smooth="yes"/>
      <point x="291" y="-30"/>
      <point x="85" y="233"/>
    </contour>
  </outline>
</glyph>
<glyph name="d" format="2">
  <advance width="975"/>
  <unicode hex="0064"/>
  <outline>
    <contour>
      <point x="85" y="441" type="qcurve" smooth="yes"/>
      <point x="85" y="473" type="line" smooth="yes"/>
      <point x="85" y="673"/>
      <point x="275" y="934"/>
      <point x="442" y="934" type="qcurve" smooth="yes"/>
      <point x="537" y="934"/>
      <point x="680" y="855"/>
      <point x="718" y="789" type="qcurve"/>
      <point x="718" y="1456" type="line"/>
      <point x="827" y="1456" type="line"/>
      <point x="827" y="0" type="line"/>
      <point x="729" y="0" type="line"/>
      <point x="726" y="126" type="line"/>
      <point x="722" y="126" type="line"/>
      <point x="682" y="58"/>
      <point x="537" y="-20"/>
      <point x="442" y="-20" type="qcurve" smooth="yes"/>
      <point x="275" y="-20"/>
      <point x="85" y="241"/>
    </contour>
    <contour>
      <point x="195" y="441" type="line" smooth="yes"/>
      <point x="195" y="286"/>
      <point x="326" y="76"/>
      <point x="466" y="76" type="qcurve" smooth="yes"/>
      <point x="559" y="76"/>
      <point x="684" y="168"/>
      <point x="718" y="233" type="qcurve"/>
      <point x="718" y="681" type="line"/>
      <point x="686" y="743"/>
      <point x="559" y="838"/>
      <point x="461" y="838" type="qcurve" smooth="yes"/>
      <point x="326" y="838"/>
      <point x="195" y="627"/>
      <point x="195" y="473" type="qcurve" smooth="yes"/>
    </contour>
  </outline>
</glyph>
<glyph name="e" format="2">
  <advance width="893"/>
  <unicode hex="0065"/>
  <outline>
    <contour>
      <point x="85" y="441" type="qcurve" smooth="yes"/>
      <point x="85" y="473" type="line" smooth="yes"/>
      <point x="85" y="681"/>
      <point x="291" y="944"/>
      <point x="462" y="944" type="qcurve" smooth="yes"/>
      <point x="630" y="944"/>
      <point x="813" y="699"/>
      <point x="813" y="491" type="qcurve" smooth="yes"/>
      <point x="813" y="442" type="line"/>
      <point x="145" y="442" type="line"/>
      <point x="145" y="536" type="line"/>
      <point x="701" y="536" type="line"/>
      <point x="701" y="522" type="line" smooth="yes"/>
      <point x="701" y="657"/>
      <point x="602" y="848"/>
      <point x="459" y="848" type="qcurve" smooth="yes"/>
      <point x="331" y="848"/>
      <point x="194" y="632"/>
      <point x="194" y="473" type="qcurve" smooth="yes"/>
      <point x="194" y="441" type="line" smooth="yes"/>
      <point x="194" y="282"/>
      <point x="339" y="66"/>
      <point x="491" y="66" type="qcurve" smooth="yes"/>
      <point x="573" y="66"/>
      <point x="706" y="167"/>
      <point x="753" y="252" type="qcurve"/>
      <point x="825" y="196" type="line"/>
      <point x="775" y="91"/>
      <point x="605" y="-30"/>
      <point x="491" y="-30" type="qcurve" smooth="yes"/>
      <point x="294" y="-30"/>
      <point x="85" y="233"/>
    </contour>
  </outline>
</glyph>
<glyph name="f" format="2">
  <advance width="496"/>
  <unicode hex="0066"/>
  <outline>
    <contour>
      <point x="186" y="0" type="line"/>
      <point x="186" y="1182" type="line" smooth="yes"/>
      <point x="186" y="1338"/>
      <point x="339" y="1508"/>
      <point x="463" y="1508" type="qcurve" smooth="yes"/>
      <point x="491" y="1508"/>
      <point x="549" y="1499"/>
      <point x="574" y="1492" type="qcurve"/>
      <point x="565" y="1396" type="line"/>
      <point x="546" y="1401"/>
      <point x="497" y="1411"/>
      <point x="470" y="1411" type="qcurve" smooth="yes"/>
      <point x="388" y="1411"/>
      <point x="294" y="1294"/>
      <point x="294" y="1182" type="qcurve" smooth="yes"/>
      <point x="294" y="876" type="line"/>
      <point x="294" y="860" type="line"/>
      <point x="294" y="0" type="line"/>
    </contour>
    <contour>
      <point x="25" y="822" type="line"/>
      <point x="25" y="914" type="line"/>
      <point x="228" y="914" type="line"/>
      <point x="251" y="914" type="line"/>
      <point x="509" y="914" type="line"/>
      <point x="509" y="822" type="line"/>
    </contour>
  </outline>
</glyph>
<glyph name="g" format="2">
  <advance width="975"/>
  <unicode hex="0067"/>
  <outline>
    <contour>
      <point x="128" y="-303" type="qcurve"/>
      <point x="195" y="-225" type="line"/>
      <point x="234" y="-276"/>
      <point x="376" y="-365"/>
      <point x="474" y="-365" type="qcurve" smooth="yes"/>
      <point x="573" y="-365"/>
      <point x="718" y="-178"/>
      <point x="718" y="-9" type="qcurve" smooth="yes"/>
      <point x="718" y="125" type="line"/>
      <point x="677" y="57"/>
      <point x="537" y="-20"/>
      <point x="442" y="-20" type="qcurve" smooth="yes"/>
      <point x="275" y="-20"/>
      <point x="85" y="241"/>
      <point x="85" y="441" type="qcurve" smooth="yes"/>
      <point x="85" y="473" type="line" smooth="yes"/>
      <point x="85" y="673"/>
      <point x="275" y="934"/>
      <point x="442" y="934" type="qcurve" smooth="yes"/>
      <point x="546" y="934"/>
      <point x="690" y="843"/>
      <point x="722" y="776" type="qcurve"/>
      <point x="726" y="776" type="line"/>
      <point x="729" y="914" type="line"/>
      <point x="827" y="914" type="line"/>
      <point x="827" y="-9" type="line" smooth="yes"/>
      <point x="827" y="-229"/>
      <point x="618" y="-465"/>
      <point x="468" y="-465" type="qcurve" smooth="yes"/>
      <point x="360" y="-465"/>
      <point x="176" y="-369"/>
    </contour>
    <contour>
      <point x="195" y="441" type="line" smooth="yes"/>
      <point x="195" y="286"/>
      <point x="326" y="76"/>
      <point x="466" y="76" type="qcurve" smooth="yes"/>
      <point x="559" y="76"/>
      <point x="690" y="184"/>
      <point x="718" y="245" type="qcurve"/>
      <point x="718" y="669" type="line"/>
      <point x="686" y="737"/>
      <point x="559" y="838"/>
      <point x="466" y="838" type="qcurve" smooth="yes"/>
      <point x="326" y="838"/>
      <point x="195" y="627"/>
      <point x="195" y="473" type="qcurve" smooth="yes"/>
    </contour>
  </outline>
</glyph>
<glyph name="h" format="2">
  <advance width="948"/>
  <unicode hex="0068"/>
  <outline>
    <contour>
      <point x="148" y="0" type="line"/>
      <point x="148" y="1456" type="line"/>
      <point x="256" y="1456" type="line"/>
      <point x="256" y="782" type="line"/>
      <point x="304" y="867"/>
      <point x="432" y="934"/>
      <point x="519" y="934" type="qcurve" smooth="yes"/>
      <point x="659" y="934"/>
      <point x="810" y="780"/>
      <point x="810" y="600" type="qcurve" smooth="yes"/>
      <point x="810" y="0" type="line"/>
      <point x="702" y="0" type="line"/>
      <point x="702" y="602" type="line" smooth="yes"/>
      <point x="702" y="727"/>
      <point x="598" y="836"/>
      <point x="501" y="836" type="qcurve" smooth="yes"/>
      <point x="418" y="836"/>
      <point x="289" y="742"/>
      <point x="256" y="666" type="qcurve"/>
      <point x="256" y="0" type="line"/>
    </contour>
  </outline>
</glyph>
<glyph name="i" format="2">
  <advance width="422"/>
  <unicode hex="0069"/>
  <outline>
    <contour>
      <point x="157" y="0" type="line"/>
      <point x="157" y="914" type="line"/>
      <point x="265" y="914" type="line"/>
      <point x="265" y="0" type="line"/>
    </contour>
    <contour>
      <point x="120" y="1268" type="qcurve" smooth="yes"/>
      <point x="120" y="1305"/>
      <point x="167" y="1357"/>
      <point x="211" y="1357" type="qcurve" smooth="yes"/>
      <point x="255" y="1357"/>
      <point x="302" y="1305"/>
      <point x="302" y="1268" type="qcurve" smooth="yes"/>
      <point x="302" y="1230"/>
      <point x="255" y="1178"/>
      <point x="211" y="1178" type="qcurve" smooth="yes"/>
      <point x="167" y="1178"/>
      <point x="120" y="1230"/>
    </contour>
  </outline>
</glyph>
<glyph name="j" format="2">
  <advance width="409"/>
  <unicode hex="006A"/>
  <outline>
    <contour>
      <point x="-94" y="-442" type="qcurve"/>
      <point x="-94" y="-348" type="line"/>
      <point x="-77" y="-354"/>
      <point x="-17" y="-367"/>
      <point x="7" y="-367" type="qcurve" smooth="yes"/>
      <point x="71" y="-367"/>
      <point x="143" y="-270"/>
      <point x="143" y="-159" type="qcurve" smooth="yes"/>
      <point x="143" y="914" type="line"/>
      <point x="252" y="914" type="line"/>
      <point x="252" y="-119" type="line" smooth="yes"/>
      <point x="252" y="-299"/>
      <point x="138" y="-465"/>
      <point x="28" y="-465" type="qcurve" smooth="yes"/>
      <point x="-2" y="-465"/>
      <point x="-75" y="-450"/>
    </contour>
    <contour>
      <point x="106" y="1268" type="qcurve" smooth="yes"/>
      <point x="106" y="1305"/>
      <point x="154" y="1357"/>
      <point x="197" y="1357" type="qcurve" smooth="yes"/>
      <point x="241" y="1357"/>
      <point x="289" y="1305"/>
      <point x="289" y="1268" type="qcurve" smooth="yes"/>
      <point x="289" y="1230"/>
      <point x="241" y="1178"/>
      <point x="197" y="1178" type="qcurve" smooth="yes"/>
      <point x="154" y="1178"/>
      <point x="106" y="1230"/>
    </contour>
  </outline>
</glyph>
<glyph name="k" format="2">
  <advance width="916"/>
  <unicode hex="006B"/>
  <outline>
    <contour>
      <point x="148" y="0" type="line"/>
      <point x="148" y="1456" type="line"/>
      <point x="256" y="1456" type="line"/>
      <point x="256" y="468" type="line"/>
      <point x="710" y="914" type="line"/>
      <point x="865" y="914" type="line"/>
      <point x="256" y="333" type="line"/>
      <point x="256" y="0" type="line"/>
    </contour>
    <contour>
      <point x="755" y="0" type="line"/>
      <point x="350" y="492" type="line"/>
      <point x="439" y="561" type="line"/>
      <point x="902" y="0" type="line"/>
    </contour>
  </outline>
</glyph>
<glyph name="l" format="2">
  <advance width="420"/>
  <unicode hex="006C"/>
  <outline>
    <contour>
      <point x="156" y="0" type="line"/>
      <point x="156" y="1456" type="line"/>
      <point x="264" y="1456" type="line"/>
      <point x="264" y="0" type="line"/>
    </contour>
  </outline>
</glyph>
<glyph name="m" format="2">
  <advance width="1463"/>
  <unicode hex="006D"/>
  <outline>
    <contour>
      <point x="148" y="0" type="line"/>
      <point x="148" y="914" type="line"/>
      <point x="246" y="914" type="line"/>
      <point x="249" y="778" type="line"/>
      <point x="253" y="778" type="line"/>
      <point x="292" y="849"/>
      <point x="435" y="934"/>
      <point x="521" y="934" type="qcurve" smooth="yes"/>
      <point x="612" y="934"/>
      <point x="740" y="854"/>
      <point x="768" y="769" type="qcurve"/>
      <point x="771" y="769" type="line"/>
      <point x="816" y="853"/>
      <point x="962" y="934"/>
      <point x="1052" y="934" type="qcurve" smooth="yes"/>
      <point x="1178" y="934"/>
      <point x="1325" y="756"/>
      <point x="1325" y="578" type="qcurve" smooth="yes"/>
      <point x="1325" y="0" type="line"/>
      <point x="1216" y="0" type="line"/>
      <point x="1216" y="580" type="line" smooth="yes"/>
      <point x="1216" y="711"/>
      <point x="1117" y="836"/>
      <point x="1025" y="836" type="qcurve" smooth="yes"/>
      <point x="945" y="836"/>
      <point x="824" y="747"/>
      <point x="790" y="672" type="qcurve"/>
      <point x="790" y="0" type="line"/>
      <point x="682" y="0" type="line"/>
      <point x="682" y="602" type="line" smooth="yes"/>
      <point x="682" y="727"/>
      <point x="583" y="836"/>
      <point x="491" y="836" type="qcurve" smooth="yes"/>
      <point x="411" y="836"/>
      <point x="287" y="745"/>
      <point x="256" y="672" type="qcurve"/>
      <point x="256" y="0" type="line"/>
    </contour>
  </outline>
</glyph>
<glyph name="n" format="2">
  <advance width="948"/>
  <unicode hex="006E"/>
  <outline>
    <contour>
      <point x="148" y="0" type="line"/>
      <point x="148" y="914" type="line"/>
      <point x="246" y="914" type="line"/>
      <point x="249" y="778" type="line"/>
      <point x="253" y="778" type="line"/>
      <point x="299" y="850"/>
      <point x="442" y="934"/>
      <point x="531" y="934" type="qcurve" smooth="yes"/>
      <point x="659" y="934"/>
      <point x="810" y="756"/>
      <point x="810" y="578" type="qcurve" smooth="yes"/>
      <point x="810" y="0" type="line"/>
      <point x="702" y="0" type="line"/>
      <point x="702" y="580" type="line" smooth="yes"/>
      <point x="702" y="710"/>
      <point x="597" y="836"/>
      <point x="501" y="836" type="qcurve" smooth="yes"/>
      <point x="418" y="836"/>
      <point x="297" y="744"/>
      <point x="256" y="672" type="qcurve"/>
      <point x="256" y="0" type="line"/>
    </contour>
  </outline>
</glyph>
<glyph name="o" format="2">
  <advance width="962"/>
  <unicode hex="006F"/>
  <outline>
    <contour>
      <point x="85" y="441" type="qcurve" smooth="yes"/>
      <point x="85" y="473" type="line" smooth="yes"/>
      <point x="85" y="681"/>
      <point x="301" y="944"/>
      <point x="481" y="944" type="qcurve" smooth="yes"/>
      <point x="662" y="944"/>
      <point x="877" y="681"/>
      <point x="877" y="473" type="qcurve" smooth="yes"/>
      <point x="877" y="441" type="line" smooth="yes"/>
      <point x="877" y="233"/>
      <point x="662" y="-30"/>
      <point x="481" y="-30" type="qcurve" smooth="yes"/>
      <point x="301" y="-30"/>
      <point x="85" y="233"/>
    </contour>
    <contour>
      <point x="195" y="473" type="qcurve" smooth="yes"/>
      <point x="195" y="441" type="line" smooth="yes"/>
      <point x="195" y="283"/>
      <point x="340" y="66"/>
      <point x="481" y="66" type="qcurve" smooth="yes"/>
      <point x="622" y="66"/>
      <point x="767" y="283"/>
      <point x="767" y="441" type="qcurve" smooth="yes"/>
      <point x="767" y="473" type="line" smooth="yes"/>
      <point x="767" y="630"/>
      <point x="622" y="848"/>
      <point x="481" y="848" type="qcurve" smooth="yes"/>
      <point x="340" y="848"/>
      <point x="195" y="630"/>
    </contour>
  </outline>
</glyph>
<glyph name="p" format="2">
  <advance width="975"/>
  <unicode hex="0070"/>
  <outline>
    <contour>
      <point x="148" y="-445" type="line"/>
      <point x="148" y="914" type="line"/>
      <point x="246" y="914" type="line"/>
      <point x="249" y="770" type="line"/>
      <point x="253" y="770" type="line"/>
      <point x="291" y="844"/>
      <point x="438" y="934"/>
      <point x="533" y="934" type="qcurve" smooth="yes"/>
      <point x="700" y="934"/>
      <point x="890" y="673"/>
      <point x="890" y="473" type="qcurve" smooth="yes"/>
      <point x="890" y="441" type="line" smooth="yes"/>
      <point x="890" y="241"/>
      <point x="700" y="-20"/>
      <point x="533" y="-20" type="qcurve" smooth="yes"/>
      <point x="438" y="-20"/>
      <point x="297" y="55"/>
      <point x="256" y="119" type="qcurve"/>
      <point x="256" y="-445" type="line"/>
    </contour>
    <contour>
      <point x="256" y="250" type="line"/>
      <point x="290" y="183"/>
      <point x="416" y="76"/>
      <point x="509" y="76" type="qcurve" smooth="yes"/>
      <point x="649" y="76"/>
      <point x="780" y="286"/>
      <point x="780" y="441" type="qcurve" smooth="yes"/>
      <point x="780" y="473" type="line" smooth="yes"/>
      <point x="780" y="627"/>
      <point x="649" y="838"/>
      <point x="509" y="838" type="qcurve" smooth="yes"/>
      <point x="416" y="838"/>
      <point x="291" y="729"/>
      <point x="256" y="652" type="qcurve"/>
    </contour>
  </outline>
</glyph>
<glyph name="q" format="2">
  <advance width="975"/>
  <unicode hex="0071"/>
  <outline>
    <contour>
      <point x="85" y="441" type="qcurve" smooth="yes"/>
      <point x="85" y="473" type="line" smooth="yes"/>
      <point x="85" y="697"/>
      <point x="290" y="934"/>
      <point x="442" y="934" type="qcurve" smooth="yes"/>
      <point x="537" y="934"/>
      <point x="686" y="852"/>
      <point x="722" y="780" type="qcurve"/>
      <point x="726" y="780" type="line"/>
      <point x="729" y="914" type="line"/>
      <point x="827" y="914" type="line"/>
      <point x="827" y="-445" type="line"/>
      <point x="718" y="-445" type="line"/>
      <point x="718" y="121" type="line"/>
      <point x="718" y="121" type="line"/>
      <point x="677" y="52"/>
      <point x="537" y="-20"/>
      <point x="442" y="-20" type="qcurve" smooth="yes"/>
      <point x="275" y="-20"/>
      <point x="85" y="241"/>
    </contour>
    <contour>
      <point x="195" y="441" type="line" smooth="yes"/>
      <point x="195" y="261"/>
      <point x="345" y="76"/>
      <point x="466" y="76" type="qcurve" smooth="yes"/>
      <point x="559" y="76"/>
      <point x="681" y="186"/>
      <point x="718" y="254" type="qcurve"/>
      <point x="718" y="656" type="line"/>
      <point x="682" y="727"/>
      <point x="559" y="838"/>
      <point x="466" y="838" type="qcurve" smooth="yes"/>
      <point x="345" y="838"/>
      <point x="195" y="642"/>
      <point x="195" y="473" type="qcurve" smooth="yes"/>
    </contour>
  </outline>
</glyph>
<glyph name="r" format="2">
  <advance width="601"/>
  <unicode hex="0072"/>
  <outline>
    <contour>
      <point x="148" y="0" type="line"/>
      <point x="148" y="914" type="line"/>
      <point x="246" y="914" type="line"/>
      <point x="249" y="745" type="line"/>
      <point x="253" y="745" type="line"/>
      <point x="284" y="838"/>
      <point x="411" y="944"/>
      <point x="495" y="944" type="qcurve" smooth="yes"/>
      <point x="516" y="944"/>
      <point x="562" y="934"/>
      <point x="571" y="930" type="qcurve"/>
      <point x="571" y="826" type="line"/>
      <point x="552" y="830"/>
      <point x="510" y="836"/>
      <point x="485" y="836" type="qcurve" smooth="yes"/>
      <point x="407" y="836"/>
      <point x="292" y="721"/>
      <point x="256" y="648" type="qcurve"/>
      <point x="256" y="0" type="line"/>
    </contour>
  </outline>
</glyph>
<glyph name="s" format="2">
  <advance width="821"/>
  <unicode hex="0073"/>
  <outline>
    <contour>
      <point x="80" y="296" type="line"/>
      <point x="188" y="296" type="line"/>
      <point x="188" y="278" type="line" smooth="yes"/>
      <point x="188" y="182"/>
      <point x="302" y="67"/>
      <point x="415" y="67" type="qcurve" smooth="yes"/>
      <point x="515" y="67"/>
      <point x="630" y="163"/>
      <point x="630" y="240" type="qcurve" smooth="yes"/>
      <point x="630" y="303"/>
      <point x="551" y="400"/>
      <point x="406" y="431" type="qcurve" smooth="yes"/>
      <point x="256" y="466"/>
      <point x="116" y="575"/>
      <point x="116" y="679" type="qcurve" smooth="yes"/>
      <point x="116" y="810"/>
      <point x="287" y="944"/>
      <point x="419" y="944" type="qcurve" smooth="yes"/>
      <point x="560" y="944"/>
      <point x="726" y="775"/>
      <point x="726" y="634" type="qcurve" smooth="yes"/>
      <point x="726" y="629" type="line"/>
      <point x="618" y="629" type="line"/>
      <point x="618" y="648" type="line" smooth="yes"/>
      <point x="618" y="742"/>
      <point x="510" y="847"/>
      <point x="408" y="847" type="qcurve" smooth="yes"/>
      <point x="317" y="847"/>
      <point x="224" y="765"/>
      <point x="224" y="692" type="qcurve" smooth="yes"/>
      <point x="224" y="620"/>
      <point x="326" y="549"/>
      <point x="465" y="522" type="qcurve" smooth="yes"/>
      <point x="602" y="495"/>
      <point x="740" y="367"/>
      <point x="741" y="251" type="qcurve" smooth="yes"/>
      <point x="741" y="135"/>
      <point x="574" y="-30"/>
      <point x="412" y="-30" type="qcurve" smooth="yes"/>
      <point x="247" y="-30"/>
      <point x="80" y="145"/>
      <point x="80" y="291" type="qcurve" smooth="yes"/>
    </contour>
  </outline>
</glyph>
<glyph name="t" format="2">
  <advance width="550"/>
  <unicode hex="0074"/>
  <outline>
    <contour>
      <point x="0" y="822" type="line"/>
      <point x="0" y="914" type="line"/>
      <point x="500" y="914" type="line"/>
      <point x="500" y="822" type="line"/>
    </contour>
    <contour>
      <point x="178" y="260" type="qcurve" smooth="yes"/>
      <point x="178" y="858" type="line"/>
      <point x="178" y="878" type="line"/>
      <point x="178" y="1236" type="line"/>
      <point x="286" y="1236" type="line"/>
      <point x="286" y="260" type="line" smooth="yes"/>
      <point x="286" y="158"/>
      <point x="344" y="70"/>
      <point x="406" y="70" type="qcurve" smooth="yes"/>
      <point x="430" y="70"/>
      <point x="476" y="81"/>
      <point x="498" y="91" type="qcurve"/>
      <point x="498" y="-5" type="line"/>
      <point x="478" y="-15"/>
      <point x="417" y="-30"/>
      <point x="380" y="-30" type="qcurve" smooth="yes"/>
      <point x="287" y="-30"/>
      <point x="178" y="110"/>
    </contour>
  </outline>
</glyph>
<glyph name="u" format="2">
  <advance width="948"/>
  <unicode hex="0075"/>
  <outline>
    <contour>
      <point x="138" y="368" type="qcurve" smooth="yes"/>
      <point x="138" y="914" type="line"/>
      <point x="246" y="914" type="line"/>
      <point x="246" y="323" type="line" smooth="yes"/>
      <point x="246" y="190"/>
      <point x="351" y="78"/>
      <point x="447" y="78" type="qcurve" smooth="yes"/>
      <point x="530" y="78"/>
      <point x="655" y="186"/>
      <point x="692" y="258" type="qcurve"/>
      <point x="692" y="914" type="line"/>
      <point x="800" y="914" type="line"/>
      <point x="800" y="0" type="line"/>
      <point x="702" y="0" type="line"/>
      <point x="699" y="143" type="line"/>
      <point x="696" y="143" type="line"/>
      <point x="651" y="72"/>
      <point x="506" y="-20"/>
      <point x="418" y="-20" type="qcurve" smooth="yes"/>
      <point x="289" y="-20"/>
      <point x="138" y="160"/>
    </contour>
  </outline>
</glyph>
<glyph name="v" format="2">
  <advance width="886"/>
  <unicode hex="0076"/>
  <outline>
    <contour>
      <point x="0" y="914" type="line"/>
      <point x="109" y="914" type="line"/>
      <point x="363" y="281" type="line" smooth="yes"/>
      <point x="379" y="243"/>
      <point x="429" y="100"/>
      <point x="439" y="46" type="qcurve"/>
      <point x="445" y="46" type="line"/>
      <point x="455" y="104"/>
      <point x="502" y="243"/>
      <point x="517" y="280" type="qcurve" smooth="yes"/>
      <point x="775" y="914" type="line"/>
      <point x="886" y="914" type="line"/>
      <point x="494" y="0" type="line"/>
      <point x="381" y="0" type="line"/>
    </contour>
  </outline>
</glyph>
<glyph name="w" format="2">
  <advance width="1456"/>
  <unicode hex="0077"/>
  <outline>
    <contour>
      <point x="25" y="914" type="line"/>
      <point x="141" y="914" type="line"/>
      <point x="328" y="308" type="line" smooth="yes"/>
      <point x="341" y="269"/>
      <point x="385" y="126"/>
      <point x="391" y="86" type="qcurve"/>
      <point x="400" y="86" type="line"/>
      <point x="409" y="126"/>
      <point x="450" y="270"/>
      <point x="464" y="308" type="qcurve" smooth="yes"/>
      <point x="678" y="914" type="line"/>
      <point x="775" y="914" type="line"/>
      <point x="992" y="311" type="line" smooth="yes"/>
      <point x="1005" y="273"/>
      <point x="1055" y="125"/>
      <point x="1061" y="85" type="qcurve"/>
      <point x="1069" y="85" type="line"/>
      <point x="1076" y="125"/>
      <point x="1116" y="272"/>
      <point x="1129" y="311" type="qcurve" smooth="yes"/>
      <point x="1322" y="914" type="line"/>
      <point x="1431" y="914" type="line"/>
      <point x="1126" y="0" type="line"/>
      <point x="1003" y="0" type="line"/>
      <point x="796" y="574" type="line" smooth="yes"/>
      <point x="782" y="613"/>
      <point x="741" y="735"/>
      <point x="730" y="775" type="qcurve"/>
      <point x="723" y="775" type="line"/>
      <point x="712" y="735"/>
      <point x="674" y="613"/>
      <point x="661" y="574" type="qcurve" smooth="yes"/>
      <point x="453" y="0" type="line"/>
      <point x="331" y="0" type="line"/>
    </contour>
  </outline>
</glyph>
<glyph name="x" format="2">
  <advance width="947"/>
  <unicode hex="0078"/>
  <outline>
    <contour>
      <point x="47" y="0" type="line"/>
      <point x="436" y="506" type="line"/>
      <point x="448" y="506" type="line"/>
      <point x="748" y="914" type="line"/>
      <point x="877" y="914" type="line"/>
      <point x="511" y="422" type="line"/>
      <point x="499" y="422" type="line"/>
      <point x="177" y="0" type="line"/>
    </contour>
    <contour>
      <point x="71" y="914" type="line"/>
      <point x="194" y="914" type="line"/>
      <point x="508" y="501" type="line"/>
      <point x="514" y="501" type="line"/>
      <point x="904" y="0" type="line"/>
      <point x="774" y="0" type="line"/>
      <point x="441" y="433" type="line"/>
      <point x="435" y="433" type="line"/>
    </contour>
  </outline>
</glyph>
<glyph name="y" format="2">
  <advance width="906"/>
  <unicode hex="0079"/>
  <outline>
    <contour>
      <point x="47" y="-445" type="qcurve"/>
      <point x="47" y="-346" type="line"/>
      <point x="71" y="-354"/>
      <point x="130" y="-365"/>
      <point x="156" y="-365" type="qcurve" smooth="yes"/>
      <point x="243" y="-365"/>
      <point x="325" y="-287"/>
      <point x="385" y="-116" type="qcurve"/>
      <point x="412" y="-39" type="line"/>
      <point x="15" y="914" type="line"/>
      <point x="124" y="914" type="line"/>
      <point x="393" y="273" type="line" smooth="yes"/>
      <point x="413" y="224"/>
      <point x="458" y="78"/>
      <point x="462" y="29" type="qcurve"/>
      <point x="467" y="29" type="line"/>
      <point x="473" y="78"/>
      <point x="525" y="235"/>
      <point x="539" y="273" type="qcurve" smooth="yes"/>
      <point x="780" y="914" type="line"/>
      <point x="889" y="914" type="line"/>
      <point x="475" y="-156" type="line" smooth="yes"/>
      <point x="419" y="-305"/>
      <point x="263" y="-465"/>
      <point x="160" y="-465" type="qcurve" smooth="yes"/>
      <point x="124" y="-465"/>
      <point x="72" y="-454"/>
    </contour>
  </outline>
</glyph>
<glyph name="z" format="2">
  <advance width="877"/>
  <unicode hex="007A"/>
  <outline>
    <contour>
      <point x="70" y="0" type="line"/>
      <point x="70" y="92" type="line"/>
      <point x="658" y="818" type="line"/>
      <point x="79" y="818" type="line"/>
      <point x="79" y="914" type="line"/>
      <point x="801" y="914" type="line"/>
      <point x="801" y="822" type="line"/>
      <point x="212" y="96" type="line"/>
      <point x="813" y="96" type="line"/>
      <point x="813" y="0" type="line"/>
    </contour>
  </outline>
</glyph>
<glyph name="braceleft" format="2">
  <advance width="677"/>
  <unicode hex="007B"/>
  <outline>
    <contour>
      <point x="647" y="-312" type="line"/>
      <point x="430" y="-312"/>
      <point x="226" y="-59"/>
      <point x="262" y="110" type="qcurve" smooth="yes"/>
      <point x="311" y="327" type="line" smooth="yes"/>
      <point x="335" y="447"/>
      <point x="189" y="530"/>
      <point x="64" y="530" type="qcurve"/>
      <point x="64" y="618" type="line"/>
      <point x="189" y="618"/>
      <point x="327" y="700"/>
      <point x="303" y="819" type="qcurve" smooth="yes"/>
      <point x="254" y="1036" type="line" smooth="yes"/>
      <point x="218" y="1205"/>
      <point x="430" y="1460"/>
      <point x="647" y="1460" type="qcurve"/>
      <point x="647" y="1367" type="line"/>
      <point x="509" y="1367"/>
      <point x="339" y="1201"/>
      <point x="372" y="1034" type="qcurve" smooth="yes"/>
      <point x="421" y="817" type="line" smooth="yes"/>
      <point x="441" y="733"/>
      <point x="357" y="599"/>
      <point x="261" y="574" type="qcurve"/>
      <point x="361" y="549"/>
      <point x="450" y="419"/>
      <point x="431" y="335" type="qcurve" smooth="yes"/>
      <point x="382" y="118" type="line" smooth="yes"/>
      <point x="344" y="-47"/>
      <point x="504" y="-219"/>
      <point x="647" y="-219" type="qcurve"/>
    </contour>
  </outline>
</glyph>
<glyph name="braceright" format="2">
  <advance width="677"/>
  <unicode hex="007D"/>
  <outline>
    <contour>
      <point x="30" y="-312" type="qcurve"/>
      <point x="30" y="-219" type="line"/>
      <point x="168" y="-219"/>
      <point x="330" y="-54"/>
      <point x="295" y="118" type="qcurve" smooth="yes"/>
      <point x="246" y="335" type="line" smooth="yes"/>
      <point x="227" y="419"/>
      <point x="298" y="549"/>
      <point x="398" y="574" type="qcurve"/>
      <point x="299" y="600"/>
      <point x="236" y="733"/>
      <point x="255" y="817" type="qcurve" smooth="yes"/>
      <point x="305" y="1034" type="line" smooth="yes"/>
      <point x="342" y="1196"/>
      <point x="168" y="1367"/>
      <point x="30" y="1367" type="qcurve"/>
      <point x="30" y="1460" type="line"/>
      <point x="247" y="1460"/>
      <point x="459" y="1205"/>
      <point x="423" y="1036" type="qcurve" smooth="yes"/>
      <point x="374" y="819" type="line" smooth="yes"/>
      <point x="350" y="700"/>
      <point x="470" y="618"/>
      <point x="613" y="618" type="qcurve"/>
      <point x="613" y="530" type="line"/>
      <point x="470" y="530"/>
      <point x="342" y="447"/>
      <point x="366" y="327" type="qcurve" smooth="yes"/>
      <point x="415" y="110" type="line" smooth="yes"/>
      <point x="451" y="-59"/>
      <point x="247" y="-312"/>
    </contour>
  </outline>
</glyph>
<glyph name="asciitilde" format="2">
  <advance width="1015"/>
  <unicode hex="007E"/>
  <outline>
    <contour>
      <point x="45" y="559" type="qcurve"/>
      <point x="45" y="700" type="line"/>
      <point x="84" y="763"/>
      <point x="224" y="842"/>
      <point x="286" y="843" type="qcurve" smooth="yes"/>
      <point x="348" y="843"/>
      <point x="465" y="787"/>
      <point x="530" y="737" type="qcurve" smooth="yes"/>
      <point x="585" y="695"/>
      <point x="685" y="634"/>
      <point x="741" y="634" type="qcurve" smooth="yes"/>
      <point x="797" y="634"/>
      <point x="929" y="742"/>
      <point x="969" y="822" type="qcurve"/>
      <point x="969" y="682" type="line"/>
      <point x="936" y="614"/>
      <point x="797" y="517"/>
      <point x="717" y="517" type="qcurve" smooth="yes"/>
      <point x="673" y="517"/>
      <point x="559" y="604"/>
      <point x="498" y="649" type="qcurve" smooth="yes"/>
      <point x="442" y="692"/>
      <point x="328" y="734"/>
      <point x="278" y="734" type="qcurve" smooth="yes"/>
      <point x="214" y="734"/>
      <point x="87" y="641"/>
    </contour>
  </outline>
</glyph>
<glyph name="exclamdown" format="2">
  <advance width="555"/>
  <unicode hex="00A1"/>
  <outline>
    <contour>
      <point x="288" y="1083" type="qcurve" smooth="yes"/>
      <point x="288" y="1079"/>
      <point x="282" y="1074"/>
      <point x="278" y="1074" type="qcurve" smooth="yes"/>
      <point x="273" y="1074"/>
      <point x="267" y="1079"/>
      <point x="267" y="1083" type="qcurve" smooth="yes"/>
      <point x="267" y="1086"/>
      <point x="273" y="1091"/>
      <point x="278" y="1091" type="qcurve" smooth="yes"/>
      <point x="282" y="1091"/>
      <point x="288" y="1086"/>
    </contour>
    <contour>
      <point x="325" y="739" type="line"/>
      <point x="334" y="-307" type="line"/>
      <point x="222" y="-307" type="line"/>
      <point x="232" y="739" type="line"/>
    </contour>
  </outline>
</glyph>
<glyph name="cent" format="2">
  <advance width="840"/>
  <unicode hex="00A2"/>
  <outline>
    <contour>
      <point x="450" y="228" type="qcurve" smooth="yes"/>
      <point x="547" y="228"/>
      <point x="684" y="360"/>
      <point x="693" y="492" type="qcurve"/>
      <point x="794" y="492" type="line"/>
      <point x="786" y="340"/>
      <point x="609" y="130"/>
      <point x="451" y="130" type="qcurve" smooth="yes"/>
      <point x="275" y="130"/>
      <point x="65" y="405"/>
      <point x="65" y="670" type="qcurve" smooth="yes"/>
      <point x="65" y="712" type="line" smooth="yes"/>
      <point x="65" y="967"/>
      <point x="272" y="1252"/>
      <point x="451" y="1252" type="qcurve" smooth="yes"/>
      <point x="615" y="1252"/>
      <point x="787" y="1032"/>
      <point x="794" y="860" type="qcurve"/>
      <point x="693" y="860" type="line"/>
      <point x="684" y="999"/>
      <point x="555" y="1150"/>
      <point x="450" y="1150" type="qcurve" smooth="yes"/>
      <point x="306" y="1150"/>
      <point x="169" y="922"/>
      <point x="169" y="713" type="qcurve" smooth="yes"/>
      <point x="169" y="665" type="line" smooth="yes"/>
      <point x="169" y="442"/>
      <point x="328" y="228"/>
    </contour>
    <contour>
      <point x="401" y="0" type="line"/>
      <point x="401" y="193" type="line"/>
      <point x="405" y="207" type="line"/>
      <point x="405" y="708" type="line"/>
      <point x="487" y="708" type="line"/>
      <point x="487" y="206" type="line"/>
      <point x="492" y="196" type="line"/>
      <point x="492" y="0" type="line"/>
    </contour>
    <contour>
      <point x="405" y="708" type="line"/>
      <point x="405" y="1202" type="line"/>
      <point x="401" y="1212" type="line"/>
      <point x="401" y="1402" type="line"/>
      <point x="492" y="1402" type="line"/>
      <point x="492" y="1212" type="line"/>
      <point x="487" y="1199" type="line"/>
      <point x="487" y="708" type="line"/>
    </contour>
  </outline>
</glyph>
<glyph name="sterling" format="2">
  <advance width="939"/>
  <unicode hex="00A3"/>
  <outline>
    <contour>
      <point x="943" y="0" type="line"/>
      <point x="36" y="0" type="line"/>
      <point x="36" y="101" type="line"/>
      <point x="92" y="101" type="line" smooth="yes"/>
      <point x="184" y="101"/>
      <point x="301" y="324"/>
      <point x="287" y="467" type="qcurve" smooth="yes"/>
      <point x="232" y="1039" type="line" smooth="yes"/>
      <point x="213" y="1234"/>
      <point x="390" y="1476"/>
      <point x="570" y="1476" type="qcurve" smooth="yes"/>
      <point x="721" y="1476"/>
      <point x="885" y="1274"/>
      <point x="885" y="1108" type="qcurve" smooth="yes"/>
      <point x="885" y="1087" type="line"/>
      <point x="775" y="1087" type="line"/>
      <point x="775" y="1163" type="line" smooth="yes"/>
      <point x="775" y="1274"/>
      <point x="662" y="1364"/>
      <point x="572" y="1364" type="qcurve" smooth="yes"/>
      <point x="442" y="1364"/>
      <point x="324" y="1223"/>
      <point x="341" y="1039" type="qcurve" smooth="yes"/>
      <point x="393" y="508" type="line" smooth="yes"/>
      <point x="409" y="340"/>
      <point x="300" y="142"/>
      <point x="205" y="107" type="qcurve"/>
      <point x="943" y="107" type="line"/>
    </contour>
    <contour>
      <point x="807" y="652" type="line"/>
      <point x="52" y="652" type="line"/>
      <point x="52" y="753" type="line"/>
      <point x="807" y="753" type="line"/>
    </contour>
  </outline>
</glyph>
<glyph name="currency" format="2">
  <advance width="1106"/>
  <unicode hex="00A4"/>
  <guideline y="901" identifier="bRYxxRaQQf"/>
  <guideline y="555" identifier="917FhrihjR"/>
  <outline>
    <contour>
      <point x="235" y="715" type="qcurve"/>
      <point x="235" y="570"/>
      <point x="419" y="376"/>
      <point x="550" y="376" type="qcurve" smooth="yes"/>
      <point x="680" y="376"/>
      <point x="863" y="570"/>
      <point x="863" y="715" type="qcurve" smooth="yes"/>
      <point x="863" y="858"/>
      <point x="680" y="1052"/>
      <point x="550" y="1052" type="qcurve" smooth="yes"/>
      <point x="419" y="1052"/>
      <point x="235" y="858"/>
    </contour>
    <contour>
      <point x="111" y="718" type="qcurve"/>
      <point x="111" y="907"/>
      <point x="372" y="1164"/>
      <point x="549" y="1164" type="qcurve" smooth="yes"/>
      <point x="727" y="1164"/>
      <point x="988" y="907"/>
      <point x="988" y="718" type="qcurve" smooth="yes"/>
      <point x="988" y="530"/>
      <point x="727" y="270"/>
      <point x="549" y="270" type="qcurve" smooth="yes"/>
      <point x="372" y="270"/>
      <point x="111" y="530"/>
    </contour>
    <contour>
      <point x="1067" y="1203" type="line"/>
      <point x="840" y="968" type="line"/>
      <point x="770" y="1042" type="line"/>
      <point x="997" y="1277" type="line"/>
    </contour>
    <contour>
      <point x="309" y="406" type="line"/>
      <point x="82" y="174" type="line"/>
      <point x="12" y="248" type="line"/>
      <point x="239" y="478" type="line"/>
    </contour>
    <contour>
      <point x="1024" y="182" type="line"/>
      <point x="798" y="413" type="line"/>
      <point x="869" y="486" type="line"/>
      <point x="1094" y="256" type="line"/>
    </contour>
    <contour>
      <point x="259" y="975" type="line"/>
      <point x="29" y="1216" type="line"/>
      <point x="99" y="1290" type="line"/>
      <point x="329" y="1048" type="line"/>
    </contour>
  </outline>
</glyph>
<glyph name="yen" format="2">
  <advance width="1012"/>
  <unicode hex="00A5"/>
  <outline>
    <contour>
      <point x="52" y="288" type="line"/>
      <point x="52" y="392" type="line"/>
      <point x="968" y="392" type="line"/>
      <point x="968" y="288" type="line"/>
    </contour>
    <contour>
      <point x="52" y="575" type="line"/>
      <point x="52" y="673" type="line"/>
      <point x="466" y="673" type="line"/>
      <point x="496" y="593" type="line"/>
      <point x="521" y="593" type="line"/>
      <point x="549" y="673" type="line"/>
      <point x="968" y="673" type="line"/>
      <point x="967" y="575" type="line"/>
    </contour>
    <contour>
      <point x="449" y="0" type="line"/>
      <point x="449" y="479" type="line"/>
      <point x="-26" y="1456" type="line"/>
      <point x="99" y="1456" type="line"/>
      <point x="380" y="863" type="line" smooth="yes"/>
      <point x="405" y="812"/>
      <point x="481" y="636"/>
      <point x="495" y="596" type="qcurve"/>
      <point x="516" y="596" type="line"/>
      <point x="536" y="647"/>
      <point x="608" y="817"/>
      <point x="629" y="863" type="qcurve" smooth="yes"/>
      <point x="911" y="1456" type="line"/>
      <point x="1038" y="1456" type="line"/>
      <point x="557" y="469" type="line"/>
      <point x="557" y="0" type="line"/>
    </contour>
  </outline>
</glyph>
<glyph name="section" format="2">
  <advance width="1153"/>
  <unicode hex="00A7"/>
  <guideline y="1658" identifier="QzZ5gIiCyn"/>
  <guideline y="578" identifier="9Hxjf2sdFw"/>
  <outline>
    <contour>
      <point x="640" y="142" type="qcurve"/>
      <point x="640" y="234" type="line"/>
      <point x="767" y="235"/>
      <point x="921" y="346"/>
      <point x="921" y="443" type="qcurve"/>
      <point x="921" y="556"/>
      <point x="755" y="674"/>
      <point x="591" y="742" type="qcurve" smooth="yes"/>
      <point x="417" y="811"/>
      <point x="200" y="967"/>
      <point x="200" y="1131" type="qcurve" smooth="yes"/>
      <point x="200" y="1312"/>
      <point x="394" y="1490"/>
      <point x="572" y="1491" type="qcurve" smooth="yes"/>
      <point x="735" y="1492"/>
      <point x="929" y="1294"/>
      <point x="928" y="1100" type="qcurve"/>
      <point x="823" y="1100" type="line"/>
      <point x="824" y="1250"/>
      <point x="692" y="1386"/>
      <point x="572" y="1386" type="qcurve" smooth="yes"/>
      <point x="432" y="1386"/>
      <point x="310" y="1272"/>
      <point x="310" y="1169" type="qcurve" smooth="yes"/>
      <point x="310" y="1040"/>
      <point x="492" y="907"/>
      <point x="646" y="846" type="qcurve" smooth="yes"/>
      <point x="793" y="789"/>
      <point x="1032" y="620"/>
      <point x="1032" y="465" type="qcurve" smooth="yes"/>
      <point x="1032" y="318"/>
      <point x="809" y="142"/>
    </contour>
    <contour>
      <point x="487" y="897" type="qcurve"/>
      <point x="485" y="812" type="line"/>
      <point x="374" y="812"/>
      <point x="231" y="678"/>
      <point x="230" y="576" type="qcurve" smooth="yes"/>
      <point x="230" y="475"/>
      <point x="373" y="373"/>
      <point x="551" y="299" type="qcurve" smooth="yes"/>
      <point x="734" y="223"/>
      <point x="944" y="49"/>
      <point x="944" y="-118" type="qcurve" smooth="yes"/>
      <point x="944" y="-292"/>
      <point x="743" y="-509"/>
      <point x="548" y="-509" type="qcurve" smooth="yes"/>
      <point x="353" y="-509"/>
      <point x="145" y="-303"/>
      <point x="145" y="-72" type="qcurve"/>
      <point x="244" y="-70" type="line"/>
      <point x="245" y="-266"/>
      <point x="423" y="-404"/>
      <point x="548" y="-404" type="qcurve" smooth="yes"/>
      <point x="673" y="-404"/>
      <point x="845" y="-276"/>
      <point x="845" y="-150" type="qcurve" smooth="yes"/>
      <point x="845" y="-29"/>
      <point x="691" y="116"/>
      <point x="489" y="197" type="qcurve" smooth="yes"/>
      <point x="296" y="275"/>
      <point x="119" y="429"/>
      <point x="119" y="569" type="qcurve" smooth="yes"/>
      <point x="119" y="711"/>
      <point x="347" y="897"/>
    </contour>
  </outline>
</glyph>
<glyph name="dieresis" format="2">
  <advance width="998"/>
  <unicode hex="00A8"/>
  <outline>
    <contour>
      <point x="187" y="1312" type="qcurve" smooth="yes"/>
      <point x="187" y="1352"/>
      <point x="237" y="1407"/>
      <point x="283" y="1407" type="qcurve" smooth="yes"/>
      <point x="331" y="1407"/>
      <point x="380" y="1352"/>
      <point x="380" y="1312" type="qcurve" smooth="yes"/>
      <point x="380" y="1274"/>
      <point x="331" y="1220"/>
      <point x="283" y="1220" type="qcurve" smooth="yes"/>
      <point x="237" y="1220"/>
      <point x="187" y="1274"/>
    </contour>
    <contour>
      <point x="618" y="1312" type="qcurve" smooth="yes"/>
      <point x="618" y="1352"/>
      <point x="667" y="1407"/>
      <point x="714" y="1407" type="qcurve" smooth="yes"/>
      <point x="761" y="1407"/>
      <point x="811" y="1352"/>
      <point x="811" y="1312" type="qcurve" smooth="yes"/>
      <point x="811" y="1274"/>
      <point x="761" y="1220"/>
      <point x="714" y="1220" type="qcurve" smooth="yes"/>
      <point x="667" y="1220"/>
      <point x="618" y="1274"/>
    </contour>
  </outline>
</glyph>
<glyph name="copyright" format="2">
  <advance width="1598"/>
  <unicode hex="00A9"/>
  <guideline y="901" identifier="0Pjz0qKr8z"/>
  <guideline y="555" identifier="sJo8BlDiJ7"/>
  <outline>
    <contour>
      <point x="1043" y="546" type="qcurve"/>
      <point x="1148" y="546" type="line"/>
      <point x="1148" y="375"/>
      <point x="955" y="205"/>
      <point x="805" y="205" type="qcurve" smooth="yes"/>
      <point x="620" y="205"/>
      <point x="431" y="437"/>
      <point x="431" y="664" type="qcurve" smooth="yes"/>
      <point x="431" y="703" type="line" smooth="yes"/>
      <point x="431" y="931"/>
      <point x="638" y="1170"/>
      <point x="802" y="1170" type="qcurve" smooth="yes"/>
      <point x="971" y="1170"/>
      <point x="1149" y="983"/>
      <point x="1149" y="829" type="qcurve"/>
      <point x="1044" y="829" type="line"/>
      <point x="1044" y="950"/>
      <point x="917" y="1061"/>
      <point x="801" y="1061" type="qcurve" smooth="yes"/>
      <point x="682" y="1061"/>
      <point x="543" y="906"/>
      <point x="543" y="748" type="qcurve" smooth="yes"/>
      <point x="543" y="621" type="line" smooth="yes"/>
      <point x="543" y="464"/>
      <point x="673" y="307"/>
      <point x="804" y="307" type="qcurve" smooth="yes"/>
      <point x="933" y="307"/>
      <point x="1043" y="419"/>
    </contour>
    <contour>
      <point x="131" y="687" type="qcurve" smooth="yes"/>
      <point x="131" y="380"/>
      <point x="504" y="-23"/>
      <point x="800" y="-23" type="qcurve" smooth="yes"/>
      <point x="1095" y="-23"/>
      <point x="1468" y="380"/>
      <point x="1468" y="687" type="qcurve" smooth="yes"/>
      <point x="1468" y="994"/>
      <point x="1095" y="1394"/>
      <point x="800" y="1394" type="qcurve" smooth="yes"/>
      <point x="504" y="1394"/>
      <point x="131" y="994"/>
    </contour>
    <contour>
      <point x="38" y="687" type="qcurve" smooth="yes"/>
      <point x="38" y="1039"/>
      <point x="485" y="1492"/>
      <point x="799" y="1492" type="qcurve" smooth="yes"/>
      <point x="1113" y="1492"/>
      <point x="1560" y="1039"/>
      <point x="1560" y="687" type="qcurve" smooth="yes"/>
      <point x="1560" y="337"/>
      <point x="1113" y="-120"/>
      <point x="799" y="-120" type="qcurve" smooth="yes"/>
      <point x="485" y="-120"/>
      <point x="38" y="337"/>
    </contour>
  </outline>
</glyph>
<glyph name="ordfeminine" format="2">
  <advance width="795"/>
  <unicode hex="00AA"/>
  <guideline y="1681" identifier="3CJlALCfkl"/>
  <guideline y="909" identifier="Zdl6NZVQAy"/>
  <outline>
    <contour>
      <point x="545" y="862" type="line"/>
      <point x="545" y="821"/>
      <point x="565" y="736"/>
      <point x="588" y="706" type="qcurve"/>
      <point x="663" y="706" type="line"/>
      <point x="652" y="749"/>
      <point x="642" y="838"/>
      <point x="642" y="887" type="qcurve" smooth="yes"/>
      <point x="642" y="1201" type="line" smooth="yes"/>
      <point x="642" y="1338"/>
      <point x="514" y="1477"/>
      <point x="405" y="1477" type="qcurve" smooth="yes"/>
      <point x="303" y="1477"/>
      <point x="164" y="1356"/>
      <point x="164" y="1261" type="qcurve" smooth="yes"/>
      <point x="164" y="1234" type="line"/>
      <point x="259" y="1234" type="line"/>
      <point x="259" y="1247" type="line" smooth="yes"/>
      <point x="259" y="1324"/>
      <point x="334" y="1384"/>
      <point x="405" y="1384" type="qcurve" smooth="yes"/>
      <point x="472" y="1384"/>
      <point x="545" y="1308"/>
      <point x="545" y="1202" type="qcurve" smooth="yes"/>
    </contour>
    <contour>
      <point x="575" y="1133" type="line"/>
      <point x="436" y="1133" type="line" smooth="yes"/>
      <point x="288" y="1133"/>
      <point x="141" y="1016"/>
      <point x="141" y="918" type="qcurve" smooth="yes"/>
      <point x="141" y="816"/>
      <point x="252" y="692"/>
      <point x="358" y="692" type="qcurve" smooth="yes"/>
      <point x="446" y="692"/>
      <point x="561" y="788"/>
      <point x="580" y="837" type="qcurve"/>
      <point x="562" y="905" type="line"/>
      <point x="562" y="867"/>
      <point x="435" y="778"/>
      <point x="371" y="778" type="qcurve" smooth="yes"/>
      <point x="307" y="778"/>
      <point x="238" y="847"/>
      <point x="238" y="910" type="qcurve" smooth="yes"/>
      <point x="238" y="976"/>
      <point x="327" y="1058"/>
      <point x="417" y="1058" type="qcurve" smooth="yes"/>
      <point x="575" y="1058" type="line"/>
    </contour>
  </outline>
</glyph>
<glyph name="registered" format="2">
  <advance width="1598"/>
  <unicode hex="00AE"/>
  <outline>
    <contour>
      <point x="38" y="687" type="qcurve" smooth="yes"/>
      <point x="38" y="1039"/>
      <point x="484" y="1492"/>
      <point x="799" y="1492" type="qcurve" smooth="yes"/>
      <point x="1113" y="1492"/>
      <point x="1560" y="1039"/>
      <point x="1560" y="687" type="qcurve" smooth="yes"/>
      <point x="1560" y="337"/>
      <point x="1113" y="-120"/>
      <point x="799" y="-120" type="qcurve" smooth="yes"/>
      <point x="484" y="-120"/>
      <point x="38" y="337"/>
    </contour>
    <contour>
      <point x="131" y="687" type="qcurve" smooth="yes"/>
      <point x="131" y="372"/>
      <point x="519" y="-23"/>
      <point x="800" y="-23" type="qcurve" smooth="yes"/>
      <point x="1081" y="-23"/>
      <point x="1468" y="372"/>
      <point x="1468" y="687" type="qcurve" smooth="yes"/>
      <point x="1468" y="1003"/>
      <point x="1081" y="1394"/>
      <point x="800" y="1394" type="qcurve" smooth="yes"/>
      <point x="519" y="1394"/>
      <point x="131" y="1003"/>
    </contour>
    <contour>
      <point x="844" y="613" type="line"/>
      <point x="615" y="613" type="line"/>
      <point x="615" y="225" type="line"/>
      <point x="515" y="225" type="line"/>
      <point x="515" y="1158" type="line"/>
      <point x="799" y="1158" type="line" smooth="yes"/>
      <point x="941" y="1158"/>
      <point x="1116" y="1018"/>
      <point x="1116" y="886" type="qcurve" smooth="yes"/>
      <point x="1116" y="768"/>
      <point x="1002" y="660"/>
      <point x="910" y="634" type="qcurve"/>
      <point x="941" y="611"/>
      <point x="966" y="576"/>
      <point x="983" y="546" type="qcurve" smooth="yes"/>
      <point x="1152" y="243" type="line"/>
      <point x="1152" y="225" type="line"/>
      <point x="1031" y="225" type="line"/>
    </contour>
    <contour>
      <point x="800" y="1041" type="qcurve" smooth="yes"/>
      <point x="615" y="1041" type="line"/>
      <point x="615" y="721" type="line"/>
      <point x="825" y="721" type="line" smooth="yes"/>
      <point x="898" y="721"/>
      <point x="1010" y="788"/>
      <point x="1010" y="871" type="qcurve" smooth="yes"/>
      <point x="1010" y="961"/>
      <point x="918" y="1040"/>
    </contour>
  </outline>
</glyph>
<glyph name="degree" format="2">
  <advance width="765"/>
  <unicode hex="00B0"/>
  <outline>
    <contour>
      <point x="148" y="1217" type="qcurve"/>
      <point x="148" y="1316"/>
      <point x="289" y="1459"/>
      <point x="386" y="1459" type="qcurve" smooth="yes"/>
      <point x="482" y="1459"/>
      <point x="620" y="1316"/>
      <point x="620" y="1217" type="qcurve" smooth="yes"/>
      <point x="620" y="1118"/>
      <point x="482" y="978"/>
      <point x="386" y="978" type="qcurve" smooth="yes"/>
      <point x="289" y="978"/>
      <point x="148" y="1118"/>
    </contour>
    <contour>
      <point x="240" y="1217" type="qcurve"/>
      <point x="240" y="1155"/>
      <point x="326" y="1073"/>
      <point x="386" y="1073" type="qcurve" smooth="yes"/>
      <point x="446" y="1073"/>
      <point x="528" y="1155"/>
      <point x="528" y="1217" type="qcurve" smooth="yes"/>
      <point x="528" y="1280"/>
      <point x="446" y="1364"/>
      <point x="386" y="1364" type="qcurve" smooth="yes"/>
      <point x="326" y="1364"/>
      <point x="240" y="1280"/>
    </contour>
  </outline>
</glyph>
<glyph name="plusminus" format="2">
  <advance width="1024"/>
  <unicode hex="00B1"/>
  <outline>
    <contour>
      <point x="57" y="638" type="line"/>
      <point x="57" y="748" type="line"/>
      <point x="967" y="748" type="line"/>
      <point x="967" y="638" type="line"/>
    </contour>
    <contour>
      <point x="451" y="248" type="line"/>
      <point x="451" y="1160" type="line"/>
      <point x="573" y="1160" type="line"/>
      <point x="573" y="248" type="line"/>
    </contour>
    <contour>
      <point x="57" y="1" type="line"/>
      <point x="57" y="110" type="line"/>
      <point x="967" y="110" type="line"/>
      <point x="967" y="1" type="line"/>
    </contour>
  </outline>
</glyph>
<glyph name="twosuperior" format="2">
  <advance width="635"/>
  <unicode hex="00B2"/>
  <outline>
    <contour>
      <point x="76" y="697" type="line"/>
      <point x="74" y="790" type="line"/>
      <point x="329" y="1054" type="line" smooth="yes"/>
      <point x="391" y="1119"/>
      <point x="426" y="1201"/>
      <point x="426" y="1276" type="qcurve" smooth="yes"/>
      <point x="426" y="1335"/>
      <point x="368" y="1391"/>
      <point x="306" y="1391" type="qcurve" smooth="yes"/>
      <point x="250" y="1391"/>
      <point x="179" y="1311"/>
      <point x="180" y="1198" type="qcurve"/>
      <point x="79" y="1198" type="line"/>
      <point x="78" y="1341"/>
      <point x="196" y="1487"/>
      <point x="311" y="1487" type="qcurve" smooth="yes"/>
      <point x="424" y="1487"/>
      <point x="528" y="1354"/>
      <point x="527" y="1273" type="qcurve" smooth="yes"/>
      <point x="527" y="1192"/>
      <point x="458" y="1064"/>
      <point x="389" y="993" type="qcurve" smooth="yes"/>
      <point x="192" y="795" type="line"/>
      <point x="561" y="795" type="line"/>
      <point x="561" y="697" type="line"/>
    </contour>
  </outline>
</glyph>
<glyph name="threesuperior" format="2">
  <advance width="621"/>
  <unicode hex="00B3"/>
  <outline>
    <contour>
      <point x="63" y="920" type="qcurve"/>
      <point x="158" y="920" type="line"/>
      <point x="158" y="837"/>
      <point x="238" y="775"/>
      <point x="304" y="775" type="qcurve" smooth="yes"/>
      <point x="371" y="775"/>
      <point x="437" y="837"/>
      <point x="437" y="915" type="qcurve" smooth="yes"/>
      <point x="437" y="995"/>
      <point x="361" y="1049"/>
      <point x="288" y="1050" type="qcurve" smooth="yes"/>
      <point x="204" y="1050" type="line"/>
      <point x="204" y="1135" type="line"/>
      <point x="288" y="1135" type="line" smooth="yes"/>
      <point x="360" y="1135"/>
      <point x="424" y="1199"/>
      <point x="424" y="1275" type="qcurve" smooth="yes"/>
      <point x="424" y="1334"/>
      <point x="370" y="1396"/>
      <point x="301" y="1396" type="qcurve" smooth="yes"/>
      <point x="244" y="1396"/>
      <point x="169" y="1336"/>
      <point x="169" y="1256" type="qcurve"/>
      <point x="74" y="1256" type="line"/>
      <point x="74" y="1357"/>
      <point x="203" y="1487"/>
      <point x="295" y="1487" type="qcurve" smooth="yes"/>
      <point x="396" y="1487"/>
      <point x="524" y="1372"/>
      <point x="524" y="1269" type="qcurve" smooth="yes"/>
      <point x="524" y="1200"/>
      <point x="458" y="1115"/>
      <point x="389" y="1096" type="qcurve"/>
      <point x="465" y="1078"/>
      <point x="537" y="983"/>
      <point x="537" y="912" type="qcurve" smooth="yes"/>
      <point x="537" y="807"/>
      <point x="399" y="686"/>
      <point x="297" y="686" type="qcurve" smooth="yes"/>
      <point x="206" y="686"/>
      <point x="63" y="799"/>
    </contour>
  </outline>
</glyph>
<glyph name="micro" format="2">
  <advance width="1024"/>
  <unicode hex="00B5"/>
  <outline>
    <contour>
      <point x="242" y="1052" type="line"/>
      <point x="351" y="1052" type="line"/>
      <point x="211" y="332" type="line" smooth="yes"/>
      <point x="187" y="206"/>
      <point x="269" y="97"/>
      <point x="366" y="97" type="qcurve" smooth="yes"/>
      <point x="451" y="97"/>
      <point x="602" y="183"/>
      <point x="657" y="253" type="qcurve"/>
      <point x="811" y="1052" type="line"/>
      <point x="920" y="1052" type="line"/>
      <point x="716" y="0" type="line"/>
      <point x="625" y="0" type="line"/>
      <point x="646" y="159" type="line"/>
      <point x="640" y="159" type="line"/>
      <point x="577" y="73"/>
      <point x="391" y="-20"/>
      <point x="296" y="-20" type="qcurve" smooth="yes"/>
      <point x="254" y="-20"/>
      <point x="179" y="43"/>
      <point x="162" y="83" type="qcurve"/>
      <point x="67" y="-416" type="line"/>
      <point x="-42" y="-416" type="line"/>
    </contour>
  </outline>
</glyph>
<glyph name="periodcentered" format="2">
  <advance width="559"/>
  <unicode hex="00B7"/>
  <outline>
    <contour>
      <point x="176" y="749" type="qcurve" smooth="yes"/>
      <point x="176" y="790"/>
      <point x="229" y="849"/>
      <point x="279" y="849" type="qcurve" smooth="yes"/>
      <point x="329" y="849"/>
      <point x="383" y="790"/>
      <point x="383" y="749" type="qcurve" smooth="yes"/>
      <point x="383" y="708"/>
      <point x="329" y="649"/>
      <point x="279" y="649" type="qcurve" smooth="yes"/>
      <point x="229" y="649"/>
      <point x="176" y="708"/>
    </contour>
  </outline>
</glyph>
<glyph name="cedilla" format="2">
  <advance width="992"/>
  <unicode hex="00B8"/>
  <outline>
    <contour>
      <point x="459" y="22" type="line"/>
      <point x="549" y="20" type="line"/>
      <point x="520" y="-85" type="line"/>
      <point x="589" y="-101"/>
      <point x="692" y="-169"/>
      <point x="692" y="-247" type="qcurve" smooth="yes"/>
      <point x="692" y="-340"/>
      <point x="511" y="-457"/>
      <point x="350" y="-457" type="qcurve"/>
      <point x="344" y="-379" type="line"/>
      <point x="459" y="-377"/>
      <point x="586" y="-314"/>
      <point x="586" y="-250" type="qcurve" smooth="yes"/>
      <point x="586" y="-202"/>
      <point x="493" y="-151"/>
      <point x="420" y="-142" type="qcurve"/>
    </contour>
  </outline>
</glyph>
<glyph name="onesuperior" format="2">
  <advance width="687"/>
  <unicode hex="00B9"/>
  <outline>
    <contour>
      <point x="123" y="1269" type="line"/>
      <point x="123" y="1370" type="line"/>
      <point x="449" y="1486" type="line"/>
      <point x="472" y="1486" type="line"/>
      <point x="472" y="697" type="line"/>
      <point x="374" y="697" type="line"/>
      <point x="374" y="1359" type="line"/>
    </contour>
  </outline>
</glyph>
<glyph name="ordmasculine" format="2">
  <advance width="802"/>
  <unicode hex="00BA"/>
  <guideline y="1975" identifier="Jnt0R9CyOf"/>
  <outline>
    <contour>
      <point x="123" y="1043" type="qcurve"/>
      <point x="123" y="1124" type="line"/>
      <point x="123" y="1278"/>
      <point x="273" y="1477"/>
      <point x="400" y="1477" type="qcurve" smooth="yes"/>
      <point x="528" y="1477"/>
      <point x="677" y="1278"/>
      <point x="677" y="1124" type="qcurve"/>
      <point x="677" y="1043" type="line"/>
      <point x="677" y="889"/>
      <point x="529" y="691"/>
      <point x="402" y="691" type="qcurve" smooth="yes"/>
      <point x="274" y="691"/>
      <point x="123" y="889"/>
    </contour>
    <contour>
      <point x="221" y="1140" type="qcurve"/>
      <point x="221" y="1043" type="line"/>
      <point x="221" y="908"/>
      <point x="310" y="786"/>
      <point x="402" y="786" type="qcurve" smooth="yes"/>
      <point x="491" y="786"/>
      <point x="580" y="908"/>
      <point x="580" y="1043" type="qcurve"/>
      <point x="580" y="1140" type="line"/>
      <point x="580" y="1257"/>
      <point x="490" y="1380"/>
      <point x="400" y="1380" type="qcurve" smooth="yes"/>
      <point x="310" y="1380"/>
      <point x="221" y="1257"/>
    </contour>
  </outline>
</glyph>
<glyph name="questiondown" format="2">
  <advance width="784"/>
  <unicode hex="00BF"/>
  <guideline y="-181" identifier="apukwP5ffL"/>
  <guideline y="921" identifier="5ZPZZL8Rim"/>
  <outline>
    <contour>
      <point x="559" y="1049" type="qcurve" smooth="yes"/>
      <point x="559" y="1000"/>
      <point x="495" y="930"/>
      <point x="435" y="930" type="qcurve" smooth="yes"/>
      <point x="375" y="930"/>
      <point x="311" y="1000"/>
      <point x="311" y="1049" type="qcurve" smooth="yes"/>
      <point x="311" y="1099"/>
      <point x="375" y="1169"/>
      <point x="435" y="1169" type="qcurve" smooth="yes"/>
      <point x="495" y="1169"/>
      <point x="559" y="1099"/>
    </contour>
    <contour>
      <point x="723" y="52" type="line"/>
      <point x="723" y="32" type="line" smooth="yes"/>
      <point x="723" y="-135"/>
      <point x="553" y="-329"/>
      <point x="405" y="-329" type="qcurve" smooth="yes"/>
      <point x="259" y="-329"/>
      <point x="93" y="-136"/>
      <point x="93" y="19" type="qcurve" smooth="yes"/>
      <point x="93" y="158"/>
      <point x="215" y="349"/>
      <point x="299" y="416" type="qcurve" smooth="yes"/>
      <point x="370" y="480"/>
      <point x="419" y="634"/>
      <point x="419" y="727" type="qcurve" smooth="yes"/>
      <point x="419" y="737" type="line"/>
      <point x="473" y="737" type="line"/>
      <point x="473" y="727" type="line" smooth="yes"/>
      <point x="473" y="595"/>
      <point x="403" y="435"/>
      <point x="333" y="348" type="qcurve" smooth="yes"/>
      <point x="265" y="271"/>
      <point x="202" y="130"/>
      <point x="202" y="19" type="qcurve" smooth="yes"/>
      <point x="202" y="-93"/>
      <point x="303" y="-229"/>
      <point x="405" y="-229" type="qcurve" smooth="yes"/>
      <point x="508" y="-229"/>
      <point x="615" y="-94"/>
      <point x="615" y="32" type="qcurve" smooth="yes"/>
      <point x="615" y="52" type="line"/>
    </contour>
  </outline>
</glyph>
<glyph name="AE" format="2">
  <advance width="1708"/>
  <unicode hex="00C6"/>
  <outline>
    <contour>
      <point x="296" y="400" type="line"/>
      <point x="353" y="506" type="line"/>
      <point x="959" y="506" type="line"/>
      <point x="959" y="400" type="line"/>
    </contour>
    <contour>
      <point x="-15" y="0" type="line"/>
      <point x="841" y="1456" type="line"/>
      <point x="1630" y="1456" type="line"/>
      <point x="1630" y="1357" type="line"/>
      <point x="1009" y="1357" type="line"/>
      <point x="1009" y="800" type="line"/>
      <point x="1538" y="800" type="line"/>
      <point x="1538" y="702" type="line"/>
      <point x="1009" y="702" type="line"/>
      <point x="1009" y="99" type="line"/>
      <point x="1640" y="99" type="line"/>
      <point x="1640" y="0" type="line"/>
      <point x="899" y="0" type="line"/>
      <point x="899" y="1331" type="line"/>
      <point x="132" y="0" type="line"/>
    </contour>
  </outline>
</glyph>
<glyph name="multiply" format="2">
  <advance width="1024"/>
  <unicode hex="00D7"/>
  <outline>
    <contour>
      <point x="169" y="256" type="line"/>
      <point x="97" y="334" type="line"/>
      <point x="835" y="1089" type="line"/>
      <point x="907" y="1010" type="line"/>
    </contour>
    <contour>
      <point x="836" y="261" type="line"/>
      <point x="109" y="1004" type="line"/>
      <point x="186" y="1086" type="line"/>
      <point x="913" y="342" type="line"/>
    </contour>
  </outline>
</glyph>
<glyph name="Thorn" format="2">
  <advance width="981"/>
  <unicode hex="00DE"/>
  <guideline y="901" identifier="i9jYwjBDP4"/>
  <guideline y="555" identifier="T8KKW8oxop"/>
  <outline>
    <contour>
      <point x="170" y="1456" type="line"/>
      <point x="278" y="1456" type="line"/>
      <point x="278" y="1136" type="line"/>
      <point x="538" y="1136" type="line" smooth="yes"/>
      <point x="728" y="1136"/>
      <point x="933" y="935"/>
      <point x="933" y="738" type="qcurve" smooth="yes"/>
      <point x="933" y="541"/>
      <point x="728" y="342"/>
      <point x="538" y="342" type="qcurve" smooth="yes"/>
      <point x="278" y="342" type="line"/>
      <point x="278" y="0" type="line"/>
      <point x="170" y="0" type="line"/>
    </contour>
    <contour>
      <point x="538" y="1040" type="qcurve" smooth="yes"/>
      <point x="278" y="1040" type="line"/>
      <point x="278" y="438" type="line"/>
      <point x="538" y="438" type="line" smooth="yes"/>
      <point x="689" y="438"/>
      <point x="824" y="604"/>
      <point x="824" y="736" type="qcurve" smooth="yes"/>
      <point x="824" y="896"/>
      <point x="689" y="1040"/>
    </contour>
  </outline>
</glyph>
<glyph name="germandbls" format="2">
  <advance width="1039"/>
  <unicode hex="00DF"/>
  <outline>
    <contour>
      <point x="256" y="1092" type="qcurve" name="hr00"/>
      <point x="256" y="0" type="line"/>
      <point x="148" y="0" type="line"/>
      <point x="148" y="1092" type="line" smooth="yes"/>
      <point x="148" y="1295"/>
      <point x="307" y="1534"/>
      <point x="459" y="1534" type="qcurve" smooth="yes"/>
      <point x="584" y="1534"/>
      <point x="755" y="1351"/>
      <point x="755" y="1182" type="qcurve" smooth="yes"/>
      <point x="755" y="1062"/>
      <point x="697" y="905"/>
      <point x="666" y="848" type="qcurve" smooth="yes"/>
      <point x="647" y="812"/>
      <point x="594" y="728"/>
      <point x="594" y="685" type="qcurve" smooth="yes"/>
      <point x="594" y="647"/>
      <point x="660" y="595"/>
      <point x="770" y="547" type="qcurve" smooth="yes"/>
      <point x="905" y="489"/>
      <point x="991" y="375"/>
      <point x="991" y="280" type="qcurve" smooth="yes"/>
      <point x="991" y="147"/>
      <point x="808" y="-20"/>
      <point x="658" y="-20" type="qcurve" smooth="yes"/>
      <point x="523" y="-20"/>
      <point x="346" y="115"/>
      <point x="346" y="275" type="qcurve" smooth="yes"/>
      <point x="346" y="304" type="line"/>
      <point x="447" y="304" type="line"/>
      <point x="447" y="259" type="line" smooth="yes"/>
      <point x="447" y="160"/>
      <point x="580" y="77"/>
      <point x="668" y="77" type="qcurve" smooth="yes"/>
      <point x="758" y="77"/>
      <point x="886" y="155"/>
      <point x="886" y="234" type="qcurve" smooth="yes"/>
      <point x="886" y="317"/>
      <point x="830" y="410"/>
      <point x="724" y="459" type="qcurve" smooth="yes"/>
      <point x="605" y="508"/>
      <point x="481" y="601"/>
      <point x="481" y="656" type="qcurve" smooth="yes"/>
      <point x="481" y="718"/>
      <point x="547" y="839"/>
      <point x="571" y="882" type="qcurve" smooth="yes"/>
      <point x="603" y="937"/>
      <point x="652" y="1086"/>
      <point x="652" y="1192" type="qcurve" smooth="yes"/>
      <point x="652" y="1330"/>
      <point x="557" y="1432"/>
      <point x="468" y="1432" type="qcurve" smooth="yes"/>
      <point x="373" y="1432"/>
      <point x="256" y="1289"/>
    </contour>
  </outline>
</glyph>
<glyph name="ae" format="2">
  <advance width="1470"/>
  <unicode hex="00E6"/>
  <outline>
    <contour>
      <point x="199" y="264" type="qcurve" smooth="yes"/>
      <point x="199" y="173"/>
      <point x="295" y="74"/>
      <point x="397" y="74" type="qcurve" smooth="yes"/>
      <point x="500" y="74"/>
      <point x="666" y="234"/>
      <point x="666" y="326" type="qcurve"/>
      <point x="666" y="458" type="line"/>
      <point x="464" y="458" type="line" smooth="yes"/>
      <point x="333" y="458"/>
      <point x="199" y="351"/>
    </contour>
    <contour>
      <point x="90" y="263" type="qcurve" smooth="yes"/>
      <point x="90" y="392"/>
      <point x="291" y="545"/>
      <point x="445" y="545" type="qcurve" smooth="yes"/>
      <point x="666" y="545" type="line"/>
      <point x="666" y="616" type="line" smooth="yes"/>
      <point x="666" y="721"/>
      <point x="575" y="849"/>
      <point x="464" y="849" type="qcurve" smooth="yes"/>
      <point x="353" y="849"/>
      <point x="257" y="739"/>
      <point x="257" y="666" type="qcurve" smooth="yes"/>
      <point x="257" y="661" type="line"/>
      <point x="152" y="661" type="line"/>
      <point x="152" y="666" type="line" smooth="yes"/>
      <point x="152" y="780"/>
      <point x="318" y="944"/>
      <point x="470" y="944" type="qcurve" smooth="yes"/>
      <point x="575" y="944"/>
      <point x="699" y="862"/>
      <point x="737" y="751" type="qcurve"/>
      <point x="780" y="850"/>
      <point x="943" y="944"/>
      <point x="1041" y="944" type="qcurve" smooth="yes"/>
      <point x="1212" y="944"/>
      <point x="1394" y="699"/>
      <point x="1394" y="491" type="qcurve" smooth="yes"/>
      <point x="1394" y="442" type="line"/>
      <point x="727" y="442" type="line"/>
      <point x="727" y="536" type="line"/>
      <point x="1283" y="536" type="line"/>
      <point x="1282" y="536" type="line"/>
      <point x="1283" y="663"/>
      <point x="1178" y="848"/>
      <point x="1050" y="848" type="qcurve" smooth="yes"/>
      <point x="913" y="848"/>
      <point x="776" y="632"/>
      <point x="776" y="473" type="qcurve" smooth="yes"/>
      <point x="776" y="441" type="line" smooth="yes"/>
      <point x="776" y="282"/>
      <point x="923" y="66"/>
      <point x="1071" y="66" type="qcurve" smooth="yes"/>
      <point x="1162" y="66"/>
      <point x="1295" y="173"/>
      <point x="1335" y="252" type="qcurve"/>
      <point x="1406" y="196" type="line"/>
      <point x="1366" y="110"/>
      <point x="1195" y="-30"/>
      <point x="1068" y="-30" type="qcurve" smooth="yes"/>
      <point x="907" y="-30"/>
      <point x="727" y="133"/>
      <point x="704" y="258" type="qcurve"/>
      <point x="658" y="125"/>
      <point x="486" y="-20"/>
      <point x="397" y="-20" type="qcurve" smooth="yes"/>
      <point x="270" y="-20"/>
      <point x="90" y="121"/>
    </contour>
  </outline>
</glyph>
<glyph name="eth" format="2">
  <advance width="926"/>
  <unicode hex="00F0"/>
  <outline>
    <contour>
      <point x="142" y="1471" type="qcurve"/>
      <point x="182" y="1580" type="line"/>
      <point x="502" y="1503"/>
      <point x="841" y="1006"/>
      <point x="841" y="633" type="qcurve"/>
      <point x="841" y="498" type="line"/>
      <point x="841" y="254"/>
      <point x="629" y="-20"/>
      <point x="467" y="-20" type="qcurve" smooth="yes"/>
      <point x="298" y="-20"/>
      <point x="85" y="233"/>
      <point x="85" y="436" type="qcurve" smooth="yes"/>
      <point x="85" y="647"/>
      <point x="299" y="912"/>
      <point x="460" y="912" type="qcurve" smooth="yes"/>
      <point x="602" y="912"/>
      <point x="804" y="697"/>
      <point x="806" y="536" type="qcurve"/>
      <point x="746" y="536" type="line"/>
      <point x="746" y="621"/>
      <point x="598" y="810"/>
      <point x="477" y="810" type="qcurve" smooth="yes"/>
      <point x="336" y="810"/>
      <point x="195" y="589"/>
      <point x="195" y="439" type="qcurve" smooth="yes"/>
      <point x="195" y="277"/>
      <point x="337" y="83"/>
      <point x="472" y="83" type="qcurve" smooth="yes"/>
      <point x="592" y="83"/>
      <point x="733" y="314"/>
      <point x="733" y="535" type="qcurve" smooth="yes"/>
      <point x="733" y="635" type="line" smooth="yes"/>
      <point x="733" y="989"/>
      <point x="432" y="1399"/>
    </contour>
    <contour>
      <point x="794" y="1445" type="line"/>
      <point x="276" y="1082" type="line"/>
      <point x="215" y="1168" type="line"/>
      <point x="734" y="1529" type="line"/>
    </contour>
  </outline>
</glyph>
<glyph name="divide" format="2">
  <advance width="1024"/>
  <unicode hex="00F7"/>
  <outline>
    <contour>
      <point x="406" y="1046" type="qcurve" smooth="yes"/>
      <point x="406" y="1091"/>
      <point x="459" y="1150"/>
      <point x="511" y="1150" type="qcurve" smooth="yes"/>
      <point x="562" y="1150"/>
      <point x="617" y="1091"/>
      <point x="617" y="1046" type="qcurve" smooth="yes"/>
      <point x="617" y="1003"/>
      <point x="562" y="945"/>
      <point x="511" y="945" type="qcurve" smooth="yes"/>
      <point x="459" y="945"/>
      <point x="406" y="1003"/>
    </contour>
    <contour>
      <point x="406" y="307" type="qcurve" smooth="yes"/>
      <point x="406" y="351"/>
      <point x="459" y="411"/>
      <point x="511" y="411" type="qcurve" smooth="yes"/>
      <point x="562" y="411"/>
      <point x="617" y="351"/>
      <point x="617" y="307" type="qcurve" smooth="yes"/>
      <point x="617" y="264"/>
      <point x="562" y="205"/>
      <point x="511" y="205" type="qcurve" smooth="yes"/>
      <point x="459" y="205"/>
      <point x="406" y="264"/>
    </contour>
    <contour>
      <point x="57" y="620" type="line"/>
      <point x="57" y="729" type="line"/>
      <point x="967" y="729" type="line"/>
      <point x="967" y="620" type="line"/>
    </contour>
  </outline>
</glyph>
<glyph name="thorn" format="2">
  <advance width="976"/>
  <unicode hex="00FE"/>
  <outline>
    <contour>
      <point x="148" y="-445" type="line"/>
      <point x="148" y="1536" type="line"/>
      <point x="256" y="1536" type="line"/>
      <point x="256" y="769" type="line"/>
      <point x="294" y="842"/>
      <point x="426" y="932"/>
      <point x="519" y="932" type="qcurve" smooth="yes"/>
      <point x="688" y="932"/>
      <point x="891" y="670"/>
      <point x="891" y="470" type="qcurve" smooth="yes"/>
      <point x="891" y="442" type="line" smooth="yes"/>
      <point x="891" y="241"/>
      <point x="688" y="-20"/>
      <point x="519" y="-20" type="qcurve" smooth="yes"/>
      <point x="426" y="-20"/>
      <point x="286" y="67"/>
      <point x="254" y="131" type="qcurve"/>
      <point x="256" y="131" type="line"/>
      <point x="255" y="-445" type="line"/>
    </contour>
    <contour>
      <point x="256" y="251" type="line"/>
      <point x="290" y="174"/>
      <point x="416" y="77"/>
      <point x="509" y="77" type="qcurve" smooth="yes"/>
      <point x="642" y="77"/>
      <point x="780" y="265"/>
      <point x="780" y="442" type="qcurve" smooth="yes"/>
      <point x="780" y="468" type="line" smooth="yes"/>
      <point x="780" y="640"/>
      <point x="639" y="836"/>
      <point x="509" y="836" type="qcurve" smooth="yes"/>
      <point x="416" y="836"/>
      <point x="295" y="746"/>
      <point x="256" y="700" type="qcurve"/>
    </contour>
  </outline>
</glyph>
<glyph name="gcommaaccent" format="2">
  <advance width="975"/>
  <unicode hex="0123"/>
  <outline>
    <contour>
      <point x="120" y="-283" type="qcurve"/>
      <point x="144" y="-196" type="line"/>
      <point x="186" y="-248"/>
      <point x="343" y="-335"/>
      <point x="433" y="-335" type="qcurve" smooth="yes"/>
      <point x="573" y="-335"/>
      <point x="718" y="-149"/>
      <point x="718" y="20" type="qcurve" smooth="yes"/>
      <point x="718" y="119" type="line"/>
      <point x="676" y="57"/>
      <point x="537" y="-20"/>
      <point x="442" y="-20" type="qcurve" smooth="yes"/>
      <point x="275" y="-20"/>
      <point x="85" y="241"/>
      <point x="85" y="441" type="qcurve" smooth="yes"/>
      <point x="85" y="473" type="line" smooth="yes"/>
      <point x="85" y="673"/>
      <point x="275" y="934"/>
      <point x="442" y="934" type="qcurve" smooth="yes"/>
      <point x="537" y="934"/>
      <point x="685" y="844"/>
      <point x="722" y="781" type="qcurve"/>
      <point x="726" y="781" type="line"/>
      <point x="729" y="914" type="line"/>
      <point x="827" y="914" type="line"/>
      <point x="827" y="20" type="line" smooth="yes"/>
      <point x="827" y="-200"/>
      <point x="618" y="-436"/>
      <point x="450" y="-436" type="qcurve" smooth="yes"/>
      <point x="349" y="-436"/>
      <point x="179" y="-350"/>
    </contour>
    <contour>
      <point x="195" y="441" type="line" smooth="yes"/>
      <point x="195" y="286"/>
      <point x="326" y="76"/>
      <point x="466" y="76" type="qcurve" smooth="yes"/>
      <point x="559" y="76"/>
      <point x="689" y="183"/>
      <point x="718" y="251" type="qcurve"/>
      <point x="718" y="663" type="line"/>
      <point x="689" y="731"/>
      <point x="559" y="838"/>
      <point x="466" y="838" type="qcurve" smooth="yes"/>
      <point x="326" y="838"/>
      <point x="195" y="627"/>
      <point x="195" y="473" type="qcurve" smooth="yes"/>
    </contour>
    <contour>
      <point x="615" y="1525" type="line"/>
      <point x="591" y="1433"/>
      <point x="550" y="1285"/>
      <point x="518" y="1153" type="qcurve"/>
      <point x="410" y="1151" type="line"/>
      <point x="522" y="1528" type="line"/>
    </contour>
  </outline>
</glyph>
<glyph name="idotless" format="2">
  <advance width="422"/>
  <unicode hex="0131"/>
  <outline>
    <contour>
      <point x="157" y="0" type="line"/>
      <point x="157" y="914" type="line"/>
      <point x="265" y="914" type="line"/>
      <point x="265" y="0" type="line"/>
    </contour>
  </outline>
</glyph>
<glyph name="kgreenlandic" format="2">
  <advance width="966"/>
  <unicode hex="0138"/>
  <outline>
    <contour>
      <point x="263" y="914" type="line"/>
      <point x="263" y="0" type="line"/>
      <point x="155" y="0" type="line"/>
      <point x="155" y="914" type="line"/>
    </contour>
    <contour>
      <point x="911" y="914" type="line"/>
      <point x="419" y="411" type="line"/>
      <point x="210" y="411" type="line"/>
      <point x="210" y="523" type="line"/>
      <point x="371" y="523" type="line"/>
      <point x="761" y="914" type="line"/>
    </contour>
    <contour>
      <point x="792" y="0" type="line"/>
      <point x="331" y="450" type="line"/>
      <point x="420" y="510" type="line"/>
      <point x="929" y="0" type="line"/>
    </contour>
  </outline>
</glyph>
<glyph name="OE" format="2">
  <advance width="1667"/>
  <unicode hex="0152"/>
  <outline>
    <contour>
      <point x="642" y="1477" type="qcurve" smooth="yes"/>
      <point x="672" y="1477"/>
      <point x="808" y="1464"/>
      <point x="869" y="1456" type="qcurve"/>
      <point x="1589" y="1456" type="line"/>
      <point x="1589" y="1357" type="line"/>
      <point x="903" y="1357" type="line"/>
      <point x="903" y="800" type="line"/>
      <point x="1497" y="800" type="line"/>
      <point x="1497" y="702" type="line"/>
      <point x="903" y="702" type="line"/>
      <point x="903" y="98" type="line"/>
      <point x="1599" y="98" type="line"/>
      <point x="1599" y="0" type="line"/>
      <point x="869" y="0" type="line"/>
      <point x="808" y="-7"/>
      <point x="674" y="-21"/>
      <point x="606" y="-21" type="qcurve" smooth="yes"/>
      <point x="415" y="-21"/>
      <point x="115" y="340"/>
      <point x="115" y="682" type="qcurve" smooth="yes"/>
      <point x="115" y="772" type="line" smooth="yes"/>
      <point x="115" y="1105"/>
      <point x="413" y="1477"/>
    </contour>
    <contour>
      <point x="228" y="682" type="line" smooth="yes"/>
      <point x="228" y="369"/>
      <point x="451" y="71"/>
      <point x="620" y="71" type="qcurve" smooth="yes"/>
      <point x="673" y="71"/>
      <point x="753" y="80"/>
      <point x="791" y="86" type="qcurve"/>
      <point x="791" y="1367" type="line"/>
      <point x="739" y="1374"/>
      <point x="644" y="1382"/>
      <point x="622" y="1382" type="qcurve" smooth="yes"/>
      <point x="448" y="1382"/>
      <point x="228" y="1079"/>
      <point x="228" y="774" type="qcurve" smooth="yes"/>
    </contour>
  </outline>
</glyph>
<glyph name="oe" format="2">
  <advance width="1592"/>
  <unicode hex="0153"/>
  <outline>
    <contour>
      <point x="195" y="473" type="qcurve" smooth="yes"/>
      <point x="195" y="441" type="line" smooth="yes"/>
      <point x="195" y="283"/>
      <point x="339" y="66"/>
      <point x="481" y="66" type="qcurve" smooth="yes"/>
      <point x="623" y="66"/>
      <point x="767" y="284"/>
      <point x="767" y="441" type="qcurve" smooth="yes"/>
      <point x="767" y="473" type="line" smooth="yes"/>
      <point x="767" y="630"/>
      <point x="623" y="848"/>
      <point x="481" y="848" type="qcurve" smooth="yes"/>
      <point x="339" y="848"/>
      <point x="195" y="630"/>
    </contour>
    <contour>
      <point x="823" y="704" type="qcurve"/>
      <point x="875" y="815"/>
      <point x="1031" y="944"/>
      <point x="1115" y="944" type="qcurve" smooth="yes"/>
      <point x="1314" y="944"/>
      <point x="1497" y="699"/>
      <point x="1497" y="491" type="qcurve" smooth="yes"/>
      <point x="1497" y="442" type="line"/>
      <point x="826" y="442" type="line"/>
      <point x="830" y="536" type="line"/>
      <point x="1386" y="536" type="line"/>
      <point x="1385" y="536" type="line"/>
      <point x="1386" y="657"/>
      <point x="1286" y="848"/>
      <point x="1144" y="848" type="qcurve" smooth="yes"/>
      <point x="1016" y="848"/>
      <point x="879" y="631"/>
      <point x="879" y="473" type="qcurve" smooth="yes"/>
      <point x="879" y="441" type="line" smooth="yes"/>
      <point x="879" y="283"/>
      <point x="1031" y="66"/>
      <point x="1185" y="66" type="qcurve" smooth="yes"/>
      <point x="1269" y="66"/>
      <point x="1394" y="166"/>
      <point x="1438" y="254" type="qcurve"/>
      <point x="1510" y="194" type="line"/>
      <point x="1459" y="91"/>
      <point x="1291" y="-30"/>
      <point x="1154" y="-30" type="qcurve" smooth="yes"/>
      <point x="1069" y="-30"/>
      <point x="883" y="77"/>
      <point x="823" y="222" type="qcurve"/>
      <point x="777" y="112"/>
      <point x="614" y="-30"/>
      <point x="510" y="-30" type="qcurve" smooth="yes"/>
      <point x="299" y="-30"/>
      <point x="85" y="233"/>
      <point x="85" y="441" type="qcurve" smooth="yes"/>
      <point x="85" y="473" type="line" smooth="yes"/>
      <point x="85" y="681"/>
      <point x="305" y="944"/>
      <point x="494" y="944" type="qcurve" smooth="yes"/>
      <point x="598" y="944"/>
      <point x="763" y="844"/>
    </contour>
  </outline>
</glyph>
<glyph name="Schwa" format="2">
  <advance width="1239"/>
  <unicode hex="018F"/>
  <outline>
    <contour>
      <point x="73" y="1191" type="line"/>
      <point x="145" y="1333"/>
      <point x="407" y="1519"/>
      <point x="629" y="1519" type="qcurve" smooth="yes"/>
      <point x="842" y="1519"/>
      <point x="1159" y="1127"/>
      <point x="1159" y="775" type="qcurve" smooth="yes"/>
      <point x="1159" y="401"/>
      <point x="848" y="-30"/>
      <point x="597" y="-30" type="qcurve" smooth="yes"/>
      <point x="353" y="-30"/>
      <point x="101" y="281"/>
      <point x="101" y="578" type="qcurve" smooth="yes"/>
      <point x="101" y="670" type="line"/>
      <point x="1086" y="670" type="line"/>
      <point x="1080" y="570" type="line"/>
      <point x="591" y="578" type="line"/>
      <point x="214" y="572" type="line"/>
      <point x="214" y="499" type="line" smooth="yes"/>
      <point x="214" y="288"/>
      <point x="410" y="59"/>
      <point x="599" y="59" type="qcurve" smooth="yes"/>
      <point x="805" y="59"/>
      <point x="1052" y="424"/>
      <point x="1051" y="749" type="qcurve" smooth="yes"/>
      <point x="1050" y="1068"/>
      <point x="787" y="1425"/>
      <point x="587" y="1425" type="qcurve" smooth="yes"/>
      <point x="417" y="1425"/>
      <point x="198" y="1257"/>
      <point x="143" y="1146" type="qcurve"/>
    </contour>
  </outline>
</glyph>
<glyph name="florin" format="2">
  <advance width="1024"/>
  <unicode hex="0192"/>
  <outline>
    <contour>
      <point x="868" y="855" type="line"/>
      <point x="868" y="762" type="line"/>
      <point x="517" y="762" type="line"/>
      <point x="517" y="111" type="line" smooth="yes"/>
      <point x="517" y="-175"/>
      <point x="307" y="-437"/>
      <point x="103" y="-437" type="qcurve" smooth="yes"/>
      <point x="72" y="-437"/>
      <point x="19" y="-430"/>
      <point x="-9" y="-420" type="qcurve"/>
      <point x="5" y="-326" type="line"/>
      <point x="20" y="-332"/>
      <point x="89" y="-339"/>
      <point x="103" y="-339" type="qcurve" smooth="yes"/>
      <point x="251" y="-339"/>
      <point x="408" y="-147"/>
      <point x="408" y="111" type="qcurve" smooth="yes"/>
      <point x="408" y="762" type="line"/>
      <point x="129" y="762" type="line"/>
      <point x="129" y="855" type="line"/>
      <point x="408" y="855" type="line"/>
      <point x="408" y="1126" type="line" smooth="yes"/>
      <point x="408" y="1316"/>
      <point x="576" y="1487"/>
      <point x="708" y="1487" type="qcurve" smooth="yes"/>
      <point x="794" y="1487"/>
      <point x="923" y="1434"/>
      <point x="963" y="1404" type="qcurve"/>
      <point x="904" y="1311" type="line"/>
      <point x="865" y="1342"/>
      <point x="759" y="1375"/>
      <point x="703" y="1375" type="qcurve" smooth="yes"/>
      <point x="626" y="1375"/>
      <point x="517" y="1280"/>
      <point x="517" y="1181" type="qcurve" smooth="yes"/>
      <point x="517" y="855" type="line"/>
    </contour>
  </outline>
</glyph>
<glyph name="schwa" format="2">
  <advance width="909"/>
  <unicode hex="0259"/>
  <outline>
    <contour>
      <point x="824" y="472" type="qcurve" smooth="yes"/>
      <point x="824" y="443" type="line" smooth="yes"/>
      <point x="824" y="235"/>
      <point x="617" y="-30"/>
      <point x="447" y="-30" type="qcurve" smooth="yes"/>
      <point x="279" y="-30"/>
      <point x="96" y="224"/>
      <point x="96" y="451" type="qcurve" smooth="yes"/>
      <point x="96" y="499" type="line"/>
      <point x="764" y="499" type="line"/>
      <point x="764" y="406" type="line"/>
      <point x="206" y="406" type="line"/>
      <point x="206" y="403" type="line"/>
      <point x="206" y="262"/>
      <point x="313" y="66"/>
      <point x="449" y="66" type="qcurve" smooth="yes"/>
      <point x="578" y="66"/>
      <point x="714" y="286"/>
      <point x="714" y="447" type="qcurve" smooth="yes"/>
      <point x="714" y="474" type="line" smooth="yes"/>
      <point x="714" y="635"/>
      <point x="570" y="855"/>
      <point x="418" y="855" type="qcurve" smooth="yes"/>
      <point x="336" y="855"/>
      <point x="202" y="768"/>
      <point x="155" y="693" type="qcurve"/>
      <point x="84" y="745" type="line"/>
      <point x="133" y="839"/>
      <point x="303" y="945"/>
      <point x="418" y="945" type="qcurve" smooth="yes"/>
      <point x="614" y="945"/>
      <point x="824" y="680"/>
    </contour>
  </outline>
</glyph>
<glyph name="primemod" format="2">
  <advance width="600"/>
  <unicode hex="02B9"/>
  <outline>
    <contour>
      <point x="259" y="1502" type="line"/>
      <point x="384" y="1502" type="line"/>
      <point x="272" y="991" type="line"/>
      <point x="190" y="996" type="line"/>
    </contour>
  </outline>
</glyph>
<glyph name="doubleprimemod" format="2">
  <advance width="788"/>
  <unicode hex="02BA"/>
  <outline>
    <contour>
      <point x="259" y="1502" type="line"/>
      <point x="384" y="1502" type="line"/>
      <point x="271" y="1004" type="line"/>
      <point x="197" y="1009" type="line"/>
    </contour>
    <contour>
      <point x="559" y="1502" type="line"/>
      <point x="684" y="1502" type="line"/>
      <point x="571" y="1004" type="line"/>
      <point x="497" y="1009" type="line"/>
    </contour>
  </outline>
</glyph>
<glyph name="apostrophemod" format="2">
  <advance width="600"/>
  <unicode hex="02BC"/>
  <outline>
    <contour>
      <point x="166" y="1050" type="line"/>
      <point x="203" y="1074"/>
      <point x="336" y="1227"/>
      <point x="352" y="1324" type="qcurve"/>
      <point x="271" y="1323"/>
      <point x="203" y="1386"/>
      <point x="203" y="1435" type="qcurve" smooth="yes"/>
      <point x="203" y="1483"/>
      <point x="271" y="1546"/>
      <point x="320" y="1546" type="qcurve" smooth="yes"/>
      <point x="379" y="1546"/>
      <point x="456" y="1466"/>
      <point x="456" y="1403" type="qcurve" smooth="yes"/>
      <point x="456" y="1286"/>
      <point x="303" y="1063"/>
      <point x="198" y="1013" type="qcurve"/>
    </contour>
  </outline>
</glyph>
<glyph name="circumflex" format="2">
  <advance width="1024"/>
  <unicode hex="02C6"/>
  <outline>
    <contour>
      <point x="550" y="1532" type="line"/>
      <point x="816" y="1219" type="line"/>
      <point x="710" y="1219" type="line"/>
      <point x="512" y="1437" type="line"/>
      <point x="316" y="1219" type="line"/>
      <point x="211" y="1219" type="line"/>
      <point x="474" y="1532" type="line"/>
    </contour>
  </outline>
</glyph>
<glyph name="caron" format="2">
  <advance width="1024"/>
  <unicode hex="02C7"/>
  <outline>
    <contour>
      <point x="477" y="1219" type="line"/>
      <point x="211" y="1532" type="line"/>
      <point x="317" y="1532" type="line"/>
      <point x="515" y="1315" type="line"/>
      <point x="711" y="1532" type="line"/>
      <point x="816" y="1532" type="line"/>
      <point x="553" y="1219" type="line"/>
    </contour>
  </outline>
</glyph>
<glyph name="breve" format="2">
  <advance width="1022"/>
  <unicode hex="02D8"/>
  <outline>
    <contour>
      <point x="787" y="1499" type="qcurve"/>
      <point x="849" y="1464" type="line"/>
      <point x="814" y="1365"/>
      <point x="639" y="1198"/>
      <point x="513" y="1198" type="qcurve" smooth="yes"/>
      <point x="400" y="1198"/>
      <point x="219" y="1351"/>
      <point x="177" y="1465" type="qcurve"/>
      <point x="245" y="1500" type="line"/>
      <point x="275" y="1424"/>
      <point x="426" y="1302"/>
      <point x="514" y="1302" type="qcurve" smooth="yes"/>
      <point x="604" y="1302"/>
      <point x="746" y="1421"/>
    </contour>
  </outline>
</glyph>
<glyph name="dotaccent" format="2">
  <advance width="988"/>
  <unicode hex="02D9"/>
  <outline>
    <contour>
      <point x="391" y="1349" type="qcurve" smooth="yes"/>
      <point x="391" y="1386"/>
      <point x="449" y="1449"/>
      <point x="494" y="1449" type="qcurve" smooth="yes"/>
      <point x="538" y="1449"/>
      <point x="596" y="1386"/>
      <point x="596" y="1349" type="qcurve" smooth="yes"/>
      <point x="596" y="1313"/>
      <point x="538" y="1251"/>
      <point x="494" y="1251" type="qcurve" smooth="yes"/>
      <point x="449" y="1251"/>
      <point x="391" y="1313"/>
    </contour>
  </outline>
</glyph>
<glyph name="ring" format="2">
  <advance width="1024"/>
  <unicode hex="02DA"/>
  <outline>
    <contour>
      <point x="304" y="1434" type="qcurve"/>
      <point x="304" y="1517"/>
      <point x="424" y="1636"/>
      <point x="512" y="1636" type="qcurve" smooth="yes"/>
      <point x="598" y="1636"/>
      <point x="720" y="1517"/>
      <point x="720" y="1434" type="qcurve" smooth="yes"/>
      <point x="720" y="1350"/>
      <point x="598" y="1236"/>
      <point x="512" y="1236" type="qcurve" smooth="yes"/>
      <point x="424" y="1236"/>
      <point x="304" y="1350"/>
    </contour>
    <contour>
      <point x="385" y="1434" type="qcurve"/>
      <point x="385" y="1386"/>
      <point x="456" y="1309"/>
      <point x="512" y="1309" type="qcurve" smooth="yes"/>
      <point x="568" y="1309"/>
      <point x="639" y="1384"/>
      <point x="639" y="1434" type="qcurve" smooth="yes"/>
      <point x="639" y="1484"/>
      <point x="568" y="1563"/>
      <point x="512" y="1563" type="qcurve" smooth="yes"/>
      <point x="456" y="1563"/>
      <point x="385" y="1484"/>
    </contour>
  </outline>
</glyph>
<glyph name="ogonek" format="2">
  <advance width="1024"/>
  <unicode hex="02DB"/>
  <outline>
    <contour>
      <point x="537" y="54" type="qcurve"/>
      <point x="591" y="12" type="line"/>
      <point x="509" y="-31"/>
      <point x="399" y="-157"/>
      <point x="399" y="-230" type="qcurve" smooth="yes"/>
      <point x="399" y="-289"/>
      <point x="453" y="-341"/>
      <point x="501" y="-341" type="qcurve" smooth="yes"/>
      <point x="538" y="-341"/>
      <point x="601" y="-315"/>
      <point x="617" y="-305" type="qcurve"/>
      <point x="628" y="-390" type="line"/>
      <point x="603" y="-405"/>
      <point x="526" y="-434"/>
      <point x="476" y="-434" type="qcurve" smooth="yes"/>
      <point x="398" y="-434"/>
      <point x="301" y="-336"/>
      <point x="301" y="-243" type="qcurve" smooth="yes"/>
      <point x="301" y="-163"/>
      <point x="409" y="-11"/>
    </contour>
  </outline>
</glyph>
<glyph name="tilde" format="2">
  <advance width="1024"/>
  <unicode hex="02DC"/>
  <outline>
    <contour>
      <point x="167" y="1310" type="line"/>
      <point x="210" y="1381"/>
      <point x="325" y="1457"/>
      <point x="383" y="1457" type="qcurve" smooth="yes"/>
      <point x="430" y="1457"/>
      <point x="516" y="1421"/>
      <point x="554" y="1397" type="qcurve" smooth="yes"/>
      <point x="588" y="1375"/>
      <point x="677" y="1334"/>
      <point x="715" y="1334" type="qcurve" smooth="yes"/>
      <point x="755" y="1334"/>
      <point x="826" y="1393"/>
      <point x="848" y="1434" type="qcurve"/>
      <point x="896" y="1381" type="line"/>
      <point x="867" y="1323"/>
      <point x="763" y="1249"/>
      <point x="696" y="1249" type="qcurve" smooth="yes"/>
      <point x="646" y="1249"/>
      <point x="554" y="1293"/>
      <point x="520" y="1313" type="qcurve" smooth="yes"/>
      <point x="482" y="1335"/>
      <point x="400" y="1368"/>
      <point x="362" y="1368" type="qcurve" smooth="yes"/>
      <point x="315" y="1368"/>
      <point x="242" y="1301"/>
      <point x="214" y="1261" type="qcurve"/>
    </contour>
  </outline>
</glyph>
<glyph name="hungarumlaut" format="2">
  <advance width="1024"/>
  <unicode hex="02DD"/>
  <outline>
    <contour>
      <point x="298" y="1257" type="line"/>
      <point x="506" y="1584" type="line"/>
      <point x="592" y="1520" type="line"/>
      <point x="350" y="1204" type="line"/>
    </contour>
    <contour>
      <point x="608" y="1257" type="line"/>
      <point x="816" y="1584" type="line"/>
      <point x="902" y="1521" type="line"/>
      <point x="660" y="1204" type="line"/>
    </contour>
  </outline>
</glyph>
<glyph name="hookabovecomb" format="2">
  <advance width="1024"/>
  <unicode hex="0309"/>
  <outline>
    <contour>
      <point x="470" y="1219" type="line"/>
      <point x="470" y="1266" type="line" smooth="yes"/>
      <point x="470" y="1330"/>
      <point x="520" y="1377"/>
      <point x="594" y="1386" type="qcurve" smooth="yes"/>
      <point x="663" y="1394"/>
      <point x="721" y="1453"/>
      <point x="721" y="1494" type="qcurve" smooth="yes"/>
      <point x="721" y="1538"/>
      <point x="650" y="1598"/>
      <point x="573" y="1598" type="qcurve" smooth="yes"/>
      <point x="508" y="1598"/>
      <point x="398" y="1564"/>
      <point x="368" y="1550" type="qcurve"/>
      <point x="333" y="1631" type="line"/>
      <point x="367" y="1650"/>
      <point x="514" y="1691"/>
      <point x="603" y="1691" type="qcurve" smooth="yes"/>
      <point x="702" y="1691"/>
      <point x="830" y="1588"/>
      <point x="830" y="1500" type="qcurve" smooth="yes"/>
      <point x="830" y="1406"/>
      <point x="705" y="1301"/>
      <point x="561" y="1289" type="qcurve"/>
      <point x="561" y="1219" type="line"/>
    </contour>
  </outline>
</glyph>
<glyph name="horncomb" format="2">
  <advance width="1024"/>
  <unicode hex="031B"/>
  <outline>
    <contour>
      <point x="0" y="1052" type="line"/>
      <point x="108" y="1052" type="line" smooth="yes"/>
      <point x="168" y="1052"/>
      <point x="241" y="1086"/>
      <point x="241" y="1138" type="qcurve" smooth="yes"/>
      <point x="241" y="1184"/>
      <point x="226" y="1256"/>
      <point x="213" y="1293" type="qcurve"/>
      <point x="296" y="1293" type="line"/>
      <point x="314" y="1260"/>
      <point x="342" y="1166"/>
      <point x="342" y="1114" type="qcurve" smooth="yes"/>
      <point x="342" y="1041"/>
      <point x="238" y="966"/>
      <point x="143" y="966" type="qcurve" smooth="yes"/>
      <point x="103" y="966"/>
      <point x="31" y="972"/>
      <point x="0" y="979" type="qcurve"/>
    </contour>
  </outline>
</glyph>
<glyph name="dotbelowcomb" format="2">
  <advance width="988"/>
  <unicode hex="0323"/>
  <outline>
    <contour>
      <point x="394" y="-272" type="qcurve" smooth="yes"/>
      <point x="394" y="-223"/>
      <point x="444" y="-173"/>
      <point x="494" y="-173" type="qcurve" smooth="yes"/>
      <point x="539" y="-173"/>
      <point x="594" y="-228"/>
      <point x="594" y="-272" type="qcurve" smooth="yes"/>
      <point x="594" y="-322"/>
      <point x="544" y="-372"/>
      <point x="494" y="-372" type="qcurve" smooth="yes"/>
      <point x="449" y="-372"/>
      <point x="394" y="-318"/>
    </contour>
  </outline>
</glyph>
<glyph name="dieresisbelowcomb" format="2">
  <advance width="997"/>
  <unicode hex="0324"/>
  <outline>
    <contour>
      <point x="166" y="-315" type="qcurve" smooth="yes"/>
      <point x="166" y="-267"/>
      <point x="219" y="-214"/>
      <point x="268" y="-214" type="qcurve" smooth="yes"/>
      <point x="315" y="-214"/>
      <point x="371" y="-270"/>
      <point x="371" y="-315" type="qcurve" smooth="yes"/>
      <point x="371" y="-363"/>
      <point x="319" y="-415"/>
      <point x="268" y="-415" type="qcurve" smooth="yes"/>
      <point x="222" y="-415"/>
      <point x="166" y="-360"/>
    </contour>
    <contour>
      <point x="626" y="-315" type="qcurve" smooth="yes"/>
      <point x="626" y="-267"/>
      <point x="679" y="-214"/>
      <point x="728" y="-214" type="qcurve" smooth="yes"/>
      <point x="775" y="-214"/>
      <point x="831" y="-270"/>
      <point x="831" y="-315" type="qcurve" smooth="yes"/>
      <point x="831" y="-363"/>
      <point x="779" y="-415"/>
      <point x="728" y="-415" type="qcurve" smooth="yes"/>
      <point x="682" y="-415"/>
      <point x="626" y="-360"/>
    </contour>
  </outline>
</glyph>
<glyph name="commaaccentcomb" format="2">
  <advance width="1024"/>
  <unicode hex="0326"/>
  <outline>
    <contour>
      <point x="402" y="-597" type="line"/>
      <point x="421" y="-502"/>
      <point x="452" y="-357"/>
      <point x="478" y="-225" type="qcurve"/>
      <point x="604" y="-223" type="line"/>
      <point x="501" y="-599" type="line"/>
    </contour>
  </outline>
</glyph>
<glyph name="numeralsign" format="2">
  <advance width="556"/>
  <unicode hex="0374"/>
  <outline>
    <contour>
      <point x="171" y="1077" type="line"/>
      <point x="96" y="1096" type="line"/>
      <point x="207" y="1552" type="line"/>
      <point x="319" y="1536" type="line"/>
    </contour>
  </outline>
</glyph>
<glyph name="lownumeralsign" format="2">
  <advance width="556"/>
  <unicode hex="0375"/>
  <outline>
    <contour>
      <point x="255" y="281" type="line"/>
      <point x="330" y="262" type="line"/>
      <point x="217" y="-193" type="line"/>
      <point x="99" y="-179" type="line"/>
    </contour>
  </outline>
</glyph>
<glyph name="tonos" format="2">
  <advance width="888"/>
  <unicode hex="0384"/>
  <outline>
    <contour>
      <point x="454" y="1213" type="line"/>
      <point x="373" y="1232" type="line"/>
      <point x="464" y="1605" type="line"/>
      <point x="569" y="1594" type="line"/>
    </contour>
  </outline>
</glyph>
<glyph name="dieresistonos" format="2">
  <advance width="1086"/>
  <unicode hex="0385"/>
  <outline>
    <contour>
      <point x="282" y="1206" type="qcurve" smooth="yes"/>
      <point x="236" y="1206"/>
      <point x="187" y="1260"/>
      <point x="187" y="1297" type="qcurve" smooth="yes"/>
      <point x="187" y="1337"/>
      <point x="236" y="1391"/>
      <point x="282" y="1391" type="qcurve" smooth="yes"/>
      <point x="329" y="1391"/>
      <point x="378" y="1337"/>
      <point x="378" y="1297" type="qcurve" smooth="yes"/>
      <point x="378" y="1260"/>
      <point x="329" y="1206"/>
    </contour>
    <contour>
      <point x="575" y="1204" type="line"/>
      <point x="459" y="1212" type="line"/>
      <point x="512" y="1599" type="line"/>
      <point x="647" y="1599" type="line"/>
    </contour>
    <contour>
      <point x="803" y="1204" type="qcurve" smooth="yes"/>
      <point x="756" y="1204"/>
      <point x="708" y="1258"/>
      <point x="708" y="1295" type="qcurve" smooth="yes"/>
      <point x="708" y="1335"/>
      <point x="756" y="1389"/>
      <point x="803" y="1389" type="qcurve" smooth="yes"/>
      <point x="849" y="1389"/>
      <point x="899" y="1335"/>
      <point x="899" y="1295" type="qcurve" smooth="yes"/>
      <point x="899" y="1258"/>
      <point x="849" y="1204"/>
    </contour>
  </outline>
</glyph>
<glyph name="Delta" format="2">
  <advance width="1251"/>
  <unicode hex="0394"/>
  <outline>
    <contour>
      <point x="84" y="0" type="line"/>
      <point x="84" y="90" type="line"/>
      <point x="555" y="1466" type="line"/>
      <point x="682" y="1466" type="line"/>
      <point x="1164" y="85" type="line"/>
      <point x="1164" y="0" type="line"/>
    </contour>
    <contour>
      <point x="203" y="101" type="line"/>
      <point x="1039" y="101" type="line"/>
      <point x="667" y="1205" type="line" smooth="yes"/>
      <point x="655" y="1239"/>
      <point x="632" y="1312"/>
      <point x="625" y="1345" type="qcurve"/>
      <point x="612" y="1345" type="line"/>
      <point x="605" y="1312"/>
      <point x="585" y="1238"/>
      <point x="574" y="1205" type="qcurve" smooth="yes"/>
    </contour>
  </outline>
</glyph>
<glyph name="Theta" format="2">
  <advance width="1250"/>
  <unicode hex="0398"/>
  <outline>
    <contour>
      <point x="626" y="-30" type="qcurve" smooth="yes"/>
      <point x="401" y="-30"/>
      <point x="115" y="346"/>
      <point x="115" y="682" type="qcurve" smooth="yes"/>
      <point x="115" y="774" type="line" smooth="yes"/>
      <point x="115" y="1110"/>
      <point x="401" y="1486"/>
      <point x="626" y="1486" type="qcurve" smooth="yes"/>
      <point x="849" y="1486"/>
      <point x="1135" y="1110"/>
      <point x="1135" y="774" type="qcurve" smooth="yes"/>
      <point x="1135" y="682" type="line" smooth="yes"/>
      <point x="1135" y="346"/>
      <point x="849" y="-30"/>
    </contour>
    <contour>
      <point x="625" y="72" type="qcurve" smooth="yes"/>
      <point x="804" y="72"/>
      <point x="1022" y="393"/>
      <point x="1022" y="682" type="qcurve" smooth="yes"/>
      <point x="1022" y="774" type="line" smooth="yes"/>
      <point x="1022" y="1063"/>
      <point x="804" y="1384"/>
      <point x="625" y="1384" type="qcurve" smooth="yes"/>
      <point x="445" y="1384"/>
      <point x="227" y="1063"/>
      <point x="227" y="774" type="qcurve" smooth="yes"/>
      <point x="227" y="682" type="line" smooth="yes"/>
      <point x="227" y="393"/>
      <point x="445" y="72"/>
    </contour>
    <contour>
      <point x="375" y="689" type="line"/>
      <point x="375" y="796" type="line"/>
      <point x="875" y="796" type="line"/>
      <point x="875" y="689" type="line"/>
    </contour>
  </outline>
</glyph>
<glyph name="Lambda" format="2">
  <advance width="1154"/>
  <unicode hex="039B"/>
  <outline>
    <contour>
      <point x="27" y="0" type="line"/>
      <point x="537" y="1466" type="line"/>
      <point x="652" y="1466" type="line"/>
      <point x="1154" y="0" type="line"/>
      <point x="1036" y="0" type="line"/>
      <point x="651" y="1132" type="line" smooth="yes"/>
      <point x="640" y="1165"/>
      <point x="609" y="1271"/>
      <point x="602" y="1304" type="qcurve"/>
      <point x="592" y="1304" type="line"/>
      <point x="585" y="1271"/>
      <point x="550" y="1165"/>
      <point x="540" y="1132" type="qcurve" smooth="yes"/>
      <point x="165" y="0" type="line"/>
    </contour>
  </outline>
</glyph>
<glyph name="Xi" format="2">
  <advance width="1106"/>
  <unicode hex="039E"/>
  <outline>
    <contour>
      <point x="68" y="0" type="line"/>
      <point x="68" y="123" type="line"/>
      <point x="1038" y="123" type="line"/>
      <point x="1038" y="0" type="line"/>
    </contour>
    <contour>
      <point x="170" y="689" type="line"/>
      <point x="170" y="813" type="line"/>
      <point x="936" y="813" type="line"/>
      <point x="936" y="689" type="line"/>
    </contour>
    <contour>
      <point x="68" y="1333" type="line"/>
      <point x="68" y="1456" type="line"/>
      <point x="1038" y="1456" type="line"/>
      <point x="1038" y="1333" type="line"/>
    </contour>
  </outline>
</glyph>
<glyph name="Sigma" format="2">
  <advance width="1144"/>
  <unicode hex="03A3"/>
  <outline>
    <contour>
      <point x="65" y="0" type="line"/>
      <point x="65" y="77" type="line"/>
      <point x="609" y="764" type="line"/>
      <point x="609" y="718" type="line"/>
      <point x="77" y="1365" type="line"/>
      <point x="77" y="1456" type="line"/>
      <point x="1046" y="1456" type="line"/>
      <point x="1046" y="1355" type="line"/>
      <point x="194" y="1355" type="line"/>
      <point x="209" y="1372" type="line"/>
      <point x="709" y="765" type="line"/>
      <point x="709" y="724" type="line"/>
      <point x="204" y="78" type="line"/>
      <point x="193" y="101" type="line"/>
      <point x="1078" y="101" type="line"/>
      <point x="1078" y="0" type="line"/>
    </contour>
  </outline>
</glyph>
<glyph name="Phi" format="2">
  <advance width="1477"/>
  <unicode hex="03A6"/>
  <outline>
    <contour>
      <point x="793" y="1476" type="line"/>
      <point x="793" y="1255" type="line"/>
      <point x="821" y="1255" type="line" smooth="yes"/>
      <point x="1088" y="1255"/>
      <point x="1372" y="963"/>
      <point x="1372" y="738" type="qcurve" smooth="yes"/>
      <point x="1372" y="513"/>
      <point x="1088" y="222"/>
      <point x="822" y="222" type="qcurve" smooth="yes"/>
      <point x="793" y="222" type="line"/>
      <point x="793" y="-20" type="line"/>
      <point x="685" y="-20" type="line"/>
      <point x="685" y="222" type="line"/>
      <point x="656" y="222" type="line" smooth="yes"/>
      <point x="390" y="222"/>
      <point x="105" y="514"/>
      <point x="105" y="739" type="qcurve" smooth="yes"/>
      <point x="105" y="964"/>
      <point x="390" y="1255"/>
      <point x="656" y="1255" type="qcurve" smooth="yes"/>
      <point x="685" y="1255" type="line"/>
      <point x="685" y="1476" type="line"/>
    </contour>
    <contour>
      <point x="821" y="1160" type="qcurve" smooth="yes"/>
      <point x="793" y="1160" type="line"/>
      <point x="793" y="318" type="line"/>
      <point x="822" y="318" type="line" smooth="yes"/>
      <point x="1063" y="318"/>
      <point x="1264" y="518"/>
      <point x="1264" y="736" type="qcurve" smooth="yes"/>
      <point x="1264" y="953"/>
      <point x="1062" y="1160"/>
    </contour>
    <contour>
      <point x="656" y="1160" type="line" smooth="yes"/>
      <point x="419" y="1160"/>
      <point x="214" y="960"/>
      <point x="214" y="741" type="qcurve" smooth="yes"/>
      <point x="214" y="525"/>
      <point x="419" y="318"/>
      <point x="656" y="318" type="qcurve" smooth="yes"/>
      <point x="685" y="318" type="line"/>
      <point x="685" y="1160" type="line"/>
    </contour>
  </outline>
</glyph>
<glyph name="Psi" format="2">
  <advance width="1418"/>
  <unicode hex="03A8"/>
  <outline>
    <contour>
      <point x="655" y="0" type="line"/>
      <point x="655" y="1456" type="line"/>
      <point x="763" y="1456" type="line"/>
      <point x="763" y="0" type="line"/>
    </contour>
    <contour>
      <point x="690" y="389" type="line"/>
      <point x="660" y="389" type="line" smooth="yes"/>
      <point x="406" y="389"/>
      <point x="155" y="661"/>
      <point x="155" y="922" type="qcurve" smooth="yes"/>
      <point x="155" y="1456" type="line"/>
      <point x="266" y="1456" type="line"/>
      <point x="266" y="893" type="line" smooth="yes"/>
      <point x="266" y="679"/>
      <point x="439" y="492"/>
      <point x="654" y="492" type="qcurve" smooth="yes"/>
      <point x="690" y="492" type="line"/>
    </contour>
    <contour>
      <point x="728" y="389" type="line"/>
      <point x="728" y="492" type="line"/>
      <point x="764" y="492" type="line" smooth="yes"/>
      <point x="982" y="492"/>
      <point x="1150" y="680"/>
      <point x="1152" y="893" type="qcurve" smooth="yes"/>
      <point x="1152" y="1456" type="line"/>
      <point x="1263" y="1456" type="line"/>
      <point x="1263" y="922" type="line" smooth="yes"/>
      <point x="1263" y="659"/>
      <point x="1011" y="389"/>
      <point x="756" y="389" type="qcurve" smooth="yes"/>
    </contour>
  </outline>
</glyph>
<glyph name="Omega" format="2">
  <advance width="1276"/>
  <unicode hex="03A9"/>
  <outline>
    <contour>
      <point x="115" y="0" type="line"/>
      <point x="115" y="102" type="line"/>
      <point x="428" y="102" type="line"/>
      <point x="428" y="325" type="line"/>
      <point x="278" y="376"/>
      <point x="115" y="626"/>
      <point x="115" y="835" type="qcurve"/>
      <point x="115" y="891" type="line"/>
      <point x="115" y="1169"/>
      <point x="381" y="1486"/>
      <point x="638" y="1486" type="qcurve"/>
      <point x="896" y="1486"/>
      <point x="1161" y="1169"/>
      <point x="1161" y="891" type="qcurve"/>
      <point x="1161" y="835" type="line"/>
      <point x="1161" y="637"/>
      <point x="1010" y="377"/>
      <point x="848" y="325" type="qcurve"/>
      <point x="848" y="102" type="line"/>
      <point x="1161" y="102" type="line"/>
      <point x="1161" y="0" type="line"/>
      <point x="747" y="0" type="line"/>
      <point x="747" y="399" type="line"/>
      <point x="895" y="425"/>
      <point x="1050" y="646"/>
      <point x="1050" y="835" type="qcurve"/>
      <point x="1050" y="891" type="line"/>
      <point x="1050" y="1144"/>
      <point x="833" y="1382"/>
      <point x="638" y="1382" type="qcurve"/>
      <point x="443" y="1382"/>
      <point x="227" y="1144"/>
      <point x="227" y="891" type="qcurve"/>
      <point x="227" y="835" type="line"/>
      <point x="227" y="657"/>
      <point x="374" y="434"/>
      <point x="530" y="399" type="qcurve"/>
      <point x="530" y="0" type="line"/>
    </contour>
  </outline>
</glyph>
<glyph name="alpha" format="2">
  <advance width="1049"/>
  <unicode hex="03B1"/>
  <outline>
    <contour>
      <point x="456" y="-20" type="qcurve" smooth="yes"/>
      <point x="289" y="-20"/>
      <point x="85" y="239"/>
      <point x="85" y="444" type="qcurve" smooth="yes"/>
      <point x="85" y="471" type="line" smooth="yes"/>
      <point x="85" y="674"/>
      <point x="288" y="934"/>
      <point x="456" y="934" type="qcurve" smooth="yes"/>
      <point x="549" y="934"/>
      <point x="689" y="824"/>
      <point x="722" y="749" type="qcurve"/>
      <point x="728" y="749" type="line"/>
      <point x="736" y="914" type="line"/>
      <point x="827" y="914" type="line"/>
      <point x="827" y="207" type="line" smooth="yes"/>
      <point x="827" y="132"/>
      <point x="874" y="75"/>
      <point x="926" y="75" type="qcurve"/>
      <point x="942" y="75"/>
      <point x="981" y="82"/>
      <point x="999" y="89" type="qcurve"/>
      <point x="999" y="-8" type="line"/>
      <point x="984" y="-17"/>
      <point x="938" y="-30"/>
      <point x="911" y="-30" type="qcurve" smooth="yes"/>
      <point x="824" y="-30"/>
      <point x="733" y="64"/>
      <point x="722" y="165" type="qcurve"/>
      <point x="716" y="165" type="line"/>
      <point x="672" y="69"/>
      <point x="543" y="-20"/>
    </contour>
    <contour>
      <point x="466" y="77" type="qcurve" smooth="yes"/>
      <point x="559" y="77"/>
      <point x="689" y="178"/>
      <point x="718" y="243" type="qcurve"/>
      <point x="718" y="618" type="line"/>
      <point x="682" y="749"/>
      <point x="547" y="837"/>
      <point x="466" y="837" type="qcurve" smooth="yes"/>
      <point x="327" y="837"/>
      <point x="195" y="660"/>
      <point x="195" y="471" type="qcurve" smooth="yes"/>
      <point x="195" y="443" type="line" smooth="yes"/>
      <point x="195" y="254"/>
      <point x="327" y="77"/>
    </contour>
  </outline>
</glyph>
<glyph name="beta" format="2">
  <advance width="991"/>
  <unicode hex="03B2"/>
  <outline>
    <contour>
      <point x="148" y="-445" type="line"/>
      <point x="148" y="1058" type="line" smooth="yes"/>
      <point x="148" y="1310"/>
      <point x="332" y="1556"/>
      <point x="503" y="1556" type="qcurve" smooth="yes"/>
      <point x="648" y="1556"/>
      <point x="828" y="1338"/>
      <point x="828" y="1146" type="qcurve"/>
      <point x="828" y="1028"/>
      <point x="733" y="814"/>
      <point x="599" y="777" type="qcurve"/>
      <point x="599" y="803" type="line"/>
      <point x="743" y="787"/>
      <point x="906" y="578"/>
      <point x="906" y="413" type="qcurve" smooth="yes"/>
      <point x="906" y="226"/>
      <point x="711" y="-21"/>
      <point x="554" y="-21" type="qcurve" smooth="yes"/>
      <point x="462" y="-21"/>
      <point x="298" y="64"/>
      <point x="256" y="136" type="qcurve"/>
      <point x="256" y="-445" type="line"/>
    </contour>
    <contour>
      <point x="537" y="77" type="qcurve"/>
      <point x="656" y="77"/>
      <point x="797" y="228"/>
      <point x="797" y="407" type="qcurve"/>
      <point x="797" y="541"/>
      <point x="642" y="714"/>
      <point x="475" y="713" type="qcurve" smooth="yes"/>
      <point x="392" y="713" type="line"/>
      <point x="392" y="829" type="line"/>
      <point x="476" y="829" type="line" smooth="yes"/>
      <point x="605" y="829"/>
      <point x="719" y="1014"/>
      <point x="719" y="1128" type="qcurve" smooth="yes"/>
      <point x="719" y="1316"/>
      <point x="594" y="1459"/>
      <point x="492" y="1459" type="qcurve" smooth="yes"/>
      <point x="375" y="1459"/>
      <point x="256" y="1291"/>
      <point x="256" y="1120" type="qcurve" smooth="yes"/>
      <point x="256" y="238" type="line"/>
      <point x="287" y="173"/>
      <point x="416" y="77"/>
    </contour>
  </outline>
</glyph>
<glyph name="gamma" format="2">
  <advance width="868"/>
  <unicode hex="03B3"/>
  <outline>
    <contour>
      <point x="371" y="-402" type="line"/>
      <point x="371" y="38" type="line"/>
      <point x="0" y="914" type="line"/>
      <point x="102" y="914" type="line"/>
      <point x="357" y="317" type="line" smooth="yes"/>
      <point x="374" y="278"/>
      <point x="409" y="169"/>
      <point x="413" y="149" type="qcurve"/>
      <point x="419" y="149" type="line"/>
      <point x="423" y="169"/>
      <point x="455" y="278"/>
      <point x="471" y="317" type="qcurve" smooth="yes"/>
      <point x="708" y="914" type="line"/>
      <point x="830" y="914" type="line"/>
      <point x="479" y="64" type="line"/>
      <point x="479" y="-402" type="line"/>
    </contour>
  </outline>
</glyph>
<glyph name="delta" format="2">
  <advance width="945"/>
  <unicode hex="03B4"/>
  <outline>
    <contour>
      <point x="474" y="-30" type="qcurve" smooth="yes"/>
      <point x="293" y="-30"/>
      <point x="85" y="213"/>
      <point x="85" y="404" type="qcurve" smooth="yes"/>
      <point x="85" y="425" type="line" smooth="yes"/>
      <point x="85" y="640"/>
      <point x="315" y="869"/>
      <point x="434" y="904" type="qcurve"/>
      <point x="584" y="857" type="line"/>
      <point x="384" y="832"/>
      <point x="191" y="624"/>
      <point x="191" y="421" type="qcurve" smooth="yes"/>
      <point x="191" y="409" type="line" smooth="yes"/>
      <point x="191" y="240"/>
      <point x="351" y="61"/>
      <point x="471" y="62" type="qcurve"/>
      <point x="601" y="62"/>
      <point x="754" y="239"/>
      <point x="754" y="397" type="qcurve" smooth="yes"/>
      <point x="754" y="419" type="line" smooth="yes"/>
      <point x="754" y="578"/>
      <point x="591" y="771"/>
      <point x="495" y="846" type="qcurve" smooth="yes"/>
      <point x="360" y="936"/>
      <point x="237" y="1120"/>
      <point x="238" y="1245" type="qcurve" smooth="yes"/>
      <point x="237" y="1377"/>
      <point x="397" y="1555"/>
      <point x="532" y="1555" type="qcurve" smooth="yes"/>
      <point x="629" y="1555"/>
      <point x="772" y="1519"/>
      <point x="806" y="1499" type="qcurve"/>
      <point x="778" y="1399" type="line"/>
      <point x="739" y="1424"/>
      <point x="621" y="1459"/>
      <point x="544" y="1459" type="qcurve" smooth="yes"/>
      <point x="457" y="1459"/>
      <point x="346" y="1364"/>
      <point x="346" y="1262" type="qcurve" smooth="yes"/>
      <point x="346" y="1163"/>
      <point x="447" y="1049"/>
      <point x="584" y="948" type="qcurve" smooth="yes"/>
      <point x="705" y="851"/>
      <point x="860" y="651"/>
      <point x="860" y="456" type="qcurve" smooth="yes"/>
      <point x="860" y="434" type="line" smooth="yes"/>
      <point x="860" y="225"/>
      <point x="643" y="-30"/>
    </contour>
  </outline>
</glyph>
<glyph name="epsilon" format="2">
  <advance width="888"/>
  <unicode hex="03B5"/>
  <outline>
    <contour>
      <point x="451" y="-30" type="qcurve"/>
      <point x="281" y="-30"/>
      <point x="99" y="115"/>
      <point x="99" y="236" type="qcurve" smooth="yes"/>
      <point x="99" y="325"/>
      <point x="232" y="446"/>
      <point x="372" y="460" type="qcurve"/>
      <point x="371" y="458" type="line"/>
      <point x="257" y="473"/>
      <point x="142" y="580"/>
      <point x="142" y="670" type="qcurve" smooth="yes"/>
      <point x="142" y="792"/>
      <point x="299" y="944"/>
      <point x="476" y="944" type="qcurve" smooth="yes"/>
      <point x="648" y="944"/>
      <point x="822" y="741"/>
      <point x="822" y="599" type="qcurve"/>
      <point x="718" y="599" type="line"/>
      <point x="716" y="743"/>
      <point x="587" y="847"/>
      <point x="468" y="847" type="qcurve" smooth="yes"/>
      <point x="352" y="847"/>
      <point x="246" y="757"/>
      <point x="246" y="671" type="qcurve" smooth="yes"/>
      <point x="246" y="580"/>
      <point x="349" y="507"/>
      <point x="442" y="507" type="qcurve" smooth="yes"/>
      <point x="617" y="509" type="line"/>
      <point x="617" y="408" type="line"/>
      <point x="438" y="408" type="line" smooth="yes"/>
      <point x="324" y="408"/>
      <point x="208" y="330"/>
      <point x="208" y="234" type="qcurve" smooth="yes"/>
      <point x="208" y="157"/>
      <point x="320" y="68"/>
      <point x="456" y="68" type="qcurve"/>
      <point x="597" y="68"/>
      <point x="718" y="188"/>
      <point x="719" y="314" type="qcurve"/>
      <point x="823" y="314" type="line"/>
      <point x="823" y="178"/>
      <point x="647" y="-30"/>
    </contour>
  </outline>
</glyph>
<glyph name="zeta" format="2">
  <advance width="735"/>
  <unicode hex="03B6"/>
  <outline>
    <contour>
      <point x="588" y="-385" type="line"/>
      <point x="616" y="-323"/>
      <point x="648" y="-215"/>
      <point x="651" y="-149" type="qcurve" smooth="yes"/>
      <point x="653" y="-81"/>
      <point x="593" y="-15"/>
      <point x="493" y="11" type="qcurve" smooth="yes"/>
      <point x="348" y="48" type="line" smooth="yes"/>
      <point x="207" y="86"/>
      <point x="65" y="215"/>
      <point x="65" y="345" type="qcurve"/>
      <point x="65" y="463"/>
      <point x="163" y="680"/>
      <point x="365" y="999" type="qcurve" smooth="yes"/>
      <point x="661" y="1463" type="line"/>
      <point x="667" y="1439" type="line"/>
      <point x="111" y="1439" type="line"/>
      <point x="111" y="1536" type="line"/>
      <point x="759" y="1536" type="line"/>
      <point x="759" y="1434" type="line"/>
      <point x="430" y="920" type="line" smooth="yes"/>
      <point x="271" y="672"/>
      <point x="181" y="459"/>
      <point x="181" y="365" type="qcurve"/>
      <point x="181" y="291"/>
      <point x="253" y="194"/>
      <point x="377" y="161" type="qcurve" smooth="yes"/>
      <point x="519" y="125" type="line" smooth="yes"/>
      <point x="669" y="84"/>
      <point x="768" y="-24"/>
      <point x="768" y="-100" type="qcurve" smooth="yes"/>
      <point x="768" y="-173"/>
      <point x="726" y="-313"/>
      <point x="696" y="-385" type="qcurve"/>
    </contour>
  </outline>
</glyph>
<glyph name="eta" format="2">
  <advance width="948"/>
  <unicode hex="03B7"/>
  <outline>
    <contour>
      <point x="702" y="-445" type="line"/>
      <point x="702" y="602" type="line" smooth="yes"/>
      <point x="702" y="728"/>
      <point x="598" y="833"/>
      <point x="501" y="833" type="qcurve" smooth="yes"/>
      <point x="418" y="833"/>
      <point x="298" y="754"/>
      <point x="256" y="677" type="qcurve"/>
      <point x="256" y="0" type="line"/>
      <point x="148" y="0" type="line"/>
      <point x="148" y="914" type="line"/>
      <point x="238" y="914" type="line"/>
      <point x="246" y="760" type="line"/>
      <point x="252" y="760" type="line"/>
      <point x="297" y="842"/>
      <point x="437" y="934"/>
      <point x="521" y="934" type="qcurve" smooth="yes"/>
      <point x="653" y="934"/>
      <point x="810" y="757"/>
      <point x="810" y="545" type="qcurve" smooth="yes"/>
      <point x="810" y="-445" type="line"/>
    </contour>
  </outline>
</glyph>
<glyph name="theta" format="2">
  <advance width="944"/>
  <unicode hex="03B8"/>
  <outline>
    <contour>
      <point x="473" y="-30" type="qcurve" smooth="yes"/>
      <point x="300" y="-30"/>
      <point x="95" y="284"/>
      <point x="95" y="654" type="qcurve"/>
      <point x="95" y="882" type="line"/>
      <point x="95" y="1242"/>
      <point x="298" y="1556"/>
      <point x="473" y="1556" type="qcurve" smooth="yes"/>
      <point x="647" y="1556"/>
      <point x="849" y="1242"/>
      <point x="849" y="882" type="qcurve"/>
      <point x="849" y="654" type="line"/>
      <point x="849" y="284"/>
      <point x="649" y="-30"/>
    </contour>
    <contour>
      <point x="474" y="67" type="qcurve" smooth="yes"/>
      <point x="600" y="67"/>
      <point x="739" y="297"/>
      <point x="739" y="614" type="qcurve"/>
      <point x="739" y="916" type="line" smooth="yes"/>
      <point x="739" y="1233"/>
      <point x="598" y="1459"/>
      <point x="473" y="1459" type="qcurve" smooth="yes"/>
      <point x="349" y="1459"/>
      <point x="205" y="1233"/>
      <point x="205" y="916" type="qcurve" smooth="yes"/>
      <point x="205" y="614" type="line" smooth="yes"/>
      <point x="205" y="297"/>
      <point x="351" y="67"/>
    </contour>
    <contour>
      <point x="149" y="634" type="line"/>
      <point x="149" y="742" type="line"/>
      <point x="795" y="742" type="line"/>
      <point x="795" y="634" type="line"/>
    </contour>
  </outline>
</glyph>
<glyph name="iota" format="2">
  <advance width="522"/>
  <unicode hex="03B9"/>
  <outline>
    <contour>
      <point x="342" y="-30" type="qcurve" smooth="yes"/>
      <point x="249" y="-30"/>
      <point x="138" y="110"/>
      <point x="138" y="260" type="qcurve" smooth="yes"/>
      <point x="138" y="914" type="line"/>
      <point x="246" y="914" type="line"/>
      <point x="246" y="238" type="line" smooth="yes"/>
      <point x="246" y="156"/>
      <point x="306" y="74"/>
      <point x="362" y="74" type="qcurve" smooth="yes"/>
      <point x="390" y="74"/>
      <point x="444" y="87"/>
      <point x="472" y="97" type="qcurve"/>
      <point x="472" y="0" type="line"/>
      <point x="451" y="-12"/>
      <point x="383" y="-30"/>
    </contour>
  </outline>
</glyph>
<glyph name="kappa" format="2">
  <advance width="928"/>
  <unicode hex="03BA"/>
  <outline>
    <contour>
      <point x="148" y="0" type="line"/>
      <point x="148" y="914" type="line"/>
      <point x="256" y="914" type="line"/>
      <point x="256" y="519" type="line"/>
      <point x="389" y="518" type="line"/>
      <point x="725" y="914" type="line"/>
      <point x="880" y="914" type="line"/>
      <point x="479" y="465" type="line"/>
      <point x="894" y="0" type="line"/>
      <point x="757" y="0" type="line"/>
      <point x="399" y="423" type="line"/>
      <point x="256" y="423" type="line"/>
      <point x="256" y="0" type="line"/>
    </contour>
  </outline>
</glyph>
<glyph name="lambda" format="2">
  <advance width="838"/>
  <unicode hex="03BB"/>
  <outline>
    <contour>
      <point x="27" y="0" type="line"/>
      <point x="396" y="950" type="line"/>
      <point x="340" y="1110" type="line" smooth="yes"/>
      <point x="281" y="1285"/>
      <point x="194" y="1451"/>
      <point x="125" y="1451" type="qcurve" smooth="yes"/>
      <point x="96" y="1451"/>
      <point x="40" y="1440"/>
      <point x="25" y="1436" type="qcurve"/>
      <point x="25" y="1536" type="line"/>
      <point x="53" y="1546"/>
      <point x="114" y="1556"/>
      <point x="149" y="1556" type="qcurve" smooth="yes"/>
      <point x="218" y="1556"/>
      <point x="325" y="1426"/>
      <point x="388" y="1251" type="qcurve" smooth="yes"/>
      <point x="839" y="0" type="line"/>
      <point x="736" y="0" type="line"/>
      <point x="523" y="612" type="line" smooth="yes"/>
      <point x="511" y="650"/>
      <point x="477" y="763"/>
      <point x="460" y="820" type="qcurve"/>
      <point x="456" y="820" type="line"/>
      <point x="440" y="761"/>
      <point x="397" y="640"/>
      <point x="386" y="608" type="qcurve" smooth="yes"/>
      <point x="160" y="0" type="line"/>
    </contour>
  </outline>
</glyph>
<glyph name="mu" format="2">
  <advance width="1071"/>
  <unicode hex="03BC"/>
  <outline>
    <contour>
      <point x="148" y="-445" type="line"/>
      <point x="148" y="914" type="line"/>
      <point x="256" y="914" type="line"/>
      <point x="256" y="217" type="line"/>
      <point x="292" y="156"/>
      <point x="426" y="77"/>
      <point x="502" y="77" type="qcurve" smooth="yes"/>
      <point x="594" y="77"/>
      <point x="736" y="213"/>
      <point x="736" y="302" type="qcurve" smooth="yes"/>
      <point x="736" y="915" type="line"/>
      <point x="845" y="915" type="line"/>
      <point x="845" y="207" type="line" smooth="yes"/>
      <point x="845" y="132"/>
      <point x="897" y="75"/>
      <point x="947" y="75" type="qcurve" smooth="yes"/>
      <point x="970" y="75"/>
      <point x="1010" y="82"/>
      <point x="1029" y="89" type="qcurve"/>
      <point x="1028" y="-8" type="line"/>
      <point x="1012" y="-17"/>
      <point x="966" y="-30"/>
      <point x="922" y="-30" type="qcurve"/>
      <point x="848" y="-30"/>
      <point x="758" y="48"/>
      <point x="744" y="120" type="qcurve"/>
      <point x="738" y="120" type="line"/>
      <point x="702" y="58"/>
      <point x="576" y="-20"/>
      <point x="504" y="-20" type="qcurve" smooth="yes"/>
      <point x="409" y="-20"/>
      <point x="291" y="33"/>
      <point x="256" y="74" type="qcurve"/>
      <point x="256" y="-445" type="line"/>
    </contour>
  </outline>
</glyph>
<glyph name="xi" format="2">
  <advance width="824"/>
  <unicode hex="03BE"/>
  <outline>
    <contour>
      <point x="613" y="-385" type="line"/>
      <point x="638" y="-329"/>
      <point x="672" y="-226"/>
      <point x="672" y="-168" type="qcurve"/>
      <point x="672" y="-96"/>
      <point x="581" y="-15"/>
      <point x="455" y="17" type="qcurve" smooth="yes"/>
      <point x="403" y="32" type="line" smooth="yes"/>
      <point x="299" y="61"/>
      <point x="93" y="225"/>
      <point x="93" y="380" type="qcurve"/>
      <point x="93" y="538"/>
      <point x="244" y="721"/>
      <point x="404" y="770" type="qcurve"/>
      <point x="404" y="750" type="line"/>
      <point x="273" y="798"/>
      <point x="134" y="945"/>
      <point x="135" y="1063" type="qcurve"/>
      <point x="135" y="1205"/>
      <point x="310" y="1396"/>
      <point x="553" y="1442" type="qcurve"/>
      <point x="553" y="1439" type="line"/>
      <point x="87" y="1439" type="line"/>
      <point x="87" y="1536" type="line"/>
      <point x="750" y="1536" type="line"/>
      <point x="750" y="1429" type="line"/>
      <point x="442" y="1395"/>
      <point x="241" y="1221"/>
      <point x="241" y="1082" type="qcurve" smooth="yes"/>
      <point x="241" y="975"/>
      <point x="376" y="816"/>
      <point x="519" y="818" type="qcurve" smooth="yes"/>
      <point x="688" y="819" type="line"/>
      <point x="688" y="721" type="line"/>
      <point x="516" y="721" type="line" smooth="yes"/>
      <point x="373" y="721"/>
      <point x="200" y="543"/>
      <point x="200" y="410" type="qcurve"/>
      <point x="200" y="296"/>
      <point x="311" y="166"/>
      <point x="448" y="129" type="qcurve" smooth="yes"/>
      <point x="509" y="112" type="line" smooth="yes"/>
      <point x="651" y="74"/>
      <point x="779" y="-41"/>
      <point x="779" y="-119" type="qcurve"/>
      <point x="779" y="-187"/>
      <point x="741" y="-324"/>
      <point x="712" y="-385" type="qcurve"/>
    </contour>
  </outline>
</glyph>
<glyph name="pi" format="2">
  <advance width="992"/>
  <unicode hex="03C0"/>
  <outline>
    <contour>
      <point x="0" y="804" type="line"/>
      <point x="0" y="914" type="line"/>
      <point x="937" y="914" type="line"/>
      <point x="937" y="804" type="line"/>
    </contour>
    <contour>
      <point x="163" y="0" type="line"/>
      <point x="163" y="860" type="line"/>
      <point x="271" y="860" type="line"/>
      <point x="271" y="0" type="line"/>
    </contour>
    <contour>
      <point x="847" y="-28" type="qcurve" smooth="yes"/>
      <point x="757" y="-28"/>
      <point x="665" y="91"/>
      <point x="665" y="242" type="qcurve"/>
      <point x="665" y="860" type="line"/>
      <point x="773" y="860" type="line"/>
      <point x="773" y="226" type="line"/>
      <point x="773" y="143"/>
      <point x="813" y="77"/>
      <point x="869" y="77" type="qcurve"/>
      <point x="883" y="77"/>
      <point x="923" y="86"/>
      <point x="934" y="91" type="qcurve"/>
      <point x="934" y="-6" type="line"/>
      <point x="921" y="-15"/>
      <point x="876" y="-28"/>
    </contour>
  </outline>
</glyph>
<glyph name="rho" format="2">
  <advance width="975"/>
  <unicode hex="03C1"/>
  <outline>
    <contour>
      <point x="148" y="-445" type="line"/>
      <point x="148" y="474" type="line" smooth="yes"/>
      <point x="148" y="691"/>
      <point x="346" y="941"/>
      <point x="519" y="941" type="qcurve" smooth="yes"/>
      <point x="694" y="941"/>
      <point x="890" y="676"/>
      <point x="890" y="475" type="qcurve" smooth="yes"/>
      <point x="890" y="442" type="line" smooth="yes"/>
      <point x="890" y="246"/>
      <point x="704" y="-19"/>
      <point x="546" y="-20" type="qcurve" smooth="yes"/>
      <point x="460" y="-21"/>
      <point x="297" y="64"/>
      <point x="256" y="137" type="qcurve"/>
      <point x="256" y="-445" type="line"/>
    </contour>
    <contour>
      <point x="509" y="78" type="qcurve" smooth="yes"/>
      <point x="647" y="78"/>
      <point x="780" y="257"/>
      <point x="780" y="449" type="qcurve" smooth="yes"/>
      <point x="780" y="475" type="line" smooth="yes"/>
      <point x="780" y="660"/>
      <point x="650" y="843"/>
      <point x="519" y="843" type="qcurve" smooth="yes"/>
      <point x="406" y="843"/>
      <point x="256" y="696"/>
      <point x="256" y="484" type="qcurve" smooth="yes"/>
      <point x="256" y="234" type="line"/>
      <point x="288" y="171"/>
      <point x="415" y="78"/>
    </contour>
  </outline>
</glyph>
<glyph name="finalsigma" format="2">
  <advance width="866"/>
  <unicode hex="03C2"/>
  <outline>
    <contour>
      <point x="549" y="-385" type="line"/>
      <point x="573" y="-327"/>
      <point x="606" y="-217"/>
      <point x="606" y="-147" type="qcurve"/>
      <point x="606" y="-73"/>
      <point x="538" y="-4"/>
      <point x="454" y="17" type="qcurve" smooth="yes"/>
      <point x="402" y="31" type="line" smooth="yes"/>
      <point x="230" y="79"/>
      <point x="85" y="278"/>
      <point x="85" y="444" type="qcurve" smooth="yes"/>
      <point x="85" y="478" type="line" smooth="yes"/>
      <point x="85" y="703"/>
      <point x="274" y="944"/>
      <point x="469" y="944" type="qcurve" smooth="yes"/>
      <point x="645" y="944"/>
      <point x="803" y="763"/>
      <point x="803" y="613" type="qcurve" smooth="yes"/>
      <point x="803" y="599" type="line"/>
      <point x="698" y="599" type="line"/>
      <point x="698" y="613" type="line" smooth="yes"/>
      <point x="698" y="748"/>
      <point x="585" y="847"/>
      <point x="472" y="847" type="qcurve"/>
      <point x="326" y="847"/>
      <point x="195" y="677"/>
      <point x="195" y="485" type="qcurve" smooth="yes"/>
      <point x="195" y="456" type="line" smooth="yes"/>
      <point x="195" y="332"/>
      <point x="301" y="173"/>
      <point x="451" y="129" type="qcurve" smooth="yes"/>
      <point x="504" y="114" type="line" smooth="yes"/>
      <point x="615" y="78"/>
      <point x="716" y="-27"/>
      <point x="716" y="-126" type="qcurve"/>
      <point x="716" y="-221"/>
      <point x="676" y="-327"/>
      <point x="647" y="-385" type="qcurve"/>
    </contour>
  </outline>
</glyph>
<glyph name="sigma" format="2">
  <advance width="1023"/>
  <unicode hex="03C3"/>
  <outline>
    <contour>
      <point x="481" y="-30" type="qcurve" smooth="yes"/>
      <point x="303" y="-30"/>
      <point x="85" y="220"/>
      <point x="85" y="427" type="qcurve" smooth="yes"/>
      <point x="85" y="451" type="line" smooth="yes"/>
      <point x="85" y="646"/>
      <point x="303" y="914"/>
      <point x="545" y="914" type="qcurve"/>
      <point x="973" y="914" type="line"/>
      <point x="973" y="805" type="line"/>
      <point x="696" y="805" type="line"/>
      <point x="696" y="828" type="line"/>
      <point x="779" y="785"/>
      <point x="877" y="590"/>
      <point x="877" y="450" type="qcurve" smooth="yes"/>
      <point x="877" y="433" type="line" smooth="yes"/>
      <point x="877" y="225"/>
      <point x="661" y="-30"/>
    </contour>
    <contour>
      <point x="481" y="66" type="qcurve" smooth="yes"/>
      <point x="625" y="66"/>
      <point x="767" y="283"/>
      <point x="767" y="452" type="qcurve" smooth="yes"/>
      <point x="767" y="480" type="line" smooth="yes"/>
      <point x="767" y="618"/>
      <point x="662" y="792"/>
      <point x="579" y="824" type="qcurve"/>
      <point x="385" y="836"/>
      <point x="195" y="620"/>
      <point x="195" y="448" type="qcurve" smooth="yes"/>
      <point x="195" y="419" type="line" smooth="yes"/>
      <point x="195" y="270"/>
      <point x="338" y="66"/>
    </contour>
  </outline>
</glyph>
